<svg id="Ebene_1" data-name="Ebene 1" xmlns="http://www.w3.org/2000/svg" width="22" height="21.46" viewBox="0 0 22 21.46">
  <title>github</title>
  <path d="M11.5.27A11,11,0,0,0,8,21.71c.55.1.75-.24.75-.53s0-1,0-1.87C5.7,20,5.05,17.83,5.05,17.83a2.91,2.91,0,0,0-1.22-1.61c-1-.68.08-.67.08-.67a2.31,2.31,0,0,1,1.68,1.13,2.34,2.34,0,0,0,3.2.91,2.35,2.35,0,0,1,.7-1.47c-2.44-.28-5-1.22-5-5.44a4.25,4.25,0,0,1,1.13-3,4,4,0,0,1,.11-2.91s.92-.3,3,1.13a10.43,10.43,0,0,1,5.51,0c2.1-1.42,3-1.13,3-1.13a4,4,0,0,1,.11,2.91,4.24,4.24,0,0,1,1.13,3c0,4.23-2.57,5.16-5,5.43a2.63,2.63,0,0,1,.75,2c0,1.47,0,2.66,0,3s.2.64.76.53A11,11,0,0,0,11.5.27Z" transform="translate(-0.5 -0.27)"/>
</svg>
