<svg xmlns="http://www.w3.org/2000/svg" xmlns:xlink="http://www.w3.org/1999/xlink">
	<defs>
		<symbol id="dribbble" viewBox="0 0 32 32">
			<title>dribbble</title>
			<path class="path1" d="M16 32c-8.824 0-16-7.176-16-16s7.174-16 16-16c8.824 0 16 7.174 16 16s-7.176 16-16 16zM29.494 18.188c-0.468-0.15-4.232-1.268-8.512-0.582 1.044 2.734 1.963 6.004 2.598 9.375 3.125-1.722 5.278-4.959 5.903-8.713zM21.338 28.6c-0.206-1.2-0.994-5.376-2.912-10.362-0.032 0.012-0.062 0.018-0.088 0.032-7.712 2.688-10.482 8.032-10.724 8.532 2.287 1.802 5.21 2.89 8.387 2.89 1.929 0 3.764-0.401 5.427-1.125zM5.844 25.156c0.312-0.532 4.062-6.738 11.106-9.018 0.078-0.030 0.258-0.086 0.439-0.138-0.373-1.099-0.744-1.86-1.133-2.61-6.692 2.311-13.318 2.223-13.918 2.217-0.006 0.138-0.006 0.276-0.006 0.418 0 3.506 1.332 6.712 3.512 9.132zM2.626 13.218c0.612 0.006 6.244 0.032 12.638-1.662-1.759-3.090-3.435-5.672-5.24-8.154-3.667 2.087-6.474 5.552-7.38 9.725zM12.8 2.732c1.702 2.293 3.39 4.908 4.91 7.629 5.052-1.447 7.108-4.217 7.352-4.567-2.392-2.139-5.567-3.447-9.048-3.447-1.141 0-2.249 0.14-3.308 0.405zM26.582 7.382c-0.288 0.388-2.582 3.326-7.632 5.388 0.318 0.65 0.626 1.312 0.906 1.982 0.1 0.238 0.2 0.468 0.294 0.706 4.55-0.568 9.068 0.344 9.518 0.438-0.032-3.245-1.192-6.212-3.107-8.535z"/>
		</symbol>
		<symbol id="facebook" viewBox="0 0 32 32">
			<title>facebook</title>
			<path class="path1" d="M18.621 10.362v-3.321c0-1.248 0.81-1.537 1.382-1.537h3.505v-5.484l-4.828-0.019c-5.359 0-6.579 4.090-6.579 6.707v3.655h-3.1v5.649h3.1v15.988h6.519v-15.988h4.399l0.569-5.649h-4.967z"/>
		</symbol>
		<symbol id="github" viewBox="0 0 32 32">
			<title>github</title>
			<path class="path1" d="M16 0.727c-0.015-0-0.033-0-0.051-0-8.837 0-16 7.163-16 16 0 7.034 4.539 13.008 10.848 15.152 0.913 0.179 1.204-0.316 1.204-0.738v-2.72c-4.436 1.004-5.382-2.153-5.382-2.153-0.305-0.987-0.933-1.799-1.758-2.332-1.471-0.999 0.1-0.985 0.1-0.985 1.049 0.15 1.929 0.766 2.435 1.628 0.599 1.075 1.713 1.779 2.991 1.779 0.615 0 1.191-0.163 1.689-0.448 0.062-0.835 0.437-1.578 1.001-2.129-3.548-0.408-7.272-1.775-7.272-7.913-0.001-0.049-0.002-0.106-0.002-0.164 0-1.623 0.626-3.101 1.649-4.204-0.208-0.566-0.327-1.223-0.327-1.908 0-0.839 0.178-1.637 0.498-2.358s1.324-0.399 4.349 1.681c1.201-0.342 2.581-0.539 4.007-0.539s2.806 0.197 4.114 0.564c2.948-2.091 4.257-1.669 4.257-1.669 0.305 0.684 0.483 1.482 0.483 2.321 0 0.685-0.118 1.342-0.336 1.952 1.033 1.056 1.659 2.532 1.659 4.154 0 0.059-0.001 0.119-0.003 0.178 0 6.144-3.738 7.497-7.273 7.889 0.679 0.69 1.098 1.637 1.098 2.682 0 0.080-0.002 0.159-0.007 0.238l0.001 4.353c0 0.495 0.291 0.931 1.105 0.771 6.269-2.262 10.669-8.16 10.669-15.086 0-8.747-7.019-15.854-15.732-15.998z"/>
		</symbol>
		<symbol id="linked_in" viewBox="0 0 32 32">
			<title>linked_in</title>
			<path class="path1" d="M26.527 26.258h-4.544v-7.152c0-1.705-0.029-3.899-2.361-3.899-2.365 0-2.726 1.858-2.726 3.777v7.273h-4.538v-14.706h4.355v2.011h0.063c0.606-1.156 2.088-2.375 4.298-2.375 4.601 0 5.452 3.045 5.452 7.005v8.065zM7.235 9.543c-1.46 0-2.636-1.187-2.636-2.651s1.177-2.65 2.636-2.65c1.454 0 2.633 1.187 2.633 2.65s-1.179 2.651-2.633 2.651zM4.959 26.258v-14.706h4.549v14.706h-4.549zM28.789 0h-26.11c-1.247 0-2.259 0.995-2.259 2.222v26.37c0 1.227 1.013 2.224 2.259 2.224h26.11c1.249 0 2.266-0.996 2.266-2.224v-26.37c0-1.228-1.017-2.222-2.266-2.222z"/>
		</symbol>
		<symbol id="medium" viewBox="0 0 32 32">
			<title>medium</title>
			<path class="path1" d="M10.661 7.518v20.946q0 0.446-0.223 0.759t-0.651 0.312q-0.303 0-0.589-0.142l-8.303-4.161q-0.375-0.178-0.634-0.598t-0.259-0.83v-20.357q0-0.357 0.178-0.607t0.518-0.25q0.25 0 0.786 0.268l9.125 4.571q0.053 0.053 0.053 0.089zM11.803 9.321l9.536 15.464-9.536-4.75v-10.714zM32 9.643v18.821q0 0.446-0.25 0.723t-0.679 0.277-0.84-0.232l-7.875-3.928zM31.947 7.5q0 0.053-4.581 7.491t-5.366 8.706l-6.965-11.321 5.786-9.411q0.303-0.5 0.929-0.5 0.25 0 0.464 0.107l9.661 4.821q0.072 0.036 0.072 0.107z"/>
		</symbol>
		<symbol id="twitter" viewBox="0 0 32 32">
			<title>twitter</title>
			<path class="path1" d="M32.089 6.443c-1.102 0.483-2.381 0.834-3.719 0.989 1.288-0.77 2.311-1.988 2.819-3.447-1.192 0.654-2.594 1.187-4.082 1.476-1.302-1.219-2.991-1.983-4.859-1.983-0.011 0-0.022 0-0.033 0-3.634 0-6.581 2.831-6.581 6.322 0 0.495 0.058 0.977 0.171 1.44-5.472-0.264-10.323-2.781-13.571-6.606-0.559 0.904-0.89 2.001-0.89 3.174 0 0.002 0 0.003 0 0.005 0 2.192 1.162 4.128 2.929 5.262-1.096-0.033-2.118-0.322-3.017-0.809l0.036 0.098c0 3.062 2.269 5.618 5.281 6.2-0.519 0.14-1.115 0.22-1.729 0.22-0.44 0-0.87-0.041-1.287-0.12 0.882 2.518 3.312 4.346 6.192 4.398-2.236 1.69-5.062 2.706-8.126 2.706-0.018 0-0.035-0-0.053-0-0.529 0-1.052-0.031-1.568-0.089 2.859 1.784 6.331 2.841 10.050 2.841 0.015 0 0.029-0 0.044-0 12.108 0 18.729-9.633 18.729-17.988l-0.018-0.819c1.291-0.9 2.381-1.985 3.257-3.231z"/>
		</symbol>
		<symbol id="arrow" viewBox="0 0 32 32">
			<title>arrow</title>
			<path class="path1" d="M10.677 30.031l-3.692-3.446 10.585-10.585-10.338-10.585 3.446-3.446 14.031 14.031z"/>
		</symbol>
	</defs>
</svg>
