<?xml version="1.0" encoding="utf-8"?>
<svg xmlns="http://www.w3.org/2000/svg" xmlns:xlink="http://www.w3.org/1999/xlink">
<symbol id="arrow" viewBox="0 0 20 32"><title>arrow</title><path d="M4.677 30.031l-3.692-3.446 10.585-10.585-10.338-10.585 3.446-3.446 14.031 14.031z"></path></symbol>
<symbol id="close" viewBox="0 0 30 24"><title>Group</title><g><path d="M28.6 0H1.4C.9 0 .4.5.4 1v1.9c0 .5.5 1 1 1h27.2c.5 0 1-.5 1-1V1c0-.5-.4-1-1-1zM28.6 20.1H1.4c-.5 0-1 .5-1 1V23c0 .5.5 1 1 1h27.2c.5 0 1-.5 1-1v-1.9c0-.6-.4-1-1-1zM28.6 10.1H1.4c-.5 0-1 .5-1 1v2c0 .5.5 1 1 1h27.2c.5 0 1-.5 1-1v-2c0-.6-.4-1-1-1z"/></g>
</symbol>
<symbol id="dribbble" viewBox="0 0 16 16">
<title>dribbble</title>
<path class="path1" d="M8 16c-4.412 0-8-3.588-8-8s3.587-8 8-8c4.412 0 8 3.587 8 8s-3.588 8-8 8v0zM14.747 9.094c-0.234-0.075-2.116-0.634-4.256-0.291 0.894 2.456 1.256 4.456 1.328 4.872 1.531-1.037 2.625-2.678 2.928-4.581v0zM10.669 14.3c-0.103-0.6-0.497-2.688-1.456-5.181-0.016 0.006-0.031 0.009-0.044 0.016-3.856 1.344-5.241 4.016-5.362 4.266 1.159 0.903 2.616 1.444 4.194 1.444 0.947 0 1.85-0.194 2.669-0.544v0zM2.922 12.578c0.156-0.266 2.031-3.369 5.553-4.509 0.088-0.028 0.178-0.056 0.269-0.081-0.172-0.388-0.359-0.778-0.553-1.159-3.409 1.022-6.722 0.978-7.022 0.975-0.003 0.069-0.003 0.138-0.003 0.209 0 1.753 0.666 3.356 1.756 4.566v0zM1.313 6.609c0.306 0.003 3.122 0.016 6.319-0.831-1.131-2.013-2.353-3.706-2.534-3.953-1.913 0.903-3.344 2.666-3.784 4.784v0zM6.4 1.366c0.188 0.253 1.431 1.944 2.55 4 2.431-0.909 3.459-2.294 3.581-2.469-1.206-1.072-2.794-1.722-4.531-1.722-0.55 0.003-1.088 0.069-1.6 0.191v0zM13.291 3.691c-0.144 0.194-1.291 1.663-3.816 2.694 0.159 0.325 0.313 0.656 0.453 0.991 0.050 0.119 0.1 0.234 0.147 0.353 2.275-0.284 4.534 0.172 4.759 0.219-0.016-1.612-0.594-3.094-1.544-4.256v0z"></path>
</symbol>
<symbol id="facebook" viewBox="0 0 11 22"><title>facebook</title><path d="M7.302 7.124V4.841c0-.858.557-1.057.95-1.057h2.41V.014L7.343.001C3.659.001 2.82 2.813 2.82 4.612v2.513H.689v3.884H2.82v10.992h4.482V11.009h3.024l.391-3.884H7.302z"/>
</symbol>
<symbol id="github" viewBox="0 0 22 21.46"><title>github</title><path d="M11 0a11 11 0 0 0-3.5 21.44c.55.1.75-.24.75-.53v-1.87c-3.05.69-3.7-1.48-3.7-1.48a2.91 2.91 0 0 0-1.22-1.61c-1-.68.08-.67.08-.67a2.31 2.31 0 0 1 1.68 1.13 2.34 2.34 0 0 0 3.2.91 2.35 2.35 0 0 1 .7-1.47c-2.44-.28-5-1.22-5-5.44a4.25 4.25 0 0 1 1.13-3 4 4 0 0 1 .11-2.91s.92-.3 3 1.13a10.43 10.43 0 0 1 5.51 0c2.1-1.42 3-1.13 3-1.13a4 4 0 0 1 .11 2.91 4.24 4.24 0 0 1 1.13 3c0 4.23-2.57 5.16-5 5.43a2.63 2.63 0 0 1 .75 2v3c0 .34.2.64.76.53A11 11 0 0 0 11 0z"/>
</symbol>
<symbol id="linked-in" viewBox="0 0 32 32"><title>linked-in</title><path d="M26.527 26.258h-4.544v-7.152c0-1.705-0.029-3.899-2.361-3.899-2.365 0-2.726 1.858-2.726 3.777v7.273h-4.538v-14.706h4.355v2.011h0.063c0.606-1.156 2.088-2.375 4.298-2.375 4.601 0 5.452 3.045 5.452 7.005v8.065zM7.235 9.543c-1.46 0-2.636-1.187-2.636-2.651s1.177-2.65 2.636-2.65c1.454 0 2.633 1.187 2.633 2.65s-1.179 2.651-2.633 2.651v0zM4.959 26.258v-14.706h4.549v14.706h-4.549zM28.789 0h-26.11c-1.247 0-2.259 0.995-2.259 2.222v26.37c0 1.227 1.013 2.224 2.259 2.224h26.11c1.249 0 2.266-0.996 2.266-2.224v-26.37c0-1.228-1.017-2.222-2.266-2.222v0z"></path></symbol>
<symbol id="medium" viewBox="0 0 42 42"><title>medium</title><path class="path1" d="M13.992 9.867v27.492q0 0.586-0.293 0.996t-0.855 0.41q-0.398 0-0.773-0.187l-10.898-5.461q-0.492-0.234-0.832-0.785t-0.34-1.090v-26.719q0-0.469 0.234-0.797t0.68-0.328q0.328 0 1.031 0.352l11.977 6q0.070 0.070 0.070 0.117zM15.492 12.234l12.516 20.297-12.516-6.234v-14.062zM42 12.656v24.703q0 0.586-0.328 0.949t-0.891 0.363-1.102-0.305l-10.336-5.156zM41.93 9.844q0 0.070-6.012 9.832t-7.043 11.426l-9.141-14.859 7.594-12.352q0.398-0.656 1.219-0.656 0.328 0 0.609 0.141l12.68 6.328q0.094 0.047 0.094 0.141z"></path></symbol>
<symbol id="twitter" viewBox="0 0 23 18"><title>twitter</title><path d="M23.064 2.131a9.706 9.706 0 0 1-2.718.715A4.59 4.59 0 0 0 22.427.332a9.711 9.711 0 0 1-3.005 1.103A4.82 4.82 0 0 0 15.968 0c-2.613 0-4.731 2.035-4.731 4.544 0 .356.042.702.123 1.035C7.427 5.389 3.94 3.58 1.606.831a4.387 4.387 0 0 0-.64 2.285c0 1.576.835 2.967 2.105 3.782a4.86 4.86 0 0 1-2.143-.569v.058c0 2.201 1.631 4.038 3.796 4.456a4.96 4.96 0 0 1-2.137.077c.603 1.805 2.35 3.119 4.42 3.156a9.742 9.742 0 0 1-5.877 1.945c-.382 0-.758-.022-1.129-.064a13.796 13.796 0 0 0 7.253 2.042c8.704 0 13.463-6.924 13.463-12.929l-.013-.589a9.374 9.374 0 0 0 2.361-2.352z"/>
</symbol></svg>