<svg width="23" height="18" viewBox="0 0 23 18" xmlns="http://www.w3.org/2000/svg"><title>twitter</title><desc>Created with Sketch.</desc><path d="M23.064 2.131c-.848.362-1.76.606-2.718.715.978-.562 1.727-1.452 2.081-2.514-.914.521-1.927.899-3.005 1.103-.863-.883-2.093-1.435-3.454-1.435-2.613 0-4.731 2.035-4.731 4.544 0 .356.042.702.123 1.035-3.933-.19-7.42-1.999-9.754-4.748-.407.671-.64 1.451-.64 2.285 0 1.576.835 2.967 2.105 3.782-.775-.024-1.505-.228-2.143-.569v.058c0 2.201 1.631 4.038 3.796 4.456-.397.103-.815.159-1.247.159-.305 0-.602-.028-.89-.082.603 1.805 2.35 3.119 4.42 3.156-1.619 1.219-3.659 1.945-5.877 1.945-.382 0-.758-.022-1.129-.064 2.095 1.29 4.582 2.042 7.253 2.042 8.704 0 13.463-6.924 13.463-12.929l-.013-.589c.924-.639 1.727-1.44 2.361-2.352z" /></svg>