<svg xmlns="http://www.w3.org/2000/svg" viewBox="0 0 54 54" xmlns:xlink="http://www.w3.org/1999/xlink"><defs><path id="0" d="m54 0h-54v54h54v-54"/><mask id="1" style="fill:#fff"><use xlink:href="#0"/></mask></defs><g style="fill:none;fill-rule:evenodd"><path d="m5.715 30.956c-.466.047-.953.256-.953.774 0 .312.529.86 1.369.833 1.1-.033 2.441-1.072 2.441-1.072s-1.138-.464-2.441-.536c-.135-.009-.261-.016-.417 0m43.637 1.488l-.298-1.072s-6.965 2.426-20.3 2.262c-9.199-.112-16.252-2.798-16.252-2.798s.267-.476.417-.774c.922-1.879 2.024-5.656 2.024-5.656s6.31-1.767 6.31-6.787c0-1.588-1.517-2.615-2.977-2.679-5.094-.198-6.472 7.04-6.787 8.275-.017.088-.059.119-.059.119-1.572-.214-2.441-.536-2.441-.536l-.357 1.012c1.06.502 2.619.655 2.619.655-.305 1.945-1.845 5.596-1.845 5.596s-1.367-.417-3.096-.417c-2.248 0-3.038 1.057-3.096 1.726-.148 1.734 2.05 2.56 3.572 2.56 2.969 0 4.524-1.607 4.524-1.607s8.313 3.155 17.03 3.155c11.404 0 21.01-3.036 21.01-3.036m-28.28-8.751c-3.174 0-5.417 1.95-5.417 4.286 0 2.131 1.819 3.036 4.167 3.036 2.665 0 5.298-1.607 5.298-1.607s.16 1.607 2.262 1.607c2.169 0 3.87-1.607 3.87-1.607s.938 1.548 3.096 1.548c2.205 0 3.87-1.786 3.87-1.786s.614 1.667 2.798 1.667c1.707 0 2.619-1.072 2.619-1.072s.476 1.072 1.965 1.072c1.817 0 3.155-1.25 3.155-1.25l-.298-1.072s-.691.536-1.191.536c-.379 0-.595-.307-.595-.655 0-.781 1.25-4.643 1.25-4.643l-3.036.059-.119.476s-.452-.833-2.024-.833c-3.043 0-4.691 2.624-4.762 4.167-.014.336-.06.357-.06.357-.071.081-1.119 1.31-2.441 1.31-1.057 0-1.25-.862-1.25-1.429 0-.614.524-3.036 1.965-3.036.783 0 1.25.655 1.25.655l.417-1.369s-.657-.531-2.024-.536c-2.943-.002-4.929 2.176-5 4.167-.014.298-.064.398-.06.417-.098.119-.786.953-1.726.953-.643 0-.655-.493-.655-.714 0-.302 1.25-4.643 1.25-4.643l-3.334.059-1.131 4.227s-1.857 1.307-4.405 1.488c-1.314.09-1.786-.722-1.786-1.191v-.179c.002 0 .552.06.953.06.314 0 4.227-.302 4.227-2.679 0-1.36-1.379-1.845-3.096-1.845m5.775-2.441c0 1 .848 1.25 1.786 1.25.941 0 1.845-.405 1.845-1.429 0-1.026-1.079-1.25-1.845-1.25-1.06 0-1.786.436-1.786 1.429m27.15 5.753c0 14.907-12.09 26.994-27 26.994-14.914 0-26.999-12.09-26.999-26.994 0-14.914 12.08-27.01 26.999-27.01 14.912 0 27 12.09 27 27.01m-34.24-9.146c.081-.714-.271-1.488-1.25-1.488-2.386 0-3.393 6.668-3.393 6.668s4.167-.986 4.644-5.179m22.384 11.43c1.788 0 2.143-3.61 2.143-3.691 0-.395-.326-.893-.953-.893-1.484 0-2.024 2.705-2.024 3.393 0 .26.014 1.191.833 1.191m-20.955-4.643c.448.026.788.329.774.655-.074 2.115-2.679 1.786-2.679 1.786s.383-2.534 1.905-2.441" style="fill:#fff;mask:url(#1)"/></g></svg>