<svg xmlns="http://www.w3.org/2000/svg" viewBox="0 0 133 38" xmlns:xlink="http://www.w3.org/1999/xlink"><defs><path id="0" d="m100.29 5.476c-.801-.302-.739-2.246.095-2.939 1.059-.881 2.363-.402 2.363.869 0 1.183-1.487 2.436-2.457 2.07m16.874 15.11c1.542-1.592 6.211-10.449 5.75-10.91-.546-.547-2.911.539-4.226 1.939-1.841 1.962-3.835 5.659-4.393 8.143-.685 3.055.406 3.37 2.868.828m2.924 4.855c-1.072-.845-1.248-1.295-1.104-2.815.095-.995.008-1.809-.191-1.809-.2 0-.364.21-.364.466 0 .924-3.869 3.287-5.381 3.287-1.635 0-3.045-1.195-3.045-2.582 0-.812-.065-.806-1.053.099-2.921 2.677-6.645 3.254-8.568 1.327l-1.153-1.156-1.7 1.156c-1.972 1.341-4.43 1.505-5.562.37-1.125-1.127-.686-3.03 2.144-9.307 2.408-5.34 2.419-5.354 4.355-5.76 1.068-.223 2.01-.355 2.097-.291.086.063-1.02 2.74-2.457 5.949-2.706 6.04-3.142 7.849-1.892 7.849 1.109 0 3.491-1.954 3.491-2.864 0-1.401 1.86-5.234 3.533-7.28 1.915-2.343 4.953-3.93 7.521-3.93 3.094 0 4.01 1.941 1.755 3.719-1.507 1.188-2.258 1.251-1.807.152 1.041-2.544-.521-3.257-2.666-1.216-3.98 3.787-5.936 12.628-2.573 11.63 2.286-.678 4.477-2.69 5.955-5.471 3.202-6.02 6.579-8.474 11.762-8.539 1.715-.022 3.273.114 3.462.303.189.188-.199 1.56-.864 3.049-2.02 4.53-3.707 10.09-3.777 12.44-.037 1.226-.196 2.229-.355 2.23-.158 0-.862-.452-1.564-1.01m-87.75-10.934c2.173-2.064 3.078-3.891 2.309-4.662-.352-.353-.735-.352-1.305.005-1.828 1.143-5.316 7.822-3.575 6.846.359-.201 1.516-1.186 2.572-2.189m4.942 10.968c-.969-.764-1.233-1.379-1.233-2.871v-1.898l-1.638 1.253c-3.711 2.836-7.02 3.355-8.97 1.405-1.088-1.09-1.174-1.439-.89-3.587.749-5.664 5.089-10.831 9.947-11.845 1.15-.24 1.708-.094 2.439.639.799.8.872 1.171.464 2.345-.599 1.722-4.302 5.254-6.902 6.583-1.775.908-1.939 1.147-1.939 2.831 0 1.01.189 1.956.42 2.099 1.117.692 3.681-.502 5.906-2.749 1.936-1.955 2.946-3.682 5.631-9.626 3.081-6.823 3.362-7.267 4.827-7.648.856-.222 1.736-.341 1.955-.262.219.078-1.146 3.659-3.034 7.958-4.067 9.262-5.067 12.133-5.067 14.547 0 2.067-.22 2.161-1.915.825m14.302-11.534c1.754-1.86 2.474-3.858 1.522-4.224-1.327-.51-4.03 2.851-5.114 6.362l-.348 1.126 1.341-.965c.738-.531 1.907-1.566 2.599-2.299m-.087 15.562c0-.182.387-.891.86-1.575.473-.685.977-1.562 1.121-1.949.143-.387.699-1.807 1.235-3.154l.974-2.451-2.106 1.611c-3.598 2.753-7.456 3.344-9.36 1.436-2.01-2.01-1.217-6.41 1.926-10.711 3.526-4.826 10.03-6.608 10.03-2.748 0 1.771-2.648 4.782-6.06 6.894-2.85 1.763-3.692 3.288-2.771 5.01.559 1.048 1.563 1.031 3.919-.068 2.929-1.366 5.619-4.519 6.989-8.193.661-1.772 1.202-3.288 1.202-3.368 0-.08-.474-.235-1.053-.343-.974-.182-.943-.244.416-.82.808-.342 1.838-1.271 2.289-2.064 2.523-4.44 5.88-6.442 11.302-6.74 3.623-.199 3.89-.146 5.03.998.663.665 1.206 1.445 1.206 1.735 0 .722-2.597 3.269-3.334 3.269-.465 0-.473-.125-.036-.563.309-.31.562-1.149.562-1.866 0-2.838-4.322-3.585-7.523-1.3-1.327.947-4.179 4.805-4.179 5.653 0 .183 2.106.216 4.681.074 4.968-.274 5.92.15 3.338 1.488-3.777 1.958-7.402 12.418-4.449 12.841 2.237.32 6.26-6.849 6.26-11.156 0-1.247.161-1.335 4.213-2.281 5.104-1.193 5.81-1.028 5.482 1.284-.132.929-.399 2.084-.592 2.567-.194.483.636-.181 1.844-1.475 2.449-2.623 4.381-3.64 6.099-3.207 2.266.57 2.055 1.803-1.78 10.373-1.068 2.386-1.681 4.479-1.685 5.747-.007 2.3-.502 2.478-2.19.785-1.621-1.625-1.347-3.8 1.186-9.409 1.064-2.356 1.935-4.52 1.935-4.809 0-2.139-4.718 3.322-7.723 8.94-2.149 4.02-2.464 4.386-3.862 4.522-.836.081-1.521-.01-1.521-.202 0-.192 1.053-3.058 2.34-6.369 2.768-7.119 2.895-8.04 1.053-7.594-1.826.438-1.989.579-1.99 1.731 0 1.318-2.409 6.43-4.04 8.571-2.524 3.318-6.692 4.815-8.964 3.221-2.374-1.667-.623-8.661 3.066-12.245l1.855-1.802-2.71.157-2.71.157-1.959 5.472c-2.708 7.564-4.854 12.07-6.147 12.909-1.282.831-3.668 1.491-3.668 1.014m-39.787-.056c0-.198.401-.795.891-1.327.49-.533 2.507-5.085 4.481-10.116 4.093-10.432 5.16-12.47 7.617-14.561l1.756-1.494-4.448.266c-5.084.305-8.08 1.208-9.942 2.996-1.417 1.36-2.288 3.78-1.898 5.275.343 1.316-.592 1.198-2.045-.258-1.72-1.724-1.289-4.062 1.176-6.382 3.083-2.901 5.184-3.301 19.03-3.629 6.694-.159 12.241-.25 12.328-.202.087.047-.43.472-1.148.944-.977.642-2.43.898-5.775 1.017-4.04.143-4.59.273-5.738 1.36-1.317 1.248-3.973 7.205-7.376 16.543-1.934 5.309-3.488 8.02-5.065 8.852-1.206.633-3.843 1.124-3.843.715m1.755 8.413c-7.401-.092-13.457-.35-13.457-.574 0-.684 51.878-1.14 93.35-.821 21.604.167 39.39.408 39.514.537.129.129.108.36-.045.514-.316.317-98.77.6-119.36.343" style="fill:#fff;fill-rule:evenodd"/></defs><use xlink:href="#0"/></svg>