<svg xmlns="http://www.w3.org/2000/svg" viewBox="0 0 134 60">
  <path fill="#ffffff" d="M48.3 23.5h4.9s3.1 0 3.1 2.6c0 3.2-3.1 3.1-3.1 3.1h-4.9v-5.7zm50.9-.8c4.2 0 5.5 3.2 5.5 7.2 0 3.9-1.3 7.1-5.5 7.1s-5.5-3.2-5.5-7.1 1.2-7.2 5.5-7.2zm-57.1-4.1v22.9h6.2v-8.4h2.2l5.8 8.4h7.1l-6.2-8.8c5-1 4.9-6.6 4.9-6.6 0-7.8-8.3-7.5-8.3-7.5H42.1zm-19.6 0v22.9h17.8v-4.8H28.7v-4.4h10.7v-4.4H28.7v-4.4h11.6v-4.8c0-.1-17.8-.1-17.8-.1zm52.4-.4h-.4c-12.1 0-11.6 11.9-11.6 11.9 0 11.1 9.5 11.9 12.3 11.9 3.2 0 5.4-.3 10.4-.8V28.8H75.4v4.4h4v4c-7.9 1.9-9.8-2.2-9.8-7 0-7.1 4.1-7.2 5.8-7.2 3.6 0 4 2.6 4 2.6h6.2c-.7-7.2-8.7-7.5-10.7-7.4zm24.3-.2c-6.8 0-12.3 3.5-12.3 11.9s5.5 11.9 12.3 11.9 12.3-3.5 12.3-11.9c-.1-8.4-5.6-11.9-12.3-11.9z" class="st0"/>
</svg>