<?xml version="1.0" encoding="utf-8"?>
<!-- Generator: Adobe Illustrator 20.1.0, SVG Export Plug-In . SVG Version: 6.00 Build 0)  -->
<svg version="1.1" id="Ebene_1" xmlns="http://www.w3.org/2000/svg" xmlns:xlink="http://www.w3.org/1999/xlink" x="0px" y="0px"
	 viewBox="0 0 134 60" style="enable-background:new 0 0 134 60;" xml:space="preserve">
<style type="text/css">
	.st0{fill:none;}
	.st1{fill:#FFFFFF;}
</style>
<g>
	<path id="b" class="st0" d="M100.8,16.5c-0.8-0.3-0.7-2.2,0.1-2.9c1.1-0.9,2.4-0.4,2.4,0.9C103.2,15.6,101.8,16.8,100.8,16.5
		L100.8,16.5z M117.7,31.6c1.5-1.6,6.2-10.4,5.8-10.9c-0.5-0.5-2.9,0.5-4.2,1.9c-1.8,2-3.8,5.7-4.4,8.1
		C114.1,33.8,115.2,34.1,117.7,31.6L117.7,31.6z M120.6,36.4c-1.1-0.8-1.2-1.3-1.1-2.8c0.1-1,0-1.8-0.2-1.8c-0.2,0-0.4,0.2-0.4,0.5
		c0,0.9-3.9,3.3-5.4,3.3c-1.6,0-3-1.2-3-2.6c0-0.8-0.1-0.8-1.1,0.1c-2.9,2.7-6.6,3.3-8.6,1.3l-1.2-1.2L98,34.4
		c-2,1.3-4.4,1.5-5.6,0.4c-1.1-1.1-0.7-3,2.1-9.3c2.4-5.3,2.4-5.4,4.4-5.8c1.1-0.2,2-0.4,2.1-0.3c0.1,0.1-1,2.7-2.5,5.9
		c-2.7,6-3.1,7.8-1.9,7.8c1.1,0,3.5-2,3.5-2.9c0-1.4,1.9-5.2,3.5-7.3c1.9-2.3,5-3.9,7.5-3.9c3.1,0,4,1.9,1.8,3.7
		c-1.5,1.2-2.3,1.3-1.8,0.2c1-2.5-0.5-3.3-2.7-1.2c-4,3.8-5.9,12.6-2.6,11.6c2.3-0.7,4.5-2.7,6-5.5c3.2-6,6.6-8.5,11.8-8.5
		c1.7,0,3.3,0.1,3.5,0.3c0.2,0.2-0.2,1.6-0.9,3c-2,4.5-3.7,10.1-3.8,12.4c0,1.2-0.2,2.2-0.4,2.2C122,37.4,121.3,37,120.6,36.4
		L120.6,36.4z M32.8,25.5c2.2-2.1,3.1-3.9,2.3-4.7c-0.4-0.4-0.7-0.4-1.3,0c-1.8,1.1-5.3,7.8-3.6,6.8C30.6,27.5,31.8,26.5,32.8,25.5
		L32.8,25.5z M37.8,36.5c-1-0.8-1.2-1.4-1.2-2.9v-1.9L34.9,33c-3.7,2.8-7,3.4-9,1.4c-1.1-1.1-1.2-1.4-0.9-3.6
		c0.7-5.7,5.1-10.8,9.9-11.8c1.2-0.2,1.7-0.1,2.4,0.6c0.8,0.8,0.9,1.2,0.5,2.3c-0.6,1.7-4.3,5.3-6.9,6.6c-1.8,0.9-1.9,1.1-1.9,2.8
		c0,1,0.2,2,0.4,2.1c1.1,0.7,3.7-0.5,5.9-2.7c1.9-2,2.9-3.7,5.6-9.6c3.1-6.8,3.4-7.3,4.8-7.6c0.9-0.2,1.7-0.3,2-0.3
		c0.2,0.1-1.1,3.7-3,8c-4.1,9.3-5.1,12.1-5.1,14.5C39.7,37.7,39.5,37.8,37.8,36.5L37.8,36.5L37.8,36.5z M52.1,24.9
		c1.8-1.9,2.5-3.9,1.5-4.2c-1.3-0.5-4,2.9-5.1,6.4l-0.3,1.1l1.3-1C50.2,26.7,51.4,25.7,52.1,24.9z M52,40.5c0-0.2,0.4-0.9,0.9-1.6
		c0.5-0.7,1-1.6,1.1-1.9c0.1-0.4,0.7-1.8,1.2-3.2l1-2.5L54.1,33c-3.6,2.8-7.5,3.3-9.4,1.4c-2-2-1.2-6.4,1.9-10.7
		c3.5-4.8,10-6.6,10-2.7c0,1.8-2.6,4.8-6.1,6.9c-2.8,1.8-3.7,3.3-2.8,5c0.6,1,1.6,1,3.9-0.1c2.9-1.4,5.6-4.5,7-8.2
		c0.7-1.8,1.2-3.3,1.2-3.4c0-0.1-0.5-0.2-1.1-0.3c-1-0.2-0.9-0.2,0.4-0.8c0.8-0.3,1.8-1.3,2.3-2.1c2.5-4.4,5.9-6.4,11.3-6.7
		c3.6-0.2,3.9-0.1,5,1c0.7,0.7,1.2,1.4,1.2,1.7c0,0.7-2.6,3.3-3.3,3.3c-0.5,0-0.5-0.1,0-0.6c0.3-0.3,0.6-1.1,0.6-1.9
		c0-2.8-4.3-3.6-7.5-1.3c-1.3,0.9-4.2,4.8-4.2,5.7c0,0.2,2.1,0.2,4.7,0.1c5-0.3,5.9,0.1,3.3,1.5c-3.8,2-7.4,12.4-4.4,12.8
		c2.2,0.3,6.3-6.8,6.3-11.2c0-1.2,0.2-1.3,4.2-2.3c5.1-1.2,5.8-1,5.5,1.3c-0.1,0.9-0.4,2.1-0.6,2.6c-0.2,0.5,0.6-0.2,1.8-1.5
		c2.4-2.6,4.4-3.6,6.1-3.2c2.3,0.6,2.1,1.8-1.8,10.4c-1.1,2.4-1.7,4.5-1.7,5.7c0,2.3-0.5,2.5-2.2,0.8c-1.6-1.6-1.3-3.8,1.2-9.4
		c1.1-2.4,1.9-4.5,1.9-4.8c0-2.1-4.7,3.3-7.7,8.9c-2.1,4-2.5,4.4-3.9,4.5c-0.8,0.1-1.5,0-1.5-0.2s1.1-3.1,2.3-6.4
		c2.8-7.1,2.9-8,1.1-7.6c-1.8,0.4-2,0.6-2,1.7c0,1.3-2.4,6.4-4,8.6c-2.5,3.3-6.7,4.8-9,3.2c-2.4-1.7-0.6-8.7,3.1-12.2l1.9-1.8
		l-2.7,0.2l-2.7,0.2l-2,5.5c-2.7,7.6-4.9,12.1-6.1,12.9C54.4,40.3,52,41,52,40.5L52,40.5z M12.2,40.4c0-0.2,0.4-0.8,0.9-1.3
		c0.5-0.5,2.5-5.1,4.5-10.1c4.1-10.4,5.2-12.5,7.6-14.6l1.8-1.5l-4.4,0.3c-5.1,0.3-8.1,1.2-9.9,3c-1.4,1.4-2.3,3.8-1.9,5.3
		c0.3,1.3-0.6,1.2-2-0.3c-1.7-1.7-1.3-4.1,1.2-6.4c3.1-2.9,5.2-3.3,19-3.6c6.7-0.2,12.2-0.2,12.3-0.2c0.1,0-0.4,0.5-1.1,0.9
		c-1,0.6-2.4,0.9-5.8,1c-4,0.1-4.6,0.3-5.7,1.4c-1.3,1.2-4,7.2-7.4,16.5c-1.9,5.3-3.5,8-5.1,8.9C14.8,40.4,12.2,40.9,12.2,40.4
		L12.2,40.4z M14,48.9c-7.4-0.1-13.5-0.3-13.5-0.6c0-0.7,51.9-1.1,93.3-0.8c21.6,0.2,39.4,0.4,39.5,0.5c0.1,0.1,0.1,0.4,0,0.5
		C133,48.8,34.6,49.1,14,48.9L14,48.9z"/>
</g>
<g>
	<path id="a" class="st0" d="M0.5,11v38h132.9V11H0.5h132.9v38H0.5L0.5,11L0.5,11z"/>
</g>
<title>Telefonica</title>
<desc>Created with Sketch.</desc>
<g transform="translate(0 0)">
	<g>
		<path id="b_1_" class="st1" d="M100.8,16.5c-0.8-0.3-0.7-2.2,0.1-2.9c1.1-0.9,2.4-0.4,2.4,0.9C103.2,15.6,101.8,16.8,100.8,16.5
			L100.8,16.5z M117.7,31.6c1.5-1.6,6.2-10.4,5.8-10.9c-0.5-0.5-2.9,0.5-4.2,1.9c-1.8,2-3.8,5.7-4.4,8.1
			C114.1,33.8,115.2,34.1,117.7,31.6L117.7,31.6z M120.6,36.4c-1.1-0.8-1.2-1.3-1.1-2.8c0.1-1,0-1.8-0.2-1.8c-0.2,0-0.4,0.2-0.4,0.5
			c0,0.9-3.9,3.3-5.4,3.3c-1.6,0-3-1.2-3-2.6c0-0.8-0.1-0.8-1.1,0.1c-2.9,2.7-6.6,3.3-8.6,1.3l-1.2-1.2L98,34.4
			c-2,1.3-4.4,1.5-5.6,0.4c-1.1-1.1-0.7-3,2.1-9.3c2.4-5.3,2.4-5.4,4.4-5.8c1.1-0.2,2-0.4,2.1-0.3c0.1,0.1-1,2.7-2.5,5.9
			c-2.7,6-3.1,7.8-1.9,7.8c1.1,0,3.5-2,3.5-2.9c0-1.4,1.9-5.2,3.5-7.3c1.9-2.3,5-3.9,7.5-3.9c3.1,0,4,1.9,1.8,3.7
			c-1.5,1.2-2.3,1.3-1.8,0.2c1-2.5-0.5-3.3-2.7-1.2c-4,3.8-5.9,12.6-2.6,11.6c2.3-0.7,4.5-2.7,6-5.5c3.2-6,6.6-8.5,11.8-8.5
			c1.7,0,3.3,0.1,3.5,0.3c0.2,0.2-0.2,1.6-0.9,3c-2,4.5-3.7,10.1-3.8,12.4c0,1.2-0.2,2.2-0.4,2.2C122,37.4,121.3,37,120.6,36.4
			L120.6,36.4z M32.8,25.5c2.2-2.1,3.1-3.9,2.3-4.7c-0.4-0.4-0.7-0.4-1.3,0c-1.8,1.1-5.3,7.8-3.6,6.8C30.6,27.5,31.8,26.5,32.8,25.5
			L32.8,25.5z M37.8,36.5c-1-0.8-1.2-1.4-1.2-2.9v-1.9L34.9,33c-3.7,2.8-7,3.4-9,1.4c-1.1-1.1-1.2-1.4-0.9-3.6
			c0.7-5.7,5.1-10.8,9.9-11.8c1.2-0.2,1.7-0.1,2.4,0.6c0.8,0.8,0.9,1.2,0.5,2.3c-0.6,1.7-4.3,5.3-6.9,6.6c-1.8,0.9-1.9,1.1-1.9,2.8
			c0,1,0.2,2,0.4,2.1c1.1,0.7,3.7-0.5,5.9-2.7c1.9-2,2.9-3.7,5.6-9.6c3.1-6.8,3.4-7.3,4.8-7.6c0.9-0.2,1.7-0.3,2-0.3
			c0.2,0.1-1.1,3.7-3,8c-4.1,9.3-5.1,12.1-5.1,14.5C39.7,37.7,39.5,37.8,37.8,36.5L37.8,36.5L37.8,36.5z M52.1,24.9
			c1.8-1.9,2.5-3.9,1.5-4.2c-1.3-0.5-4,2.9-5.1,6.4l-0.3,1.1l1.3-1C50.2,26.7,51.4,25.7,52.1,24.9z M52,40.5c0-0.2,0.4-0.9,0.9-1.6
			c0.5-0.7,1-1.6,1.1-1.9c0.1-0.4,0.7-1.8,1.2-3.2l1-2.5L54.1,33c-3.6,2.8-7.5,3.3-9.4,1.4c-2-2-1.2-6.4,1.9-10.7
			c3.5-4.8,10-6.6,10-2.7c0,1.8-2.6,4.8-6.1,6.9c-2.8,1.8-3.7,3.3-2.8,5c0.6,1,1.6,1,3.9-0.1c2.9-1.4,5.6-4.5,7-8.2
			c0.7-1.8,1.2-3.3,1.2-3.4c0-0.1-0.5-0.2-1.1-0.3c-1-0.2-0.9-0.2,0.4-0.8c0.8-0.3,1.8-1.3,2.3-2.1c2.5-4.4,5.9-6.4,11.3-6.7
			c3.6-0.2,3.9-0.1,5,1c0.7,0.7,1.2,1.4,1.2,1.7c0,0.7-2.6,3.3-3.3,3.3c-0.5,0-0.5-0.1,0-0.6c0.3-0.3,0.6-1.1,0.6-1.9
			c0-2.8-4.3-3.6-7.5-1.3c-1.3,0.9-4.2,4.8-4.2,5.7c0,0.2,2.1,0.2,4.7,0.1c5-0.3,5.9,0.1,3.3,1.5c-3.8,2-7.4,12.4-4.4,12.8
			c2.2,0.3,6.3-6.8,6.3-11.2c0-1.2,0.2-1.3,4.2-2.3c5.1-1.2,5.8-1,5.5,1.3c-0.1,0.9-0.4,2.1-0.6,2.6c-0.2,0.5,0.6-0.2,1.8-1.5
			c2.4-2.6,4.4-3.6,6.1-3.2c2.3,0.6,2.1,1.8-1.8,10.4c-1.1,2.4-1.7,4.5-1.7,5.7c0,2.3-0.5,2.5-2.2,0.8c-1.6-1.6-1.3-3.8,1.2-9.4
			c1.1-2.4,1.9-4.5,1.9-4.8c0-2.1-4.7,3.3-7.7,8.9c-2.1,4-2.5,4.4-3.9,4.5c-0.8,0.1-1.5,0-1.5-0.2s1.1-3.1,2.3-6.4
			c2.8-7.1,2.9-8,1.1-7.6c-1.8,0.4-2,0.6-2,1.7c0,1.3-2.4,6.4-4,8.6c-2.5,3.3-6.7,4.8-9,3.2c-2.4-1.7-0.6-8.7,3.1-12.2l1.9-1.8
			l-2.7,0.2l-2.7,0.2l-2,5.5c-2.7,7.6-4.9,12.1-6.1,12.9C54.4,40.3,52,41,52,40.5L52,40.5z M12.2,40.4c0-0.2,0.4-0.8,0.9-1.3
			c0.5-0.5,2.5-5.1,4.5-10.1c4.1-10.4,5.2-12.5,7.6-14.6l1.8-1.5l-4.4,0.3c-5.1,0.3-8.1,1.2-9.9,3c-1.4,1.4-2.3,3.8-1.9,5.3
			c0.3,1.3-0.6,1.2-2-0.3c-1.7-1.7-1.3-4.1,1.2-6.4c3.1-2.9,5.2-3.3,19-3.6c6.7-0.2,12.2-0.2,12.3-0.2c0.1,0-0.4,0.5-1.1,0.9
			c-1,0.6-2.4,0.9-5.8,1c-4,0.1-4.6,0.3-5.7,1.4c-1.3,1.2-4,7.2-7.4,16.5c-1.9,5.3-3.5,8-5.1,8.9C14.8,40.4,12.2,40.9,12.2,40.4
			L12.2,40.4z M14,48.9c-7.4-0.1-13.5-0.3-13.5-0.6c0-0.7,51.9-1.1,93.3-0.8c21.6,0.2,39.4,0.4,39.5,0.5c0.1,0.1,0.1,0.4,0,0.5
			C133,48.8,34.6,49.1,14,48.9L14,48.9z"/>
	</g>
</g>
</svg>
