<svg xmlns="http://www.w3.org/2000/svg" viewBox="0 0 116 31"><path d="m4.207 23.725l1.325-4.47h5.415l1.325 4.47h4.5l-4.772-16.923c-.273-1.113-.799-1.464-1.987-1.464h-6.584v1.522h.526c.799 0 1.188.254 1.188.859 0 .39 0 .644-.39 1.542l-4.753 14.463h4.207m6.214-7.398h-4.227l2.24-7.319 1.987 7.319m12.02 7.398v-17.04c0-.878-.526-1.347-1.461-1.347h-4.091v1.522h.273c.799 0 1.188.332 1.188 1.054v15.83m11.492-.02v-17.04c0-.878-.526-1.347-1.461-1.347h-4.091v1.522h.273c.799 0 1.188.332 1.188 1.054v15.83m11.492-.02v-12.414c0-.859-.526-1.366-1.325-1.366h-4.091v1.503h.273c.799 0 1.052.332 1.052 1.093v11.204m4.207-16.786c0-1.21-.915-1.932-2.376-1.932-1.578 0-2.376.722-2.376 1.932 0 1.249.799 1.971 2.376 1.971 1.461 0 2.376-.722 2.376-1.971m3.837 6.792l.39-.156c1.052-.429 1.714-.586 2.513-.722.39-.059.915-.098 1.188-.098 1.325 0 1.714.429 1.714 1.659v.351c-1.85.312-2.376.41-3.428.644-.526.137-1.052.312-1.578.527-1.714.683-2.513 2.01-2.513 4.099 0 2.615 1.052 3.845 3.428 3.845.915 0 1.85-.215 2.513-.644.662-.312.915-.468 1.714-1.191v.429c0 .859.39 1.269 1.188 1.269h3.954v-1.425h-.136c-.799 0-1.188-.351-1.188-1.074v-6.792c0-3.513-1.188-4.704-4.616-4.704-1.188 0-2.24.137-3.311.39-1.052.254-1.578.429-2.766 1.054m6.74 5.836v2.752c-.799.8-1.714 1.249-2.513 1.249-.799 0-1.188-.39-1.188-1.425 0-1.132.273-1.581 1.188-1.932.662-.273 1.325-.449 2.513-.644m11.492 6.675v-9.349c.915-.859 1.578-1.191 2.513-1.191.915 0 1.188.39 1.188 1.796v8.744h4.091v-9.388c0-1.932-.273-2.772-.799-3.494-.662-.722-1.461-1.054-2.649-1.054-1.578 0-2.766.586-4.616 2.186v-.742c0-.859-.39-1.288-1.188-1.288h-3.954v1.503h.136c.799 0 1.188.332 1.188 1.093v11.204m24.571-2.637h-6.076l5.812-8.338v-2.779h-8.717c-1.057 0-1.453.397-1.453 1.456v2.515h1.453v-.265c0-.794.396-1.059 1.189-1.059h3.17l-5.944 8.338v2.912h10.567m36.32-8.735c0-8.603-6.34-14.956-14.926-14.956-8.453 0-14.926 6.353-14.926 14.956 0 8.603 6.472 14.956 14.926 14.956 8.585 0 14.926-6.353 14.926-14.956zm-2.51 0c0 7.279-5.283 12.574-12.416 12.574-7.132 0-12.416-5.294-12.416-12.574 0-7.279 5.283-12.574 12.416-12.574 7.132 0 12.416 5.294 12.416 12.574m-16.51 7.809v-13.5h-2.113c-1.189 0-1.717.53-1.717 1.721v11.78h3.83m8.189 0h3.83v-11.78c0-1.191-.528-1.721-1.717-1.721h-2.113v13.5m-2.113 0v-15.618c0-1.191-.528-1.721-1.717-1.721h-3.566v1.721h.396c.661 0 .925.265.925 1.059v14.559h3.963" style="fill:#fff;fill-rule:evenodd"/></svg>