<svg xmlns="http://www.w3.org/2000/svg" xmlns:xlink="http://www.w3.org/1999/xlink" viewBox="0 0 134 60">
	<style>
		.st0{display:none;} .st1{display:inline;} .st2{clip-path:url(#SVGID_2_);fill:#FFFFFF;} .st3{clip-path:url(#SVGID_4_);fill:#FFFFFF;} .st4{clip-path:url(#SVGID_6_);fill:#FFFFFF;} .st5{clip-path:url(#SVGID_8_);fill:#FFFFFF;} .st6{clip-path:url(#SVGID_10_);fill:#FFFFFF;} .st7{clip-path:url(#SVGID_12_);fill:#FFFFFF;} .st8{clip-path:url(#SVGID_14_);fill:#FFFFFF;} .st9{clip-path:url(#SVGID_16_);fill:#FFFFFF;} .st10{enable-background:new ;} .st11{clip-path:url(#SVGID_18_);} .st12{clip-path:url(#SVGID_20_);} .st13{clip-path:url(#SVGID_22_);fill:#FFFFFF;} .st14{clip-path:url(#SVGID_24_);} .st15{clip-path:url(#SVGID_26_);} .st16{clip-path:url(#SVGID_28_);fill:#FFFFFF;} .st17{fill:#FFFFFF;}
	</style>
	<g id="Ebene_1" class="st0 st1">
		<defs>
			<path id="SVGID_1_" d="M41.2 37.6h-4.1V23.2c0-.3.1-.4.3-.5 2-.8 4-1 6.1-1 .8 0 1.5.1 2.3.2 1.1.2 2.2.6 3 1.4 2.4-1.7 5-2 7.8-1.3 1.9.5 3.2 1.7 3.5 3.8 0 .3.1.5.1.8v11h-4.1V26.8c0-1.2-.5-2-1.5-2.3-1.3-.4-2.5-.2-3.6.5-.2.1-.3.3-.3.6v12h-4.1V26.9c0-1.7-.7-2.5-2.4-2.7-.9-.1-1.8 0-2.7.2-.3.1-.3.2-.3.5v12.7z"/>
		</defs>
		<clipPath id="SVGID_2_">
			<use xlink:href="#SVGID_1_" overflow="visible"/>
		</clipPath>
		<path d="M32.1 16.7h33.1v25.9H32.1z" class="st2"/>
		<defs>
			<path id="SVGID_3_" d="M72.7 22.1V15h4.1v21.5c0 .3-.1.4-.3.5-1.5.6-3.1.9-4.7 1-1.5.1-3 0-4.5-.5-2.4-.9-3.9-2.6-4.4-5.1-.5-2.3-.4-4.6.7-6.7 1.2-2.3 3.1-3.5 5.7-3.8 1.1-.1 2.1 0 3.2.2h.2m0 2.1c-.6 0-1.1-.1-1.7-.1-1.8 0-3.1.9-3.7 2.6-.7 2-.7 4.1-.1 6.2.3 1.1 1 2 2.2 2.4 1 .3 1.9.3 2.9 0 .3-.1.4-.2.4-.5V24.2"/>
		</defs>
		<clipPath id="SVGID_4_">
			<use xlink:href="#SVGID_3_" overflow="visible"/>
		</clipPath>
		<path d="M57.6 10h24.1v32.9H57.6z" class="st3"/>
		<defs>
			<path id="SVGID_5_" d="M27.4 37.9c-2 0-3.8-.5-5.2-2-1.1-1.1-1.7-2.5-1.9-4.1-.4-2.1-.2-4.2.7-6.2 1.1-2.5 3.1-3.7 5.7-3.9 1-.1 2 0 3 .3 1.9.5 3.3 1.6 4.1 3.4 1.3 3 1.3 6 0 8.9-1 2.1-2.8 3.2-5.1 3.5-.2 0-.3.1-.5.1h-.8m-3.1-8c0 .4 0 .9.1 1.4.1.9.3 1.8.8 2.7 1 1.8 3.8 1.8 4.7-.1.1-.3.3-.5.3-.8.5-1.4.5-2.9.4-4.4-.1-.9-.2-1.9-.6-2.7-.3-.7-.8-1.3-1.6-1.6-1.4-.5-2.8.2-3.5 1.6-.5 1.2-.6 2.5-.6 3.9"/>
		</defs>
		<clipPath id="SVGID_6_">
			<use xlink:href="#SVGID_5_" overflow="visible"/>
		</clipPath>
		<path d="M15.1 16.7h24.6v26.2H15.1z" class="st4"/>
		<defs>
			<path id="SVGID_7_" d="M111.3 29.9L101 31.2c-.1 1.5 1.1 3.3 2.7 3.8 1.2.4 2.5.3 3.7.1.8-.1 1.6-.4 2.5-.6l.9 2.4c-.9.4-1.8.7-2.7.9-1.8.3-3.6.4-5.4 0-3-.7-5-2.9-5.5-6-.3-1.8-.2-3.5.3-5.2.9-2.9 3.2-4.6 6.3-4.8 1 0 2 0 3 .3 1.7.5 2.9 1.5 3.7 3.1.7 1.4.8 3 .8 4.7m-3.9-1.5c0-1.1-.1-2.1-.7-3-.3-.4-.6-.7-1-1-1.3-.7-3.1-.3-4.1.9-.9 1.2-1 2.5-1 4l6.8-.9"/>
		</defs>
		<clipPath id="SVGID_8_">
			<use xlink:href="#SVGID_7_" overflow="visible"/>
		</clipPath>
		<path d="M92 16.8h24.3V43H92z" class="st5"/>
		<defs>
			<path id="SVGID_9_" d="M126.1 18.7l3.9-1h.2v5.1h2.8v2.5h-2.8v8.1c.1 1.4.9 2.1 2.3 1.8l.4-.1V37c0 .5 0 .5-.5.7-1.2.3-2.4.3-3.5-.1-1.7-.5-2.8-2-2.8-3.8V18.7z"/>
		</defs>
		<clipPath id="SVGID_10_">
			<use xlink:href="#SVGID_9_" overflow="visible"/>
		</clipPath>
		<path d="M121.1 12.7H138v30.2h-16.9z" class="st6"/>
		<defs>
			<path id="SVGID_11_" d="M17.8 34.5c.3.8.6 1.5.9 2.2 0 .1-.1.2-.2.3-.7.5-1.4.7-2.2.8-1.4.2-2.7.2-4-.3-1.7-.6-3-1.9-3.7-3.6-1.1-2.7-1.2-5.5 0-8.3 1.1-2.6 3.2-3.9 6.1-4 1.3 0 2.5.2 3.6.8l.4.3-.8 2.1c-.6-.2-1.2-.4-1.8-.5-1.5-.2-2.8.5-3.5 1.9-.6 1.3-.7 2.6-.6 4 0 1 .2 2 .7 2.9 1.1 2.3 3.4 2.2 4.8 1.4h.3"/>
		</defs>
		<clipPath id="SVGID_12_">
			<use xlink:href="#SVGID_11_" overflow="visible"/>
		</clipPath>
		<path d="M2.7 16.8h20.9V43H2.7z" class="st7"/>
		<defs>
			<path id="SVGID_13_" d="M122.9 34.5c.3.7.6 1.5.9 2.2 0 .1-.1.3-.2.3-.7.5-1.4.7-2.2.8-1.1.2-2.2.2-3.3-.1-2-.5-3.4-1.7-4.2-3.5-1.3-2.9-1.4-5.9 0-8.8 1.1-2.4 3.2-3.6 5.9-3.7 1.1 0 2.2.1 3.2.6.3.1.6.3.9.5l-.8 2.1c-.6-.2-1.1-.4-1.7-.5-1.7-.3-3 .4-3.6 2-.8 2.2-.9 4.5.1 6.6.9 2.1 3 2.7 5 1.5"/>
		</defs>
		<clipPath id="SVGID_14_">
			<use xlink:href="#SVGID_13_" overflow="visible"/>
		</clipPath>
		<path d="M107.9 16.8h20.9V43h-20.9z" class="st8"/>
		<defs>
			<path id="SVGID_15_" d="M92.5 37.6h-4.1V23.2c0-.3.1-.4.4-.5 1.3-.5 2.7-.8 4.1-.9 1.3-.1 2.6-.1 3.9.1h.2l-1 2.5c-.8-.2-1.5-.3-2.3-.2-1.1.2-1.2.2-1.2 1.3v12.1"/>
		</defs>
		<clipPath id="SVGID_16_">
			<use xlink:href="#SVGID_15_" overflow="visible"/>
		</clipPath>
		<path d="M83.4 16.8h18.5v25.8H83.4z" class="st9"/>
		<g class="st10">
			<defs>
				<path id="SVGID_17_" d="M80 22h5v16h-5z" class="st10"/>
			</defs>
			<clipPath id="SVGID_18_">
				<use xlink:href="#SVGID_17_" overflow="visible"/>
			</clipPath>
			<g class="st11">
				<defs>
					<path id="SVGID_19_" d="M80.5 22.1h4.1v15.5h-4.1z"/>
				</defs>
				<clipPath id="SVGID_20_">
					<use xlink:href="#SVGID_19_" overflow="visible"/>
				</clipPath>
				<g class="st12">
					<defs>
						<path id="SVGID_21_" d="M1 15h132v23H1z"/>
					</defs>
					<clipPath id="SVGID_22_">
						<use xlink:href="#SVGID_21_" overflow="visible"/>
					</clipPath>
					<path d="M75.5 17.1h14.1v25.5H75.5z" class="st13"/>
				</g>
			</g>
		</g>
		<g class="st10">
			<defs>
				<path id="SVGID_23_" d="M1 33h5v5H1z" class="st10"/>
			</defs>
			<clipPath id="SVGID_24_">
				<use xlink:href="#SVGID_23_" overflow="visible"/>
			</clipPath>
			<g class="st14">
				<defs>
					<path id="SVGID_25_" d="M3.4 33.3c1.3 0 2.4 1 2.4 2.3 0 1.2-1.1 2.3-2.4 2.2-1.3 0-2.4-1-2.4-2.3 0-1.2 1.1-2.2 2.4-2.2"/>
				</defs>
				<clipPath id="SVGID_26_">
					<use xlink:href="#SVGID_25_" overflow="visible"/>
				</clipPath>
				<g class="st15">
					<defs>
						<path id="SVGID_27_" d="M1 15h132v23H1z"/>
					</defs>
					<clipPath id="SVGID_28_">
						<use xlink:href="#SVGID_27_" overflow="visible"/>
					</clipPath>
					<path d="M-4 28.3h14.8v14.6H-4z" class="st16"/>
				</g>
			</g>
		</g>
	</g>
	<path id="Ebene_2" d="M109.6 36.6c.4.9.9 1.7 1.6 2.4.7.7 1.5 1.2 2.5 1.6.9.4 2 .6 3.1.6 1.2 0 2.3-.2 3.4-.7 1-.4 1.9-1.1 2.6-1.9l-2-2.5c-.5.6-1.1 1-1.8 1.4-.7.3-1.4.5-2.2.5-.6 0-1.2-.1-1.7-.3-.5-.2-1-.5-1.4-.9-.4-.4-.7-.8-.9-1.4-.2-.5-.3-1.1-.3-1.8 0-.6.1-1.2.3-1.8.2-.5.5-1 .9-1.4.4-.4.8-.7 1.4-.9.5-.2 1.1-.3 1.7-.3.8 0 1.5.2 2.2.5.7.4 1.3.8 1.8 1.4l2-2.5c-.7-.8-1.6-1.5-2.6-1.9-1-.4-2.1-.7-3.4-.7-1.1 0-2.1.2-3.1.6-.9.4-1.8.9-2.5 1.6-.7.7-1.2 1.5-1.6 2.4-.4.9-.6 1.9-.6 3 .1 1.1.2 2.1.6 3m-31-10.1h-3.4v14.3h3.4V26.5zm8.7 0c-.7.3-1.3.9-1.7 1.6v-1.7h-3.3v14.3h3.4v-7.8c0-.6.1-1.1.2-1.6.2-.5.4-.8.7-1.2.3-.3.6-.6 1-.7.4-.2.8-.2 1.3-.2.4 0 .8 0 1.2.1.4.1.8.2 1.2.4l.7-3.2c-.4-.1-.7-.3-1.1-.3-.4-.1-.8-.1-1.3-.1-.8 0-1.6.1-2.3.4m9.1 5.8c.1-.5.2-.9.4-1.3s.4-.7.7-1c.3-.3.7-.5 1.1-.7.4-.2.9-.2 1.4-.2.5 0 .9.1 1.3.2.4.2.7.4 1 .7.3.3.5.6.7 1 .2.4.3.8.3 1.3h-6.9zm.7-5.7c-.9.4-1.6.9-2.3 1.5-.6.7-1.1 1.5-1.5 2.4-.3.9-.5 1.9-.5 3.1 0 1.1.2 2.2.5 3.1.4.9.9 1.7 1.5 2.4s1.4 1.2 2.3 1.5c.9.4 1.9.5 2.9.5 1.1 0 2.1-.2 3.1-.5s1.9-.8 2.8-1.6l-1.6-2.5c-.6.5-1.3.8-2 1.1-.7.3-1.4.4-2.1.4-.5 0-1-.1-1.4-.2-.5-.1-.9-.3-1.2-.6-.4-.3-.7-.6-.9-1-.2-.4-.4-.9-.5-1.5h10.3c0-.2.1-.4.1-.6v-.6c0-1.1-.2-2.1-.5-3.1-.3-.9-.8-1.7-1.4-2.4-.6-.7-1.3-1.2-2.1-1.5-.8-.4-1.7-.6-2.7-.6-1 .2-1.9.3-2.8.7m-34.7 11c-.5-.2-.9-.5-1.3-.9-.3-.4-.6-.9-.8-1.4-.2-.5-.3-1.1-.3-1.7 0-.6.1-1.2.3-1.7.2-.5.4-1 .8-1.4.3-.4.8-.7 1.3-.9.5-.2 1.1-.3 1.7-.3.6 0 1.2.1 1.7.3.5.2.9.5 1.3.9s.6.8.8 1.4c.2.5.3 1.1.3 1.7 0 .6-.1 1.2-.3 1.7-.2.5-.5 1-.8 1.4-.4.4-.8.7-1.3.9s-1 .4-1.6.4c-.7 0-1.3-.2-1.8-.4m9-18.7H68v9.2c-.5-.6-1-1.1-1.8-1.5-.7-.4-1.6-.5-2.6-.5s-1.9.2-2.8.6c-.9.4-1.6.9-2.2 1.6s-1.1 1.5-1.5 2.4c-.4.9-.5 1.9-.5 3s.2 2.1.5 3c.4.9.8 1.7 1.5 2.4s1.4 1.2 2.2 1.6c.9.4 1.8.6 2.8.6s1.9-.2 2.6-.5c.7-.3 1.3-.8 1.8-1.5v1.6h3.4v-22zm-50 18.7c-.5-.2-1-.5-1.3-.9s-.7-.8-.9-1.4c-.2-.5-.3-1.1-.3-1.8 0-.6.1-1.2.3-1.8.2-.5.5-1 .9-1.4.4-.4.8-.7 1.3-.9.5-.2 1.1-.3 1.7-.3.6 0 1.2.1 1.7.3.5.2 1 .5 1.3.9.4.4.7.8.9 1.4.2.5.3 1.1.3 1.8s-.1 1.3-.3 1.8c-.2.5-.5 1-.9 1.4-.4.4-.8.7-1.3.9-.5.2-1.1.3-1.7.3-.6.1-1.2 0-1.7-.3m-1.3-11c-.9.4-1.7.9-2.4 1.6-.7.7-1.2 1.5-1.6 2.4-.4.9-.6 1.9-.6 3s.2 2.1.6 3c.4.9.9 1.7 1.6 2.4.7.7 1.5 1.2 2.4 1.6.9.4 2 .6 3.1.6s2.1-.2 3.1-.6c.9-.4 1.7-.9 2.4-1.6.7-.7 1.2-1.5 1.6-2.4.4-.9.6-1.9.6-3s-.2-2.1-.6-3c-.4-.9-.9-1.7-1.6-2.4-.7-.7-1.5-1.2-2.4-1.6-.9-.4-2-.6-3.1-.6-1.2.1-2.2.2-3.1.6M.7 36.6c.4.9.9 1.7 1.6 2.4.7.7 1.5 1.2 2.5 1.6.9.4 2 .6 3.1.6 1.2 0 2.3-.2 3.4-.7 1-.4 1.9-1.1 2.6-1.9l-2-2.5c-.5.6-1.1 1-1.8 1.4-.7.3-1.4.5-2.2.5-.6 0-1.2-.1-1.7-.3-.5-.2-1-.5-1.4-.9-.4-.4-.7-.8-.9-1.4-.2-.5-.3-1.1-.3-1.8 0-.6.1-1.2.3-1.8.2-.5.5-1 .9-1.4.4-.4.8-.7 1.4-.9.5-.2 1.1-.3 1.7-.3.8 0 1.5.2 2.2.5.7.4 1.3.8 1.8 1.4l2-2.5c-.7-.8-1.6-1.5-2.6-1.9-1-.4-2.1-.7-3.4-.7-1.1 0-2.1.2-3.1.6-.9.4-1.8.9-2.4 1.6-.7.7-1.2 1.5-1.6 2.4-.4.9-.6 1.9-.6 3s.2 2.1.5 3m132.1.9l-.9.3c-.3.1-.6.1-.9.1-.3 0-.6 0-.9-.1-.3-.1-.5-.2-.7-.4-.2-.2-.3-.5-.4-.8-.1-.3-.2-.7-.2-1.2v-5.9h4.3v-3h-4.3v-4.3h-3.4v13.4c0 1.9.4 3.3 1.3 4.2.9.9 2.2 1.4 3.8 1.4.6 0 1.1-.1 1.6-.2s.9-.3 1.4-.5l-.7-3zM42 40.7h3.4v-7.9c0-1.2.2-2.1.7-2.7.4-.6 1.1-.9 2-.9.9 0 1.5.3 1.9.9.4.6.6 1.5.6 2.7v7.9H54v-8.9c0-.8-.1-1.6-.4-2.3-.3-.7-.6-1.3-1.1-1.8-.5-.5-1-.9-1.7-1.2-.6-.3-1.3-.4-2.1-.4-.9 0-1.8.2-2.5.6s-1.4 1-1.8 1.8c-.5-.8-1.1-1.4-1.8-1.8-.7-.4-1.5-.6-2.5-.6-.4 0-.8 0-1.1.1-.3.1-.6.2-.9.4-.3.2-.5.3-.7.5-.2.2-.4.4-.5.6v-1.2h-3.3v14.3H37v-7.9c0-1.2.2-2.1.6-2.7.4-.6 1.1-.9 1.9-.9.9 0 1.5.3 2 .9.4.6.7 1.5.7 2.7v7.8z" class="st17"/>
</svg>
