<svg xmlns="http://www.w3.org/2000/svg"  viewBox="0 0 134 60">
	<style>
		.st0{fill:#FFFFFF;}
	</style>
	<path d="M109.6 36.6c.4.9.9 1.7 1.6 2.4s1.5 1.2 2.4 1.6 2 .6 3.1.6c1.2 0 2.3-.2 3.4-.7 1-.4 1.9-1.1 2.6-1.9l-2-2.5c-.5.6-1.1 1-1.8 1.4-.7.3-1.4.5-2.2.5-.6 0-1.2-.1-1.7-.3-.5-.2-1-.5-1.4-.9-.4-.4-.7-.8-.9-1.4-.2-.5-.3-1.1-.3-1.8 0-.6.1-1.2.3-1.8.2-.5.5-1 .9-1.4.4-.4.8-.7 1.4-.9.5-.2 1.1-.3 1.7-.3.8 0 1.5.2 2.2.5.7.4 1.3.8 1.8 1.4l2-2.5c-.7-.8-1.6-1.4-2.6-1.9-1-.4-2.1-.7-3.4-.7-1.1 0-2.1.2-3.1.6-.9.4-1.8.9-2.4 1.6-.7.7-1.2 1.5-1.6 2.4-.4.9-.6 1.9-.6 3s.2 2.1.6 3m-31-10.1h-3.4v14.2h3.4V26.5zm8.7.1c-.7.3-1.2.9-1.7 1.6v-1.7h-3.3v14.2h3.4v-7.8c0-.6.1-1.1.2-1.6.2-.5.4-.8.7-1.2.3-.3.6-.6 1-.7.4-.2.8-.2 1.3-.2.4 0 .8 0 1.2.1.4.1.8.2 1.1.4l.7-3.2c-.4-.1-.7-.2-1.1-.3-.4-.1-.8-.1-1.3-.1-.7 0-1.5.1-2.2.5m9.1 5.7c.1-.5.2-.9.4-1.3s.4-.7.7-1c.3-.3.7-.5 1.1-.7.4-.2.9-.2 1.4-.2.5 0 .9.1 1.3.2.4.2.7.4 1 .7.3.3.5.6.7 1 .2.4.3.8.3 1.3h-6.9zm.7-5.7c-.9.4-1.6.9-2.2 1.5s-1.1 1.4-1.5 2.4-.5 1.9-.5 3 .2 2.2.5 3.1c.4.9.9 1.7 1.5 2.4s1.4 1.2 2.3 1.5c.9.4 1.9.5 2.9.5 1.1 0 2.1-.2 3.1-.5s1.9-.8 2.8-1.5l-1.6-2.5c-.6.5-1.3.8-2 1.1-.7.3-1.4.4-2.1.4-.5 0-1-.1-1.4-.2-.5-.1-.9-.3-1.2-.6-.4-.3-.7-.6-.9-1-.2-.4-.4-.9-.5-1.5h10.3c0-.2.1-.4.1-.6v-.6c0-1.1-.2-2.1-.5-3-.3-.9-.8-1.7-1.4-2.4-.6-.7-1.3-1.2-2.1-1.5-.8-.4-1.7-.6-2.7-.6-1.1.1-2 .2-2.9.6m-34.6 11c-.5-.2-.9-.5-1.3-.9s-.6-.9-.8-1.4c-.2-.5-.3-1.1-.3-1.7 0-.6.1-1.2.3-1.7.2-.5.4-1 .8-1.4s.8-.7 1.3-.9c.5-.2 1.1-.3 1.7-.3.6 0 1.2.1 1.7.3.5.2.9.5 1.3.9s.6.8.8 1.4c.2.5.3 1.1.3 1.7 0 .6-.1 1.2-.3 1.7-.2.5-.5 1-.8 1.4-.4.4-.8.7-1.3.9-.5.2-1.1.3-1.7.3-.6 0-1.2-.1-1.7-.3m9-18.7h-3.4v9.2c-.5-.6-1-1.1-1.8-1.5-.7-.4-1.6-.5-2.6-.5s-1.9.2-2.8.6c-.9.4-1.6.9-2.2 1.6-.6.7-1.1 1.5-1.5 2.4-.4.9-.5 1.9-.5 3s.2 2.1.5 3c.4.9.8 1.7 1.5 2.4.6.7 1.4 1.2 2.2 1.6.9.4 1.8.6 2.8.6s1.9-.2 2.6-.5c.7-.3 1.3-.8 1.8-1.5v1.6h3.4v-22zM21.6 37.6c-.5-.2-1-.5-1.3-.9-.4-.4-.7-.8-.9-1.4-.2-.5-.3-1.1-.3-1.8 0-.6.1-1.2.3-1.8.2-.5.5-1 .9-1.4.4-.4.8-.7 1.3-.9.5-.2 1.1-.3 1.7-.3.6 0 1.2.1 1.7.3.5.2 1 .5 1.3.9.4.4.7.8.9 1.4.2.5.3 1.1.3 1.8s-.1 1.2-.3 1.8c-.2.5-.5 1-.9 1.4-.4.4-.8.7-1.3.9-.5.2-1.1.3-1.7.3-.6 0-1.2-.1-1.7-.3m-1.3-11c-.9.4-1.7.9-2.4 1.6-.7.7-1.2 1.5-1.6 2.4-.4.9-.6 1.9-.6 3s.2 2.1.6 3c.4.9.9 1.7 1.6 2.4.7.7 1.5 1.2 2.4 1.6.9.4 2 .6 3.1.6s2.1-.2 3-.6c.9-.4 1.7-.9 2.4-1.6.7-.7 1.2-1.5 1.6-2.4.4-.9.6-1.9.6-3s-.2-2.1-.6-3c-.4-.9-.9-1.7-1.6-2.4-.7-.7-1.5-1.2-2.4-1.6-.9-.4-1.9-.6-3-.6-1.2.1-2.2.3-3.1.6M1 36.6c.4.9.9 1.7 1.6 2.4.7.7 1.5 1.2 2.4 1.6.9.4 2 .6 3.1.6 1.2 0 2.3-.2 3.4-.7 1-.4 1.9-1.1 2.6-1.9l-2-2.5c-.5.6-1.1 1-1.8 1.4-.7.3-1.4.5-2.2.5-.6 0-1.2-.1-1.7-.3-.5-.2-1-.5-1.4-.9-.4-.4-.7-.8-.9-1.4-.2-.5-.3-1.1-.3-1.8 0-.6.1-1.2.3-1.8.2-.5.5-1 .9-1.4.4-.4.8-.7 1.4-.9.5-.2 1.1-.3 1.7-.3.8 0 1.5.2 2.2.5.7.4 1.3.8 1.8 1.4l2-2.5c-.7-.8-1.6-1.4-2.6-1.9-1-.4-2.1-.7-3.4-.7-1.1 0-2.1.2-3.1.6-.9.4-1.8.9-2.4 1.6-.7.7-1.2 1.5-1.6 2.4-.4.9-.6 1.9-.6 3s.2 2.1.6 3m131.7.9l-.9.3c-.3.1-.6.1-.9.1-.3 0-.6 0-.9-.1-.3-.1-.5-.2-.7-.4-.2-.2-.3-.5-.4-.8-.1-.3-.2-.7-.2-1.2v-5.9h4.2v-3h-4.2v-4.3h-3.4v13.4c0 1.9.4 3.3 1.3 4.2.9.9 2.2 1.4 3.8 1.4.6 0 1.1-.1 1.6-.2s.9-.3 1.4-.5l-.7-3zm-90.6 3.2h3.4v-7.9c0-1.2.2-2.1.7-2.7.4-.6 1.1-.9 1.9-.9s1.5.3 1.9.9c.4.6.6 1.5.6 2.7v7.9H54v-8.9c0-.8-.1-1.6-.4-2.3-.3-.7-.6-1.3-1.1-1.8-.5-.5-1-.9-1.7-1.2-.6-.3-1.3-.4-2.1-.4-.9 0-1.8.2-2.5.6-.7.4-1.4 1-1.8 1.8-.5-.8-1.1-1.4-1.8-1.8-.7-.4-1.5-.6-2.4-.6-.4 0-.8 0-1.1.1-.3.1-.6.2-.9.4-.3.2-.5.3-.7.5s-.4.4-.5.6v-1.2h-3.3v14.2H37v-7.9c0-1.2.2-2.1.6-2.7.4-.6 1-.9 1.9-.9.9 0 1.5.3 1.9.9.4.6.7 1.5.7 2.7v7.9z" class="st0"/>
</svg>
