<svg xmlns="http://www.w3.org/2000/svg" viewBox="0 0 47 38" xmlns:xlink="http://www.w3.org/1999/xlink"><defs><path id="0" d="m8.204.188h-8.17v8.291h8.17v-8.291"/><mask id="1" style="fill:#fff"><use xlink:href="#0"/></mask></defs><g style="fill:#fefefe;fill-rule:evenodd"><path d="m0 13.614c0 1.088.09 3.044 2.374 2.877l2.807-.206c4.616 28.917 28.14 26.746 35.14 5.093.947-2.931.676-3.969-1.314-4.471-1.468-.37-1.906.16-3.247 3.067-8.096 17.565-22.966 12.249-25.509-4.06l3.455-.25c1.918-.138 2.064-1.341 1.708-3.071-.32-1.555-1.134-1.902-2.213-1.902h-11.01c-1.413 0-2.2.771-2.2 2.922"/><path d="m.034 4.334c0 2.29 1.829 4.146 4.085 4.146 2.256 0 4.085-1.856 4.085-4.146 0-2.29-1.829-4.146-4.085-4.146-2.256 0-4.085 1.856-4.085 4.146" transform="translate(38.1.033)" style="mask:url(#1)"/></g></svg>