<svg xmlns="http://www.w3.org/2000/svg" viewBox="0 0 65 59" xmlns:xlink="http://www.w3.org/1999/xlink"><defs><path id="0" d="m13.502.085h-13.276v24.773h13.276v-24.773"/><path id="1" d="m0 58.915h64.788v-58.36h-64.788z"/><mask id="2" style="fill:#fff"><use xlink:href="#1"/></mask><mask id="3" style="fill:#fff"><use xlink:href="#0"/></mask></defs><g style="fill:#fff;fill-rule:evenodd"><path d="m46.857 24.39c.361-1.304.653-2.627.874-3.961.325-2.07.493-4.344.303-6.616-.526-6.289-2.966-11.198-3.706-11.3-.614-.085-.495 1.278-.446 3.112.047 1.708.055 3.768-.093 5.495 3.328 1.219 4.092 8.24 3.068 13.271m-28.986 0c-1.024-5.03-.26-12.05 3.068-13.271-.148-1.727-.14-3.786-.094-5.495.049-1.834.168-3.196-.446-3.112-.74.102-3.179 5.01-3.705 11.3-.191 2.271-.022 4.546.302 6.616.221 1.334.514 2.657.874 3.961"/><path d="m.226 14.08c1.937 4.629 3.1 9.65 3.399 10.778.335-.464 1.649-1.663 3.252-1.663 1.602 0 2.891 1.199 3.226 1.663.299-1.128 1.462-6.149 3.399-10.778-.09-.869-.557-3.436-.759-4.367-.377-1.74-2.143-9.629-5.865-9.629-3.723 0-5.515 7.889-5.892 9.629-.202.931-.669 3.498-.759 4.367" transform="translate(25.488.466)" style="mask:url(#3)"/><path d="m41.523 11.312c-.534-2.65-2.238-6.109-3.72-6.363.785 2.083 1.414 4.331 2.048 8.108.043-.063.835-1.199 1.672-1.745m-16.663 1.745c.634-3.777 1.263-6.02 2.048-8.108-1.483.254-3.187 3.713-3.72 6.363.837.545 1.63 1.681 1.672 1.745"/><path d="m62.1 48.881c-.771 0-1.71.111-2.635.588l.546 1.176c.729-.435 1.191-.546 1.753-.546 1.022 0 1.569.309 1.569 1.148v.126c-.603-.084-.967-.099-1.261-.099-1.892 0-3.28 1.01-3.28 2.396 0 1.218.967 2.087 2.327 2.087.56 0 1.233-.169 1.864-.532.084-.043.197-.112.351-.21v.546h1.457v-4.551c0-1.54-1.135-2.128-2.691-2.128m1.233 5.04c-.59.391-1.261.56-1.85.56-.744 0-1.22-.393-1.22-.994 0-.799 1.079-1.163 2.061-1.163.196 0 .756 0 1.01.056v1.541m-17.342-21s-.147.091-.151.031c-.002-.034.178-.18.178-.18 4.057-3.194 5.704-9.261 4.996-9.805-.376-.124-1.042 1.346-2 3.13-.735 1.365-1.444 2.251-1.444 2.251s-.065.084-.1.073c-.027-.009.022-.1.022-.1 2.912-5.984 3.24-10.204 3.339-12.14.224-4.365-.563-4.577-.881-3.156-.368 1.65-.805 3.77-1.126 5.86-.885 5.765-3.37 11.508-5.335 14.64-.295.457-.542.423-.603.336-.052-.075-.018-.179.162-.511 5.656-10.401 3.252-20.874-.093-20.994-3.21-.116-6.278 12.472-6.637 13.853 2.167 3.679 2.681 8.778 2.525 10.07-.012.106-.102.191-.213.194-.122.004-.224-.092-.228-.214 0-2.346-1.792-11.282-6-11.282-4.21 0-6 8.936-6 11.281-.003.122-.106.218-.228.214-.111-.003-.201-.088-.213-.194-.155-1.288.358-6.386 2.525-10.07-.358-1.381-3.427-13.969-6.636-13.853-3.346.12-5.75 10.593-.094 20.994.181.332.215.436.162.511-.06.088-.307.121-.602-.336-1.965-3.132-4.45-8.875-5.336-14.64-.32-2.09-.758-4.211-1.126-5.86-.317-1.42-1.105-1.209-.881 3.156.099 1.936.427 6.156 3.339 12.14 0 0 .049.091.021.1-.035.011-.101-.073-.101-.073s-.708-.886-1.443-2.251c-.961-1.784-1.626-3.254-2-3.13-.706.544.939 6.611 4.997 9.805 0 0 .181.146.178.18-.004.06-.152-.031-.152-.031-1.576-.965-3.696-3.137-4.04-2.361-.254.895 3.02 4.71 8.276 6.619 0 0 .362.122.362.191.001.072-.224.004-.224.004-.753-.231-3.208-1.17-3.842-1.083-.687.094-.291.576.356 1.141.64.559 3.594 2.314 7.665 2.604.032.366 1.444 1.642 5.04 1.642 3.594 0 5.02-1.276 5.05-1.642 4.071-.289 7.03-2.045 7.665-2.604.648-.565 1.042-1.047.357-1.141-.634-.087-3.089.852-3.843 1.083 0 0-.225.067-.224-.004.001-.069.362-.191.362-.191 5.257-1.91 8.53-5.724 8.277-6.619-.347-.776-2.467 1.396-4.04 2.361m7.298 16.663c-.631-.546-1.261-.645-1.906-.645-1.724 0-3.112 1.471-3.112 3.445 0 1.933 1.332 3.361 2.986 3.361.686 0 1.654-.266 2.129-.841v.658h1.36v-9.155h-1.458v3.176m-1.738 4.873c-1.052 0-1.822-.882-1.822-2.128 0-1.247.757-2.087 1.794-2.087 1.079 0 1.851.826 1.851 2.073 0 1.302-.716 2.143-1.822 2.143"/><path d="m56.29 55.56h1.458v-6.554h-1.458v6.554m-41.743-7.477h1.458v-1.638h-1.458v1.638m0 7.477h1.458v-6.554h-1.458v6.554m29.599-6.707c-1.948 0-3.391 1.386-3.391 3.486 0 2.255 1.457 3.43 3.503 3.43 1.121 0 1.822-.168 2.914-1.134l-.798-1.01c-.56.673-1.318.967-1.934.967-1.191 0-2.214-.63-2.242-2.02h5.115v-.378c0-2.352-1.584-3.346-3.168-3.346m-1.905 2.632c.224-.938.953-1.428 1.864-1.428.952 0 1.584.56 1.668 1.428h-3.532m-31.421-2.618c-.617 0-1.556.238-2.103.868v-.728h-1.457v6.554h1.457v-3.81c0-1.037.729-1.54 1.654-1.54.785 0 1.317.392 1.317 1.4v3.95h1.457v-4.369c0-1.848-1.246-2.325-2.325-2.325m26.487 0c-.854 0-1.794.35-2.256.967-.35-.631-.981-.967-1.85-.967-.336 0-1.513.083-2.173.882v-.742h-1.457v6.554h1.457v-3.726c0-1.161.687-1.623 1.64-1.623.842 0 1.247.503 1.247 1.4v3.95h1.36v-3.81c0-.924.575-1.54 1.514-1.54.869 0 1.402.462 1.402 1.275v4.075h1.457v-4.369c0-1.54-.911-2.325-2.341-2.325m18.984-.783h1.458v-1.638h-1.458v1.638m-29.638 4.568c0 1.094-.687 1.738-1.683 1.738-.856 0-1.292-.448-1.292-1.415v-3.968h-1.458v4.374c0 1.472.996 2.341 2.413 2.341.56 0 1.372-.097 2.114-.962l.002 1.573c0 .865-.696 1.363-1.745 1.363-.457 0-.941-.13-1.381-.351l-.449 1.182c.545.227 1.235.389 1.935.389 1.141 0 2.099-.394 2.571-1.115.329-.498.433-.891.433-1.887v-6.906h-1.459v3.645m-22.23-.004c0 1.093-.687 1.737-1.682 1.737-.854 0-1.289-.448-1.289-1.415v-3.963h-1.457v4.369c0 1.47.995 2.338 2.411 2.338.56 0 1.373-.098 2.116-.967v.813h1.359v-6.554h-1.457v3.64m15.16.281v-2.662h1.374v-1.261h-1.374v-2.599h-1.457v2.599h-1.093v1.261h1.093v2.928c0 1.176.294 1.666.939 2.101.365.252.841.363 1.289.363.212 0 .561-.04.786-.125v-1.204s-.336.028-.547.028c-.673 0-1.01-.505-1.01-1.429" style="mask:url(#2)"/></g></svg>