<?xml version="1.0" encoding="utf-8"?>
<!-- Generator: Adobe Illustrator 20.1.0, SVG Export Plug-In . SVG Version: 6.00 Build 0)  -->
<svg version="1.1" id="Ebene_1" xmlns="http://www.w3.org/2000/svg" xmlns:xlink="http://www.w3.org/1999/xlink" x="0px" y="0px"
	 viewBox="0 0 134 60" style="enable-background:new 0 0 134 60;" xml:space="preserve">
<style type="text/css">
	.st0{clip-path:url(#SVGID_2_);}
	.st1{clip-path:url(#SVGID_4_);fill:#FFFFFF;}
	.st2{clip-path:url(#SVGID_6_);}
	.st3{clip-path:url(#SVGID_8_);enable-background:new    ;}
	.st4{clip-path:url(#SVGID_10_);}
	.st5{clip-path:url(#SVGID_12_);}
	.st6{clip-path:url(#SVGID_14_);fill:#FFFFFF;}
	.st7{clip-path:url(#SVGID_16_);}
	.st8{clip-path:url(#SVGID_18_);fill:#FFFFFF;}
	.st9{clip-path:url(#SVGID_20_);}
	.st10{clip-path:url(#SVGID_22_);fill:#FFFFFF;}
	.st11{clip-path:url(#SVGID_24_);}
	.st12{clip-path:url(#SVGID_26_);fill:#FFFFFF;}
	.st13{clip-path:url(#SVGID_28_);}
	.st14{clip-path:url(#SVGID_30_);enable-background:new    ;}
	.st15{clip-path:url(#SVGID_32_);}
	.st16{clip-path:url(#SVGID_34_);}
	.st17{clip-path:url(#SVGID_36_);fill:#FFFFFF;}
	.st18{clip-path:url(#SVGID_38_);}
	.st19{clip-path:url(#SVGID_40_);fill:#FFFFFF;}
	.st20{clip-path:url(#SVGID_42_);}
	.st21{clip-path:url(#SVGID_44_);fill:#FFFFFF;}
</style>
<g>
	<g>
		<defs>
			<path id="SVGID_1_" d="M52.5,24.7c-1-5-0.3-12.1,3.1-13.3c-0.1-1.7-0.1-3.8-0.1-5.5c0-1.8,0.2-3.2-0.4-3.1
				c-0.7,0.1-3.2,5-3.7,11.3c-0.2,2.3,0,4.5,0.3,6.6C51.8,22,52.1,23.4,52.5,24.7z M81.5,24.7c0.4-1.3,0.7-2.6,0.9-4
				c0.3-2.1,0.5-4.3,0.3-6.6c-0.5-6.3-3-11.2-3.7-11.3c-0.6-0.1-0.5,1.3-0.4,3.1c0,1.7,0.1,3.8-0.1,5.5
				C81.7,12.6,82.5,19.6,81.5,24.7z"/>
		</defs>
		<clipPath id="SVGID_2_">
			<use xlink:href="#SVGID_1_"  style="overflow:visible;"/>
		</clipPath>
		<g class="st0">
			<defs>
				<rect id="SVGID_3_" x="-1229.4" y="-477.7" width="1440" height="837"/>
			</defs>
			<clipPath id="SVGID_4_">
				<use xlink:href="#SVGID_3_"  style="overflow:visible;"/>
			</clipPath>
			<rect x="46.2" y="-2.2" class="st1" width="41.5" height="31.9"/>
		</g>
	</g>
	<g>
		<defs>
			<rect id="SVGID_5_" x="60.3" y="0.8" width="13.3" height="24.8"/>
		</defs>
		<clipPath id="SVGID_6_">
			<use xlink:href="#SVGID_5_"  style="overflow:visible;"/>
		</clipPath>
		<g class="st2">
			<defs>
				<rect id="SVGID_7_" x="-1229.4" y="-477.7" width="1440" height="837"/>
			</defs>
			<clipPath id="SVGID_8_">
				<use xlink:href="#SVGID_7_"  style="overflow:visible;"/>
			</clipPath>
			<g class="st3">
				<g>
					<defs>
						<rect id="SVGID_9_" x="59.6" y="0.3" width="14" height="26"/>
					</defs>
					<clipPath id="SVGID_10_">
						<use xlink:href="#SVGID_9_"  style="overflow:visible;"/>
					</clipPath>
					<g class="st4">
						<defs>
							<path id="SVGID_11_" d="M60.3,14.8c1.9,4.6,3.1,9.6,3.4,10.8c0.3-0.5,1.6-1.7,3.3-1.7c1.6,0,2.9,1.2,3.2,1.7
								c0.3-1.1,1.5-6.1,3.4-10.8c-0.1-0.9-0.6-3.4-0.8-4.4c-0.4-1.7-2.1-9.6-5.9-9.6c-3.7,0-5.5,7.9-5.9,9.6
								C60.9,11.4,60.4,13.9,60.3,14.8"/>
						</defs>
						<clipPath id="SVGID_12_">
							<use xlink:href="#SVGID_11_"  style="overflow:visible;"/>
						</clipPath>
						<g class="st5">
							<defs>
								<rect id="SVGID_13_" x="59.6" y="0.3" width="14" height="26"/>
							</defs>
							<clipPath id="SVGID_14_">
								<use xlink:href="#SVGID_13_"  style="overflow:visible;"/>
							</clipPath>
							<rect x="55.3" y="-4.2" class="st6" width="23.3" height="34.8"/>
						</g>
					</g>
				</g>
			</g>
		</g>
	</g>
	<g>
		<defs>
			<path id="SVGID_15_" d="M59.5,13.3c0.6-3.8,1.3-6,2-8.1c-1.5,0.3-3.2,3.7-3.7,6.4C58.6,12.1,59.4,13.3,59.5,13.3 M76.1,11.6
				c-0.5-2.7-2.2-6.1-3.7-6.4c0.8,2.1,1.4,4.3,2,8.1C74.5,13.3,75.3,12.1,76.1,11.6"/>
		</defs>
		<clipPath id="SVGID_16_">
			<use xlink:href="#SVGID_15_"  style="overflow:visible;"/>
		</clipPath>
		<g class="st7">
			<defs>
				<rect id="SVGID_17_" x="-1229.4" y="-477.7" width="1440" height="837"/>
			</defs>
			<clipPath id="SVGID_18_">
				<use xlink:href="#SVGID_17_"  style="overflow:visible;"/>
			</clipPath>
			<rect x="52.8" y="0.2" class="st8" width="28.3" height="18.1"/>
		</g>
	</g>
	<g>
		<defs>
			<path id="SVGID_19_" d="M80.6,33.2c0,0-0.1,0.1-0.2,0c0,0,0.2-0.2,0.2-0.2c4.1-3.2,5.7-9.3,5-9.8c-0.4-0.1-1,1.3-2,3.1
				c-0.7,1.4-1.4,2.3-1.4,2.3s-0.1,0.1-0.1,0.1c0,0,0-0.1,0-0.1c2.9-6,3.2-10.2,3.3-12.1c0.2-4.4-0.6-4.6-0.9-3.2
				c-0.4,1.6-0.8,3.8-1.1,5.9c-0.9,5.8-3.4,11.5-5.3,14.6c-0.3,0.5-0.5,0.4-0.6,0.3c-0.1-0.1,0-0.2,0.2-0.5
				c5.7-10.4,3.3-20.9-0.1-21c-3.2-0.1-6.3,12.5-6.6,13.9c2.2,3.7,2.7,8.8,2.5,10.1c0,0.1-0.1,0.2-0.2,0.2c-0.1,0-0.2-0.1-0.2-0.2v0
				c0-2.3-1.8-11.3-6-11.3c-4.2,0-6,8.9-6,11.3v0c0,0.1-0.1,0.2-0.2,0.2c-0.1,0-0.2-0.1-0.2-0.2c-0.2-1.3,0.4-6.4,2.5-10.1
				c-0.4-1.4-3.4-14-6.6-13.9c-3.3,0.1-5.8,10.6-0.1,21c0.2,0.3,0.2,0.4,0.2,0.5c-0.1,0.1-0.3,0.1-0.6-0.3c-2-3.1-4.5-8.9-5.3-14.6
				c-0.3-2.1-0.8-4.2-1.1-5.9c-0.3-1.4-1.1-1.2-0.9,3.2c0.1,1.9,0.4,6.2,3.3,12.1c0,0,0,0.1,0,0.1c0,0-0.1-0.1-0.1-0.1
				s-0.7-0.9-1.4-2.3c-1-1.8-1.6-3.3-2-3.1c-0.7,0.5,0.9,6.6,5,9.8c0,0,0.2,0.1,0.2,0.2c0,0.1-0.2,0-0.2,0c-1.6-1-3.7-3.1-4-2.4
				c-0.3,0.9,3,4.7,8.3,6.6c0,0,0.4,0.1,0.4,0.2c0,0.1-0.2,0-0.2,0c-0.8-0.2-3.2-1.2-3.8-1.1c-0.7,0.1-0.3,0.6,0.4,1.1
				c0.6,0.6,3.6,2.3,7.7,2.6c0,0.4,1.4,1.6,5,1.6c3.6,0,5-1.3,5.1-1.6c4.1-0.3,7-2,7.7-2.6c0.6-0.6,1-1,0.4-1.1
				c-0.6-0.1-3.1,0.9-3.8,1.1c0,0-0.2,0.1-0.2,0c0-0.1,0.4-0.2,0.4-0.2c5.3-1.9,8.5-5.7,8.3-6.6C84.3,30,82.2,32.2,80.6,33.2
				L80.6,33.2z M97.9,54.2c-0.6,0.4-1.3,0.6-1.8,0.6c-0.7,0-1.2-0.4-1.2-1c0-0.8,1.1-1.2,2.1-1.2c0.2,0,0.8,0,1,0.1V54.2z
				 M96.7,49.1c-0.8,0-1.7,0.1-2.6,0.6l0.5,1.2c0.7-0.4,1.2-0.5,1.8-0.5c1,0,1.6,0.3,1.6,1.1v0.1c-0.6-0.1-1-0.1-1.3-0.1
				c-1.9,0-3.3,1-3.3,2.4c0,1.2,1,2.1,2.3,2.1c0.6,0,1.2-0.2,1.9-0.5c0.1,0,0.2-0.1,0.4-0.2v0.5h1.5v-4.6
				C99.4,49.7,98.3,49.1,96.7,49.1z"/>
		</defs>
		<clipPath id="SVGID_20_">
			<use xlink:href="#SVGID_19_"  style="overflow:visible;"/>
		</clipPath>
		<g class="st9">
			<defs>
				<rect id="SVGID_21_" x="-1229.4" y="-477.7" width="1440" height="837"/>
			</defs>
			<clipPath id="SVGID_22_">
				<use xlink:href="#SVGID_21_"  style="overflow:visible;"/>
			</clipPath>
			<rect x="43.2" y="7.5" class="st10" width="61.2" height="53.5"/>
		</g>
	</g>
	<g>
		<defs>
			<path id="SVGID_23_" d="M86.2,54.7c-1.1,0-1.8-0.9-1.8-2.1c0-1.2,0.8-2.1,1.8-2.1c1.1,0,1.9,0.8,1.9,2.1
				C88,53.9,87.3,54.7,86.2,54.7 M87.9,49.8c-0.6-0.5-1.3-0.6-1.9-0.6c-1.7,0-3.1,1.5-3.1,3.4c0,1.9,1.3,3.4,3,3.4
				c0.7,0,1.7-0.3,2.1-0.8v0.7h1.4v-9.2h-1.5V49.8"/>
		</defs>
		<clipPath id="SVGID_24_">
			<use xlink:href="#SVGID_23_"  style="overflow:visible;"/>
		</clipPath>
		<g class="st11">
			<defs>
				<rect id="SVGID_25_" x="-1229.4" y="-477.7" width="1440" height="837"/>
			</defs>
			<clipPath id="SVGID_26_">
				<use xlink:href="#SVGID_25_"  style="overflow:visible;"/>
			</clipPath>
			<rect x="77.9" y="41.7" class="st12" width="16.5" height="19.3"/>
		</g>
	</g>
	<g>
		<defs>
			<rect id="SVGID_27_" x="34.6" y="0.8" width="64.8" height="58.4"/>
		</defs>
		<clipPath id="SVGID_28_">
			<use xlink:href="#SVGID_27_"  style="overflow:visible;"/>
		</clipPath>
		<g class="st13">
			<defs>
				<rect id="SVGID_29_" x="-1229.4" y="-477.7" width="1440" height="837"/>
			</defs>
			<clipPath id="SVGID_30_">
				<use xlink:href="#SVGID_29_"  style="overflow:visible;"/>
			</clipPath>
			<g class="st14">
				<g>
					<defs>
						<rect id="SVGID_31_" x="34.6" y="46.3" width="58" height="13"/>
					</defs>
					<clipPath id="SVGID_32_">
						<use xlink:href="#SVGID_31_"  style="overflow:visible;"/>
					</clipPath>
					<g class="st15">
						<defs>
							<path id="SVGID_33_" d="M76.9,51.8c0.2-0.9,1-1.4,1.9-1.4c1,0,1.6,0.6,1.7,1.4H76.9z M78.8,49.1c-1.9,0-3.4,1.4-3.4,3.5
								c0,2.3,1.5,3.4,3.5,3.4c1.1,0,1.8-0.2,2.9-1.1l-0.8-1c-0.6,0.7-1.3,1-1.9,1c-1.2,0-2.2-0.6-2.2-2h5.1v-0.4
								C81.9,50.1,80.3,49.1,78.8,49.1z M49.2,55.8h1.5v-6.6h-1.5V55.8z M49.2,48.4h1.5v-1.6h-1.5V48.4z M90.9,55.8h1.5v-6.6h-1.5
								V55.8z"/>
						</defs>
						<clipPath id="SVGID_34_">
							<use xlink:href="#SVGID_33_"  style="overflow:visible;"/>
						</clipPath>
						<g class="st16">
							<defs>
								<rect id="SVGID_35_" x="34.6" y="0.3" width="65" height="59"/>
							</defs>
							<clipPath id="SVGID_36_">
								<use xlink:href="#SVGID_35_"  style="overflow:visible;"/>
							</clipPath>
							<rect x="44.2" y="41.7" class="st17" width="53.2" height="19.3"/>
						</g>
					</g>
					<g class="st15">
						<defs>
							<path id="SVGID_37_" d="M90.9,48.4h1.5v-1.6h-1.5V48.4z M71.9,49.1c-0.9,0-1.8,0.4-2.3,1c-0.4-0.6-1-1-1.9-1
								c-0.3,0-1.5,0.1-2.2,0.9v-0.7h-1.5v6.6h1.5v-3.7c0-1.2,0.7-1.6,1.6-1.6c0.8,0,1.2,0.5,1.2,1.4v3.9h1.4V52
								c0-0.9,0.6-1.5,1.5-1.5c0.9,0,1.4,0.5,1.4,1.3v4.1h1.5v-4.4C74.3,49.9,73.3,49.1,71.9,49.1z M45.4,49.1
								c-0.6,0-1.6,0.2-2.1,0.9v-0.7h-1.5v6.6h1.5V52c0-1,0.7-1.5,1.7-1.5c0.8,0,1.3,0.4,1.3,1.4v3.9h1.5v-4.4
								C47.8,49.6,46.5,49.1,45.4,49.1z"/>
						</defs>
						<clipPath id="SVGID_38_">
							<use xlink:href="#SVGID_37_"  style="overflow:visible;"/>
						</clipPath>
						<g class="st18">
							<defs>
								<rect id="SVGID_39_" x="34.6" y="0.3" width="65" height="59"/>
							</defs>
							<clipPath id="SVGID_40_">
								<use xlink:href="#SVGID_39_"  style="overflow:visible;"/>
							</clipPath>
							<rect x="36.9" y="41.7" class="st19" width="60.5" height="19.1"/>
						</g>
					</g>
					<g class="st15">
						<defs>
							<path id="SVGID_41_" d="M54.2,53.2v-2.7h1.4v-1.3h-1.4v-2.6h-1.5v2.6h-1.1v1.3h1.1v2.9c0,1.2,0.3,1.7,0.9,2.1
								c0.4,0.3,0.8,0.4,1.3,0.4c0.2,0,0.6,0,0.8-0.1v-1.2c0,0-0.3,0-0.5,0C54.5,54.6,54.2,54.1,54.2,53.2 M39,52.9
								c0,1.1-0.7,1.7-1.7,1.7c-0.9,0-1.3-0.4-1.3-1.4v-4h-1.5v4.4c0,1.5,1,2.3,2.4,2.3c0.6,0,1.4-0.1,2.1-1v0.8h1.4v-6.6H39V52.9
								 M61.3,52.9c0,1.1-0.7,1.7-1.7,1.7c-0.9,0-1.3-0.4-1.3-1.4v-4h-1.5v4.4c0,1.5,1,2.3,2.4,2.3c0.6,0,1.4-0.1,2.1-1l0,1.6
								c0,0.9-0.7,1.4-1.7,1.4c-0.5,0-0.9-0.1-1.4-0.4l-0.4,1.2c0.5,0.2,1.2,0.4,1.9,0.4c1.1,0,2.1-0.4,2.6-1.1
								c0.3-0.5,0.4-0.9,0.4-1.9v-6.9h-1.5V52.9"/>
						</defs>
						<clipPath id="SVGID_42_">
							<use xlink:href="#SVGID_41_"  style="overflow:visible;"/>
						</clipPath>
						<g class="st20">
							<defs>
								<rect id="SVGID_43_" x="34.6" y="0.3" width="65" height="59"/>
							</defs>
							<clipPath id="SVGID_44_">
								<use xlink:href="#SVGID_43_"  style="overflow:visible;"/>
							</clipPath>
							<rect x="29.6" y="41.7" class="st21" width="38.1" height="22.5"/>
						</g>
					</g>
				</g>
			</g>
		</g>
	</g>
</g>
</svg>
