<svg xmlns="http://www.w3.org/2000/svg" viewBox="0 0 52 52"><g style="fill:#fefefe;fill-rule:evenodd"><path d="m25.997 49.662c-13.07 0-23.666-10.595-23.666-23.666 0-13.07 10.595-23.666 23.666-23.666 13.07 0 23.666 10.596 23.666 23.666 0 13.07-10.596 23.666-23.666 23.666m0-49.662c-14.358 0-25.997 11.64-25.997 25.997 0 14.358 11.639 25.997 25.997 25.997 14.357 0 25.997-11.639 25.997-25.997 0-14.357-11.64-25.997-25.997-25.997"/><path d="m20.815 8.315c1.644-.481 3.382-.738 5.182-.738 1.796 0 3.534.257 5.175.737l-5.175 11.472-5.182-11.471"/><path d="m35.884 10.453c1.941 1.237 3.635 2.828 4.991 4.682l-8.495 18.798-3.278-7.288h-6.211l-3.278 7.288-8.482-18.815c1.353-1.846 3.042-3.43 4.977-4.664l6.783 15.05h6.232l6.761-15.05m-27.685 10.777c-.406 1.521-.623 3.119-.623 4.767 0 7.219 4.152 13.467 10.198 16.488l-9.575-21.255"/><path d="m20.901 43.703c1.618.465 3.328.714 5.096.714 1.766 0 3.473-.248 5.09-.712l-5.09-11.303-5.096 11.301m13.318-1.218c6.05-3.02 10.198-9.269 10.198-16.488 0-1.634-.213-3.218-.612-4.727l-9.586 21.21"/></g></svg>