<?xml version="1.0" encoding="utf-8"?>
<!-- Generator: Adobe Illustrator 20.1.0, SVG Export Plug-In . SVG Version: 6.00 Build 0)  -->
<svg version="1.1" id="Ebene_1" xmlns="http://www.w3.org/2000/svg" xmlns:xlink="http://www.w3.org/1999/xlink" x="0px" y="0px"
	 viewBox="0 0 134 60" style="enable-background:new 0 0 134 60;" xml:space="preserve">
<style type="text/css">
	.st0{fill:#FEFEFE;}
</style>
<title>vw</title>
<desc>Created with Sketch.</desc>
<g>
	<path class="st0" d="M67,53.7c-13.1,0-23.7-10.6-23.7-23.7C43.3,16.9,53.9,6.3,67,6.3c13.1,0,23.7,10.6,23.7,23.7
		S80.1,53.7,67,53.7 M67,4C52.6,4,41,15.6,41,30c0,14.4,11.6,26,26,26c14.4,0,26-11.6,26-26C93,15.6,81.4,4,67,4"/>
	<path class="st0" d="M61.8,12.3c1.6-0.5,3.4-0.7,5.2-0.7c1.8,0,3.5,0.3,5.2,0.7L67,23.8C67,23.8,61.8,12.3,61.8,12.3z"/>
	<path class="st0" d="M76.9,14.5c1.9,1.2,3.6,2.8,5,4.7l-8.5,18.8l-3.3-7.3h-6.2l-3.3,7.3l-8.5-18.8c1.4-1.8,3-3.4,5-4.7l6.8,15h6.2
		L76.9,14.5L76.9,14.5z"/>
	<path class="st0" d="M49.2,25.2c-0.4,1.5-0.6,3.1-0.6,4.8c0,7.2,4.2,13.5,10.2,16.5C58.8,46.5,49.2,25.2,49.2,25.2z"/>
	<path class="st0" d="M61.9,47.7c1.6,0.5,3.3,0.7,5.1,0.7c1.8,0,3.5-0.2,5.1-0.7L67,36.4C67,36.4,61.9,47.7,61.9,47.7z"/>
	<path class="st0" d="M75.2,46.5c6-3,10.2-9.3,10.2-16.5c0-1.6-0.2-3.2-0.6-4.7L75.2,46.5z"/>
</g>
</svg>
