<svg width="45" height="46" viewBox="0 0 45 46" xmlns="http://www.w3.org/2000/svg"><g fill="none" fill-rule="evenodd"><path d="M0 .966V30.99L15.011 46V30.989h30.02V.966H0" fill="#009FDE"/><path d="M6.409 14.296v7.057H4.105v-10.73h2.964l3.528 7.395v-7.395h2.304v10.73h-2.98l-3.512-7.057m8.457 7.057v-10.73h6.75v2.143h-4.333v1.965h3.995v2.143h-3.995v2.336h4.333v2.143h-6.75m13.79-5.446l3.254 5.446h-2.529l-2.078-3.544-2.078 3.544h-2.53l3.238-5.446-3.125-5.284h2.53l1.965 3.383 1.965-3.383h2.53l-3.142 5.284M38 12.766v8.587h-2.417v-8.587H32.7v-2.143h8.184v2.143H38" fill="#FFF"/></g></svg>
