<svg xmlns="http://www.w3.org/2000/svg" viewBox="0 0 134 60">
  <g id="Audi">
    <path fill="#ffffff" d="M100 43.7c-3 0-5.9-1-8.1-2.7 2.4-3.1 3.9-6.9 3.9-11.1s-1.4-8.1-3.9-11.1c2.3-1.7 5.1-2.7 8.1-2.7 7.6 0 13.7 6.2 13.7 13.8.1 7.6-6.1 13.8-13.7 13.8m-11-5.6c-1.7-2.3-2.7-5.1-2.7-8.2s1-5.9 2.7-8.2c1.7 2.3 2.7 5.1 2.7 8.2s-1 5.9-2.7 8.2M86.1 41c-2.3 1.7-5.1 2.7-8.1 2.7s-5.8-1-8.1-2.7c2.4-3.1 3.9-6.9 3.9-11.1s-1.4-8.1-3.9-11.1c2.3-1.7 5.1-2.7 8.1-2.7s5.9 1 8.1 2.7c-2.4 3.1-3.9 6.9-3.9 11.1S83.7 38 86.1 41m-19.2-2.9c-1.7-2.3-2.7-5.1-2.7-8.2s1-5.9 2.7-8.2c1.7 2.3 2.7 5.1 2.7 8.2s-1 5.9-2.7 8.2M64 41c-2.3 1.7-5.1 2.7-8.1 2.7s-5.8-1-8.1-2.7c2.4-3.1 3.9-6.9 3.9-11.1s-1.4-8.1-3.9-11.1c2.3-1.7 5.1-2.7 8.1-2.7s5.9 1 8.1 2.7c-2.4 3.1-3.9 6.9-3.9 11.1.1 4.2 1.5 8.1 3.9 11.1m-19.2-2.9c-1.7-2.3-2.7-5.1-2.7-8.2s1-5.9 2.7-8.2c1.7 2.3 2.7 5.1 2.7 8.2s-1 5.9-2.7 8.2M41.9 41c-2.3 1.7-5.1 2.7-8.1 2.7-7.6 0-13.7-6.2-13.7-13.8s6.1-13.8 13.7-13.8c3 0 5.9 1 8.1 2.7-2.4 3.1-3.9 6.9-3.9 11.1.1 4.2 1.5 8.1 3.9 11.1M100 12c-4.2 0-8 1.4-11 3.9-3-2.5-6.9-3.9-11-3.9-4.2 0-8 1.4-11 3.9-3-2.4-6.9-3.9-11-3.9-4.2 0-8 1.4-11 3.9-3.2-2.5-7-3.9-11.2-3.9C24 12 16 20 16 29.9s8 17.9 17.8 17.9c4.2 0 8-1.4 11-3.9 3 2.4 6.9 3.9 11 3.9 4.2 0 8-1.4 11-3.9 3 2.4 6.9 3.9 11 3.9 4.2 0 8-1.4 11-3.9 3 2.4 6.9 3.9 11 3.9 9.8 0 17.8-8 17.8-17.9.3-9.9-7.7-17.9-17.6-17.9" class="st0"/>
  </g>
</svg>