<svg xmlns="http://www.w3.org/2000/svg" viewBox="0 0 134 60">
  <path fill="#ffffff" d="M45.7 34c-.5 0-1 .3-1 .8 0 .3.5.9 1.4.8 1.1 0 2.4-1.1 2.4-1.1s-1.1-.5-2.4-.5c-.1-.1-.2-.1-.4 0m43.7 1.4l-.3-1.1s-7 2.4-20.3 2.3c-9.2-.1-16.3-2.8-16.3-2.8s.3-.5.4-.8c.9-1.9 2-5.7 2-5.7s6.3-1.8 6.3-6.8c0-1.6-1.5-2.6-3-2.7-5.1-.2-6.5 7-6.8 8.3l-.1.1c-1.6-.2-2.4-.5-2.4-.5l-.4 1c1.1.5 2.6.7 2.6.7-.3 1.9-1.8 5.6-1.8 5.6s-1.4-.4-3.1-.4c-2.2 0-3 1.1-3.1 1.7-.1 1.7 2 2.6 3.6 2.6 3 0 4.5-1.6 4.5-1.6s8.3 3.2 17 3.2c11.5 0 21.1-3.1 21.2-3.1m-28.3-8.7c-3.2 0-5.4 2-5.4 4.3 0 2.1 1.8 3 4.2 3 2.7 0 5.3-1.6 5.3-1.6s.2 1.6 2.3 1.6c2.2 0 3.9-1.6 3.9-1.6s.9 1.5 3.1 1.5 3.9-1.8 3.9-1.8.6 1.7 2.8 1.7c1.7 0 2.6-1.1 2.6-1.1s.5 1.1 2 1.1c1.8 0 3.2-1.2 3.2-1.2l-.3-1.1s-.7.5-1.2.5c-.4 0-.6-.3-.6-.7 0-.8 1.2-4.6 1.2-4.6l-3 .1-.1.5s-.5-.8-2-.8c-3 0-4.7 2.6-4.8 4.2 0 .3-.1.4-.1.4-.1.1-1.1 1.3-2.4 1.3-1.1 0-1.2-.9-1.2-1.4 0-.6.5-3 2-3 .8 0 1.2.7 1.2.7l.4-1.4s-.7-.5-2-.5c-2.9 0-4.9 2.2-5 4.2 0 .3-.1.4-.1.4-.1.1-.8 1-1.7 1-.6 0-.7-.5-.7-.7 0-.3 1.2-4.6 1.2-4.6l-3.3.1-1.3 3.8s-1.9 1.3-4.4 1.5c-1.3.1-1.8-.7-1.8-1.2v-.2s.6.1 1 .1c.3 0 4.2-.3 4.2-2.7 0-1.3-1.4-1.8-3.1-1.8m5.7-2.5c0 1 .8 1.2 1.8 1.2.9 0 1.8-.4 1.8-1.4s-1.1-1.2-1.8-1.2c-1 0-1.8.5-1.8 1.4M94 30c0 14.9-12.1 27-27 27S40 44.9 40 30 52.1 3 67 3s27 12.1 27 27m-34.2-9.1c.1-.7-.3-1.5-1.2-1.5-2.4 0-3.4 6.7-3.4 6.7s4.1-1 4.6-5.2m22.3 11.4c1.8 0 2.1-3.6 2.1-3.7 0-.4-.3-.9-1-.9-1.5 0-2 2.7-2 3.4.1.3.1 1.2.9 1.2m-20.9-4.7c.4 0 .8.3.8.7-.1 2.1-2.7 1.8-2.7 1.8s.4-2.5 1.9-2.5" class="st0"/>
</svg>