<svg xmlns="http://www.w3.org/2000/svg" viewBox="0 0 612 612"><g fill="none" fill-rule="evenodd"><path fill="#E2007A" d="M0 0h612v612H0"/><path fill="#FFF" d="M161 511.4l46.8-28.3c9 16 17.2 30 37 30 18.8 0 30.7-7 30.7-36V281H333v196.3c0 59.6-35 86.7-85.8 86.7-46 0-72.7-23.8-86.3-52.6m203-6l47-27c12 20 28 34.7 57 34.7 23 0 39-11 39-28 0-19-16-26-42-38l-15-6c-41.7-18-69-40-69-87 0-43 33-76 84-76 36.3 0 62.6 13 81.5 46L502 353c-9.7-17.4-20.4-24.4-37-24.4-16.7 0-27.4 10.7-27.4 24.6 0 17.4 10.5 24.4 35.2 35l14.4 6c48.7 21 76.2 42.5 76.2 90.6 0 51.8-40.7 80-95.4 80-53.5 0-88-25.4-104.8-58.6"/></g></svg>