<?xml version="1.0" encoding="utf-8"?>
<!-- Generator: Adobe Illustrator 20.1.0, SVG Export Plug-In . SVG Version: 6.00 Build 0)  -->
<svg version="1.1" id="Ebene_1" xmlns="http://www.w3.org/2000/svg" xmlns:xlink="http://www.w3.org/1999/xlink" x="0px" y="0px"
	 viewBox="0 0 134 60" style="enable-background:new 0 0 134 60;" xml:space="preserve">
<style type="text/css">
	.st0{fill:#FFFFFF;}
</style>
<title>Allianz</title>
<desc>Created with Sketch.</desc>
<g>
	<path class="st0" d="M13.2,38.2l1.3-4.5h5.4l1.3,4.5h4.5L21,21.3c-0.3-1.1-0.8-1.5-2-1.5h-6.6v1.5H13c0.8,0,1.2,0.3,1.2,0.9
		c0,0.4,0,0.6-0.4,1.5L9,38.2L13.2,38.2L13.2,38.2z M19.4,30.8h-4.2l2.2-7.3L19.4,30.8z"/>
	<path class="st0" d="M31.4,38.2v-17c0-0.9-0.5-1.3-1.5-1.3h-4.1v1.5h0.3c0.8,0,1.2,0.3,1.2,1.1v15.8"/>
	<path class="st0" d="M38.8,38.2v-17c0-0.9-0.5-1.3-1.5-1.3h-4.1v1.5h0.3c0.8,0,1.2,0.3,1.2,1.1v15.8"/>
	<path class="st0" d="M46.2,38.2V25.8c0-0.9-0.5-1.4-1.3-1.4h-4.1v1.5h0.3c0.8,0,1.1,0.3,1.1,1.1v11.2 M46.4,21.5
		c0-1.2-0.9-1.9-2.4-1.9c-1.6,0-2.4,0.7-2.4,1.9c0,1.2,0.8,2,2.4,2C45.4,23.4,46.4,22.7,46.4,21.5"/>
	<path class="st0" d="M50.2,28.3l0.4-0.2c1.1-0.4,1.7-0.6,2.5-0.7c0.4-0.1,0.9-0.1,1.2-0.1c1.3,0,1.7,0.4,1.7,1.7v0.4
		c-1.8,0.3-2.4,0.4-3.4,0.6c-0.5,0.1-1.1,0.3-1.6,0.5c-1.7,0.7-2.5,2-2.5,4.1c0,2.6,1.1,3.8,3.4,3.8c0.9,0,1.8-0.2,2.5-0.6
		c0.7-0.3,0.9-0.5,1.7-1.2V37c0,0.9,0.4,1.3,1.2,1.3h4v-1.4h-0.1c-0.8,0-1.2-0.4-1.2-1.1V29c0-3.5-1.2-4.7-4.6-4.7
		c-1.2,0-2.2,0.1-3.3,0.4c-1.1,0.3-1.6,0.4-2.8,1.1 M56,31.5v2.8c-0.8,0.8-1.7,1.2-2.5,1.2s-1.2-0.4-1.2-1.4c0-1.1,0.3-1.6,1.2-1.9
		C54.2,31.9,54.8,31.7,56,31.5"/>
	<path class="st0" d="M67.5,38.2v-9.3c0.9-0.9,1.6-1.2,2.5-1.2c0.9,0,1.2,0.4,1.2,1.8v8.7h4.1v-9.4c0-1.9-0.3-2.8-0.8-3.5
		c-0.7-0.7-1.5-1.1-2.6-1.1c-1.6,0-2.8,0.6-4.6,2.2v-0.7c0-0.9-0.4-1.3-1.2-1.3h-4v1.5h0.1c0.8,0,1.2,0.3,1.2,1.1v11.2"/>
	<path class="st0" d="M88,35.6h-6.1l5.8-8.3v-2.8H79c-1.1,0-1.5,0.4-1.5,1.5v2.5H79v-0.3c0-0.8,0.4-1.1,1.2-1.1h3.2l-5.9,8.3v2.9H88
		"/>
	<path class="st0" d="M124.3,29.7c0-8.6-6.3-15-14.9-15c-8.5,0-14.9,6.4-14.9,15s6.5,15,14.9,15C118,44.6,124.3,38.3,124.3,29.7z
		 M121.8,29.7c0,7.3-5.3,12.6-12.4,12.6c-7.1,0-12.4-5.3-12.4-12.6c0-7.3,5.3-12.6,12.4-12.6C116.5,17.1,121.8,22.4,121.8,29.7z
		 M105.3,37.5V24h-2.1c-1.2,0-1.7,0.5-1.7,1.7v11.8L105.3,37.5L105.3,37.5z M113.5,37.5h3.8V25.7c0-1.2-0.5-1.7-1.7-1.7h-2.1V37.5
		L113.5,37.5z M111.4,37.5V21.8c0-1.2-0.5-1.7-1.7-1.7h-3.6v1.7h0.4c0.7,0,0.9,0.3,0.9,1.1v14.6H111.4L111.4,37.5z"/>
</g>
</svg>
