<svg xmlns="http://www.w3.org/2000/svg" viewBox="0 0 102 36" xmlns:xlink="http://www.w3.org/1999/xlink"><defs><path id="0" d="m0 35.815h101.85v-35.815h-101.85z"/><mask id="1" style="fill:#fff"><use xlink:href="#0"/></mask></defs><g style="fill:none;fill-rule:evenodd"><path d="m84.05 31.713c-3.02 0-5.858-1.016-8.127-2.681 2.398-3.051 3.852-6.933 3.852-11.124 0-4.208-1.437-8.07-3.852-11.124 2.271-1.665 5.103-2.681 8.127-2.681 7.587 0 13.727 6.175 13.727 13.805 0 7.63-6.14 13.805-13.726 13.805m-11.04-5.603c-1.69-2.295-2.686-5.127-2.686-8.202 0-3.079.993-5.906 2.686-8.203 1.693 2.297 2.686 5.124 2.686 8.203 0 3.075-.996 5.907-2.686 8.202m-2.913 2.922c-2.278 1.687-5.092 2.677-8.137 2.677-3.044 0-5.84-.991-8.117-2.677 2.398-3.051 3.852-6.933 3.852-11.124 0-4.208-1.437-8.07-3.852-11.124 2.277-1.686 5.073-2.677 8.117-2.677 3.045 0 5.859.99 8.137 2.677-2.415 3.057-3.852 6.917-3.852 11.124 0 4.191 1.454 8.07 3.852 11.124m-19.17-2.922c-1.69-2.295-2.686-5.127-2.686-8.202 0-3.079.993-5.906 2.686-8.203 1.693 2.297 2.686 5.124 2.686 8.203 0 3.075-.997 5.907-2.686 8.202m-2.913 2.922c-2.278 1.687-5.092 2.677-8.137 2.677-3.044 0-5.84-.991-8.117-2.677 2.398-3.051 3.852-6.933 3.852-11.124 0-4.208-1.437-8.07-3.852-11.124 2.277-1.686 5.073-2.677 8.117-2.677 3.045 0 5.859.99 8.137 2.677-2.415 3.057-3.852 6.917-3.852 11.124 0 4.191 1.454 8.07 3.852 11.124m-19.17-2.922c-1.69-2.295-2.686-5.127-2.686-8.202 0-3.079.993-5.906 2.686-8.203 1.693 2.297 2.686 5.124 2.686 8.203 0 3.075-.997 5.907-2.686 8.202m-2.913 2.922c-2.268 1.665-5.103 2.681-8.127 2.681-7.587 0-13.726-6.175-13.726-13.805 0-7.631 6.139-13.805 13.726-13.805 3.02 0 5.856 1.016 8.127 2.681-2.415 3.057-3.852 6.917-3.852 11.124 0 4.191 1.454 8.07 3.852 11.124m58.11-29.03c-4.172 0-8 1.441-11.04 3.858-3.036-2.417-6.868-3.858-11.04-3.858-4.171 0-8 1.442-11.04 3.858-3.035-2.417-6.868-3.858-11.04-3.858-4.171 0-8.01 1.442-11.04 3.858-3.037-2.416-6.868-3.858-11.04-3.858-9.835 0-17.805 8.02-17.805 17.907 0 9.891 7.97 17.907 17.805 17.907 4.172 0 8-1.442 11.04-3.858 3.035 2.416 6.87 3.858 11.04 3.858 4.172 0 8-1.441 11.04-3.858 3.035 2.416 6.87 3.858 11.04 3.858 4.172 0 8-1.441 11.04-3.858 3.035 2.416 6.868 3.858 11.04 3.858 9.835 0 17.805-8.02 17.805-17.907 0-9.892-7.97-17.907-17.805-17.907" style="fill:#fff;mask:url(#1)"/></g></svg>