<?xml version="1.0" encoding="utf-8"?>
<!-- Generator: Adobe Illustrator 20.1.0, SVG Export Plug-In . SVG Version: 6.00 Build 0)  -->
<svg version="1.1" id="Ebene_1" xmlns="http://www.w3.org/2000/svg" xmlns:xlink="http://www.w3.org/1999/xlink" x="0px" y="0px"
	 viewBox="0 0 134 60" style="enable-background:new 0 0 134 60;" xml:space="preserve">
<style type="text/css">
	.st0{fill:none;stroke:#FFFFFF;}
	.st1{fill:#FFFFFF;}
</style>
<title>bmw</title>
<desc>Created with Sketch.</desc>
<g>
	<path class="st0" d="M93.9,30c0-14.9-12-26.9-26.9-26.9C52.1,3.1,40.1,15.1,40.1,30c0,14.9,12.1,26.9,26.9,26.9
		C81.8,56.9,93.9,44.8,93.9,30z"/>
	<path class="st1" d="M53.6,16.5L53,17.2l-1.6,2l0,0l-0.1-0.1l-0.4-0.4l-0.8-0.6l1.5-1.8l0.7-0.9c0.2-0.2,0.4-0.4,0.7-0.4
		c0.3,0,0.6,0.2,0.8,0.5C53.8,15.9,53.8,16.2,53.6,16.5 M49,17.4l-0.9-0.7l-0.4-0.3l0.1-0.2l1.7-2.2c0.2-0.2,0.3-0.4,0.5-0.5
		c0.3-0.1,0.7,0,0.9,0.2c0.2,0.2,0.2,0.5,0.2,0.8c-0.1,0.2-0.2,0.4-0.4,0.6l-0.9,1.1L49,17.4 M55.6,15.2c-0.1-0.7-0.5-1.3-1.2-1.6
		c-0.7-0.3-1.4-0.2-2,0.2L52.3,14c0.1-0.3,0.1-0.7,0-1c-0.1-0.3-0.2-0.6-0.5-0.9c-0.5-0.5-1.2-0.6-1.9-0.4c-0.3,0.1-0.6,0.3-0.8,0.6
		l-0.3,0.4l-1.8,2.2l-1.5,1.9L45.5,17l0.1,0.1l0.6,0.5l2.2,1.8l2.2,1.8l0.6,0.5l0.1,0l0.1-0.1l1.5-1.9l1.8-2.3
		c0.3-0.4,0.7-0.8,0.8-1.3C55.6,15.7,55.6,15.5,55.6,15.2"/>
	<path class="st0" d="M83.4,30c0-9.1-7.3-16.4-16.4-16.4c-9.1,0-16.4,7.4-16.4,16.4c0,9.1,7.3,16.4,16.4,16.4
		C76,46.4,83.4,39,83.4,30z"/>
	<path class="st1" d="M67,14.4c-8.5,0.2-15.4,7.1-15.6,15.6H67C67,30,67,14.4,67,14.4z"/>
	<path class="st1" d="M67,45.6c8.5-0.2,15.4-7.1,15.6-15.6H67V45.6z"/>
	<path class="st1" d="M84.5,12l-1.4-1.3l-4.4,5.8l1.4,1.3l4.9-2.2l-3.2,4.3l0.9,1.6l6.7-3.1l-0.9-1.6l-3.8,1.8l2.7-3.6L86,13.5
		l-4.1,1.9L84.5,12z"/>
	<path class="st1" d="M64.6,7.5l1.7,4.9h1.4l1.7-4.9l0.2,4.9l1.9,0.3l-0.3-7.4l-2.5-0.3L67,10.3l-1.8-5.2l-2.5,0.3l-0.3,7.4l1.9-0.3
		L64.6,7.5z"/>
</g>
</svg>
