<svg viewBox="0 0 56 56" xmlns="http://www.w3.org/2000/svg"><g style="fill:none"><path d="m54.891 27.975c0-14.865-12.05-26.916-26.916-26.916-14.865 0-26.917 12.05-26.917 26.916 0 14.865 12.05 26.915 26.917 26.915 14.865 0 26.916-12.05 26.916-26.915z" style="stroke:#fff"/><path d="m14.597 14.477l-.585.732-1.61 2.01-.021.022-.083-.066-.438-.35-.759-.608 1.46-1.824.711-.888c.17-.212.384-.363.666-.372.338-.011.633.186.776.486.12.291.08.611-.118.858m-4.564.885l-.926-.742-.354-.283.13-.165 1.726-2.156c.152-.189.288-.392.521-.488.318-.131.692-.047.923.207.186.206.248.486.188.753-.069.238-.237.413-.389.602l-.908 1.135-.91 1.137m6.575-2.151c-.1-.702-.523-1.291-1.171-1.586-.65-.295-1.406-.184-1.98.222l-.134.109c.095-.325.124-.652.043-.985-.079-.324-.249-.623-.488-.856-.486-.475-1.224-.631-1.862-.392-.3.112-.567.304-.768.555l-.341.427-1.785 2.23-1.533 1.914-.101.127.07.058.595.476 2.25 1.801 2.227 1.783.568.454.06.041.112-.141 1.529-1.909 1.832-2.288c.315-.394.664-.765.813-1.259.077-.254.089-.519.065-.782" style="fill:#fff"/><path d="m44.39 27.975c0-9.07-7.35-16.416-16.416-16.416-9.07 0-16.417 7.35-16.417 16.416 0 9.07 7.35 16.417 16.417 16.417 9.07 0 16.416-7.35 16.416-16.417z" style="stroke:#fff"/><g style="fill:#fff"><path d="m27.975 12.39c-8.508.221-15.364 7.08-15.584 15.584h15.584v-15.584"/><path d="m27.975 43.56c8.509-.221 15.364-7.08 15.586-15.585h-15.586v15.585"/><path d="m45.49 10.01l-1.368-1.271-4.441 5.835 1.368 1.27 4.871-2.234-3.246 4.264.941 1.613 6.664-3.058-.94-1.613-3.846 1.764 2.734-3.591-1.197-1.495-4.102 1.882z"/><path d="m25.559 5.538l1.732 4.925h1.368l1.732-4.925.183 4.925 1.916.274-.274-7.387-2.462-.274-1.778 5.199-1.779-5.199-2.463.274-.273 7.387 1.916-.274z"/></g></g></svg>