<?xml version="1.0" encoding="utf-8"?>
<!-- Generator: Adobe Illustrator 20.1.0, SVG Export Plug-In . SVG Version: 6.00 Build 0)  -->
<svg version="1.1" id="Ebene_1" xmlns="http://www.w3.org/2000/svg" xmlns:xlink="http://www.w3.org/1999/xlink" x="0px" y="0px"
	 viewBox="0 0 134 60" style="enable-background:new 0 0 134 60;" xml:space="preserve">
<style type="text/css">
	.st0{clip-path:url(#SVGID_2_);fill:#FFFFFF;}
	.st1{clip-path:url(#SVGID_4_);fill:#FFFFFF;}
	.st2{clip-path:url(#SVGID_6_);fill:#FFFFFF;}
	.st3{clip-path:url(#SVGID_8_);fill:#FFFFFF;}
	.st4{clip-path:url(#SVGID_10_);fill:#FFFFFF;}
	.st5{clip-path:url(#SVGID_12_);fill:#FFFFFF;}
	.st6{clip-path:url(#SVGID_14_);fill:#FFFFFF;}
	.st7{clip-path:url(#SVGID_16_);fill:#FFFFFF;}
	.st8{enable-background:new    ;}
	.st9{clip-path:url(#SVGID_18_);}
	.st10{clip-path:url(#SVGID_20_);}
	.st11{clip-path:url(#SVGID_22_);fill:#FFFFFF;}
	.st12{clip-path:url(#SVGID_24_);}
	.st13{clip-path:url(#SVGID_26_);}
	.st14{clip-path:url(#SVGID_28_);fill:#FFFFFF;}
</style>
<g>
	<g>
		<defs>
			<path id="SVGID_1_" d="M41.2,37.6h-4.1l0-0.4c0-4.7,0-9.3,0-14c0-0.3,0.1-0.4,0.3-0.5c2-0.8,4-1,6.1-1c0.8,0,1.5,0.1,2.3,0.2
				c1.1,0.2,2.2,0.6,3,1.4c2.4-1.7,5-2,7.8-1.3c1.9,0.5,3.2,1.7,3.5,3.8c0,0.3,0.1,0.5,0.1,0.8c0,3.6,0,7.1,0,10.7l0,0.3h-4.1v-0.4
				c0-3.5,0-6.9,0-10.4c0-1.2-0.5-2-1.5-2.3c-1.3-0.4-2.5-0.2-3.6,0.5c-0.2,0.1-0.3,0.3-0.3,0.6c0,3.9,0,7.8,0,11.6v0.4h-4.1V26.9
				c0-1.7-0.7-2.5-2.4-2.7c-0.9-0.1-1.8,0-2.7,0.2c-0.3,0.1-0.3,0.2-0.3,0.5c0,4.1,0,8.1,0,12.2V37.6L41.2,37.6z"/>
		</defs>
		<clipPath id="SVGID_2_">
			<use xlink:href="#SVGID_1_"  style="overflow:visible;"/>
		</clipPath>
		<rect x="32.1" y="16.7" class="st0" width="33.1" height="25.9"/>
	</g>
	<g>
		<defs>
			<path id="SVGID_3_" d="M72.7,22.1V15h4.1l0,0.4c0,7,0,14,0,21.1c0,0.3-0.1,0.4-0.3,0.5c-1.5,0.6-3.1,0.9-4.7,1
				c-1.5,0.1-3,0-4.5-0.5c-2.4-0.9-3.9-2.6-4.4-5.1c-0.5-2.3-0.4-4.6,0.7-6.7c1.2-2.3,3.1-3.5,5.7-3.8c1.1-0.1,2.1,0,3.2,0.2
				L72.7,22.1 M72.7,24.2c-0.6,0-1.1-0.1-1.7-0.1c-1.8,0-3.1,0.9-3.7,2.6c-0.7,2-0.7,4.1-0.1,6.2c0.3,1.1,1,2,2.2,2.4
				c1,0.3,1.9,0.3,2.9,0c0.3-0.1,0.4-0.2,0.4-0.5c0-3.4,0-6.7,0-10.1V24.2"/>
		</defs>
		<clipPath id="SVGID_4_">
			<use xlink:href="#SVGID_3_"  style="overflow:visible;"/>
		</clipPath>
		<rect x="57.6" y="10" class="st1" width="24.1" height="32.9"/>
	</g>
	<g>
		<defs>
			<path id="SVGID_5_" d="M27.4,37.9c-2,0-3.8-0.5-5.2-2c-1.1-1.1-1.7-2.5-1.9-4.1c-0.4-2.1-0.2-4.2,0.7-6.2
				c1.1-2.5,3.1-3.7,5.7-3.9c1-0.1,2,0,3,0.3c1.9,0.5,3.3,1.6,4.1,3.4c1.3,3,1.3,6,0,8.9c-1,2.1-2.8,3.2-5.1,3.5
				c-0.2,0-0.3,0.1-0.5,0.1L27.4,37.9 M24.3,29.9c0,0.4,0,0.9,0.1,1.4c0.1,0.9,0.3,1.8,0.8,2.7c1,1.8,3.8,1.8,4.7-0.1
				c0.1-0.3,0.3-0.5,0.3-0.8c0.5-1.4,0.5-2.9,0.4-4.4c-0.1-0.9-0.2-1.9-0.6-2.7c-0.3-0.7-0.8-1.3-1.6-1.6c-1.4-0.5-2.8,0.2-3.5,1.6
				C24.4,27.2,24.3,28.5,24.3,29.9"/>
		</defs>
		<clipPath id="SVGID_6_">
			<use xlink:href="#SVGID_5_"  style="overflow:visible;"/>
		</clipPath>
		<rect x="15.1" y="16.7" class="st2" width="24.6" height="26.2"/>
	</g>
	<g>
		<defs>
			<path id="SVGID_7_" d="M111.3,29.9L101,31.2c-0.1,1.5,1.1,3.3,2.7,3.8c1.2,0.4,2.5,0.3,3.7,0.1c0.8-0.1,1.6-0.4,2.5-0.6l0.9,2.4
				c-0.9,0.4-1.8,0.7-2.7,0.9c-1.8,0.3-3.6,0.4-5.4,0c-3-0.7-5-2.9-5.5-6c-0.3-1.8-0.2-3.5,0.3-5.2c0.9-2.9,3.2-4.6,6.3-4.8
				c1,0,2,0,3,0.3c1.7,0.5,2.9,1.5,3.7,3.1C111.2,26.6,111.3,28.2,111.3,29.9 M107.4,28.4c0-1.1-0.1-2.1-0.7-3c-0.3-0.4-0.6-0.7-1-1
				c-1.3-0.7-3.1-0.3-4.1,0.9c-0.9,1.2-1,2.5-1,4L107.4,28.4"/>
		</defs>
		<clipPath id="SVGID_8_">
			<use xlink:href="#SVGID_7_"  style="overflow:visible;"/>
		</clipPath>
		<rect x="92" y="16.8" class="st3" width="24.3" height="26.2"/>
	</g>
	<g>
		<defs>
			<path id="SVGID_9_" d="M126.1,18.7l3.9-1l0.2,0v5.1h2.8v2.5h-2.8v7.8l0,0.3c0.1,1.4,0.9,2.1,2.3,1.8l0.4-0.1l0,0.3l0,1.6
				c0,0.5,0,0.5-0.5,0.7c-1.2,0.3-2.4,0.3-3.5-0.1c-1.7-0.5-2.8-2-2.8-3.8c0-1.2,0-2.5,0-3.7c0-3.7,0-7.3,0-11L126.1,18.7
				L126.1,18.7z"/>
		</defs>
		<clipPath id="SVGID_10_">
			<use xlink:href="#SVGID_9_"  style="overflow:visible;"/>
		</clipPath>
		<rect x="121.1" y="12.7" class="st4" width="16.9" height="30.2"/>
	</g>
	<g>
		<defs>
			<path id="SVGID_11_" d="M17.8,34.5c0.3,0.8,0.6,1.5,0.9,2.2c0,0.1-0.1,0.2-0.2,0.3c-0.7,0.5-1.4,0.7-2.2,0.8
				c-1.4,0.2-2.7,0.2-4-0.3c-1.7-0.6-3-1.9-3.7-3.6c-1.1-2.7-1.2-5.5,0-8.3c1.1-2.6,3.2-3.9,6.1-4c1.3,0,2.5,0.2,3.6,0.8l0.4,0.3
				l-0.8,2.1c-0.6-0.2-1.2-0.4-1.8-0.5c-1.5-0.2-2.8,0.5-3.5,1.9c-0.6,1.3-0.7,2.6-0.6,4c0,1,0.2,2,0.7,2.9c1.1,2.3,3.4,2.2,4.8,1.4
				L17.8,34.5"/>
		</defs>
		<clipPath id="SVGID_12_">
			<use xlink:href="#SVGID_11_"  style="overflow:visible;"/>
		</clipPath>
		<rect x="2.7" y="16.8" class="st5" width="20.9" height="26.2"/>
	</g>
	<g>
		<defs>
			<path id="SVGID_13_" d="M122.9,34.5c0.3,0.7,0.6,1.5,0.9,2.2c0,0.1-0.1,0.3-0.2,0.3c-0.7,0.5-1.4,0.7-2.2,0.8
				c-1.1,0.2-2.2,0.2-3.3-0.1c-2-0.5-3.4-1.7-4.2-3.5c-1.3-2.9-1.4-5.9,0-8.8c1.1-2.4,3.2-3.6,5.9-3.7c1.1,0,2.2,0.1,3.2,0.6
				c0.3,0.1,0.6,0.3,0.9,0.5l-0.8,2.1c-0.6-0.2-1.1-0.4-1.7-0.5c-1.7-0.3-3,0.4-3.6,2c-0.8,2.2-0.9,4.5,0.1,6.6
				c0.9,2.1,3,2.7,4.9,1.5L122.9,34.5"/>
		</defs>
		<clipPath id="SVGID_14_">
			<use xlink:href="#SVGID_13_"  style="overflow:visible;"/>
		</clipPath>
		<rect x="107.9" y="16.8" class="st6" width="20.9" height="26.2"/>
	</g>
	<g>
		<defs>
			<path id="SVGID_15_" d="M92.5,37.6h-4.1l0-0.4c0-4.7,0-9.3,0-14c0-0.3,0.1-0.4,0.4-0.5c1.3-0.5,2.7-0.8,4.1-0.9
				c1.3-0.1,2.6-0.1,3.9,0.1l0.2,0l-1,2.5c-0.8-0.2-1.5-0.3-2.3-0.2c-1.1,0.2-1.2,0.2-1.2,1.3L92.5,37.6"/>
		</defs>
		<clipPath id="SVGID_16_">
			<use xlink:href="#SVGID_15_"  style="overflow:visible;"/>
		</clipPath>
		<rect x="83.4" y="16.8" class="st7" width="18.5" height="25.8"/>
	</g>
	<g>
		<g class="st8">
			<g>
				<defs>
					<rect id="SVGID_17_" x="80" y="22" width="5" height="16"/>
				</defs>
				<clipPath id="SVGID_18_">
					<use xlink:href="#SVGID_17_"  style="overflow:visible;"/>
				</clipPath>
				<g class="st9">
					<defs>
						<rect id="SVGID_19_" x="80.5" y="22.1" width="4.1" height="15.5"/>
					</defs>
					<clipPath id="SVGID_20_">
						<use xlink:href="#SVGID_19_"  style="overflow:visible;"/>
					</clipPath>
					<g class="st10">
						<defs>
							<rect id="SVGID_21_" x="1" y="15" width="132" height="23"/>
						</defs>
						<clipPath id="SVGID_22_">
							<use xlink:href="#SVGID_21_"  style="overflow:visible;"/>
						</clipPath>
						<rect x="75.5" y="17.1" class="st11" width="14.1" height="25.5"/>
					</g>
				</g>
			</g>
		</g>
	</g>
	<g>
		<g class="st8">
			<g>
				<defs>
					<rect id="SVGID_23_" x="1" y="33" width="5" height="5"/>
				</defs>
				<clipPath id="SVGID_24_">
					<use xlink:href="#SVGID_23_"  style="overflow:visible;"/>
				</clipPath>
				<g class="st12">
					<defs>
						<path id="SVGID_25_" d="M3.4,33.3c1.3,0,2.4,1,2.4,2.3c0,1.2-1.1,2.3-2.4,2.2c-1.3,0-2.4-1-2.4-2.3C1,34.3,2.1,33.3,3.4,33.3"
							/>
					</defs>
					<clipPath id="SVGID_26_">
						<use xlink:href="#SVGID_25_"  style="overflow:visible;"/>
					</clipPath>
					<g class="st13">
						<defs>
							<rect id="SVGID_27_" x="1" y="15" width="132" height="23"/>
						</defs>
						<clipPath id="SVGID_28_">
							<use xlink:href="#SVGID_27_"  style="overflow:visible;"/>
						</clipPath>
						<rect x="-4" y="28.3" class="st14" width="14.8" height="14.6"/>
					</g>
				</g>
			</g>
		</g>
	</g>
</g>
</svg>
