<svg xmlns="http://www.w3.org/2000/svg" viewBox="0 0 132 23" xmlns:xlink="http://www.w3.org/1999/xlink"><defs><path id="0" d="M0 22.947318h131.952917V0H0z"/><mask id="1" style="fill:#fff"><use xlink:href="#0"/></mask></defs><g style="fill:#fff;fill-rule:evenodd"><path d="m40.23 22.571h-4.077c-.006-.127-.016-.25-.017-.373-.001-4.664.002-9.329-.007-13.993 0-.263.075-.388.324-.483 1.981-.763 4.04-1.017 6.147-.984.755.011 1.517.069 2.262.189 1.136.183 2.164.644 3 1.427 2.403-1.671 5.03-2.01 7.772-1.315 1.932.488 3.185 1.748 3.535 3.787.043.252.051.513.051.77.003 3.563.002 7.125.002 10.688 0 .081-.008.162-.013.273h-4.081v-.418c0-3.469.002-6.938-.001-10.407-.001-1.203-.514-2.034-1.525-2.345-1.26-.387-2.465-.239-3.572.527-.212.147-.295.311-.294.578.01 3.879.007 7.758.007 11.638v.435h-4.122v-.42c0-3.41 0-6.821 0-10.231 0-1.672-.728-2.513-2.386-2.688-.898-.095-1.793-.027-2.669.235-.255.076-.343.186-.342.459.009 4.067.006 8.133.006 12.2v.455m31.447-13.399c-.581-.044-1.125-.117-1.669-.121-1.826-.016-3.137.89-3.725 2.618-.697 2.047-.67 4.124-.063 6.183.334 1.132 1.026 1.999 2.189 2.377.959.312 1.929.269 2.898.012.274-.073.379-.203.378-.511-.014-3.374-.008-6.748-.008-10.122v-.436m.002-2.082v-7.089h4.067c.006.132.016.257.016.381.001 7.02-.001 14.04.007 21.05 0 .273-.072.41-.332.523-1.493.644-3.067.875-4.67.952-1.51.072-3.01.021-4.459-.493-2.418-.859-3.867-2.585-4.393-5.078-.484-2.293-.368-4.556.696-6.682 1.164-2.327 3.112-3.534 5.672-3.784 1.066-.104 2.12-.016 3.166.199.065.013.134.01.231.016m-48.42 7.783c.021.377.031.881.082 1.382.095.937.29 1.845.751 2.684.982 1.787 3.767 1.777 4.705-.057.133-.259.258-.527.346-.804.456-1.443.475-2.928.384-4.42-.057-.939-.196-1.864-.583-2.733-.326-.734-.808-1.313-1.593-1.582-1.448-.497-2.839.151-3.466 1.614-.519 1.211-.584 2.497-.626 3.916m3.165 8.04c-1.978.014-3.758-.522-5.171-1.983-1.103-1.14-1.685-2.544-1.94-4.09-.351-2.123-.242-4.212.656-6.195 1.11-2.45 3.08-3.681 5.71-3.894 1-.081 2-.02 2.984.253 1.875.523 3.293 1.64 4.089 3.411 1.328 2.955 1.338 5.967-.048 8.902-.994 2.106-2.773 3.22-5.059 3.534-.173.024-.347.051-.521.059-.233.01-.467.003-.7.003m80.01-9.576c.01-1.07-.085-2.099-.678-2.983-.256-.382-.636-.733-1.038-.953-1.337-.731-3.147-.309-4.055.913-.87 1.171-.983 2.537-.962 3.956 2.253-.312 4.468-.619 6.733-.933m3.891 1.5c-3.45.457-6.88.911-10.305 1.364-.149 1.525 1.114 3.298 2.677 3.775 1.216.371 2.453.293 3.676.082.821-.142 1.623-.395 2.487-.612.28.74.582 1.542.892 2.362-.877.426-1.768.691-2.688.853-1.795.318-3.597.431-5.391.02-3.01-.69-4.992-2.856-5.474-5.953-.274-1.76-.228-3.505.32-5.213.924-2.881 3.243-4.645 6.254-4.775 1.01-.044 2.01.002 2.985.28 1.705.484 2.948 1.518 3.71 3.125.698 1.474.861 3.047.857 4.692m14.728-11.167c1.309-.336 2.594-.666 3.879-.994.054-.014.114-.008.217-.014v5.065h2.767v2.498h-2.767v.432c0 2.472 0 4.945 0 7.417 0 .094-.001.188.004.281.075 1.418.925 2.09 2.321 1.834.137-.025.273-.054.439-.087.012.098.031.184.032.271.003.539.002 1.078.002 1.617 0 .539.003.55-.51.677-1.18.293-2.362.287-3.524-.073-1.732-.537-2.809-1.97-2.848-3.796-.026-1.23-.011-2.461-.011-3.691-.001-3.667 0-7.335 0-11v-.435zm-108.31 15.774c.304.771.601 1.506.873 2.249.025.069-.078.229-.162.288-.663.467-1.418.7-2.209.823-1.355.21-2.699.211-4-.274-1.739-.646-2.968-1.863-3.661-3.562-1.12-2.742-1.176-5.544.001-8.27 1.129-2.613 3.199-3.941 6.06-3.971 1.254-.013 2.463.187 3.571.82.14.08.271.177.429.281-.288.726-.57 1.438-.821 2.073-.612-.18-1.176-.41-1.763-.505-1.543-.25-2.816.469-3.467 1.898-.579 1.271-.652 2.623-.601 3.99.037 1.016.23 1.997.673 2.92 1.109 2.305 3.387 2.219 4.798 1.418.081-.046.157-.099.285-.18m105.19.008c.295.749.588 1.472.855 2.204.03.082-.063.264-.15.326-.661.469-1.417.7-2.208.823-1.104.172-2.208.206-3.302-.064-1.963-.484-3.405-1.665-4.227-3.49-1.316-2.925-1.368-5.927.001-8.838 1.141-2.426 3.162-3.642 5.853-3.685 1.096-.018 2.165.127 3.174.582.305.138.59.32.907.495-.297.749-.58 1.462-.836 2.106-.584-.178-1.122-.414-1.684-.501-1.68-.26-2.974.43-3.582 2.01-.844 2.204-.864 4.46.065 6.642.879 2.064 3.01 2.672 4.931 1.508.059-.035.117-.07.204-.122m-30.429 3.112h-4.075c-.006-.133-.016-.247-.016-.361-.001-4.665.002-9.329-.008-13.994-.001-.287.096-.4.351-.502 1.305-.517 2.667-.757 4.053-.889 1.306-.124 2.61-.116 3.911.075.056.008.11.023.218.046-.336.851-.663 1.681-.997 2.527-.758-.206-1.498-.315-2.264-.209-1.139.158-1.172.178-1.172 1.316v11.989"/><path d="m79.45 22.557h4.055v-15.483h-4.055m-77.01 11.185c1.343.009 2.416 1.045 2.401 2.318-.015 1.241-1.125 2.259-2.445 2.245-1.338-.015-2.397-1.027-2.392-2.29.004-1.279 1.08-2.282 2.437-2.274" style="mask:url(#1)"/></g></svg>