<svg xmlns="http://www.w3.org/2000/svg" viewBox="0 0 89 24" xmlns:xlink="http://www.w3.org/1999/xlink"><defs><path id="0" d="m88.93 11.981v-11.981h-88.93v23.962h88.93v-11.981"/><mask id="1" style="fill:#fff"><use xlink:href="#0"/></mask></defs><g style="fill:none;fill-rule:evenodd"><path d="m25.774 5.472h4.888s3.093.021 3.111 2.645c.022 3.191-3.111 3.112-3.111 3.112h-4.888v-5.757m50.895-.726c4.193 0 5.516 3.21 5.516 7.157 0 3.948-1.323 7.131-5.516 7.131-4.22 0-5.516-3.183-5.516-7.131 0-3.947 1.295-7.157 5.516-7.157m-57.12-4.123v22.924h6.221v-8.376h2.222l5.751 8.376h7.11l-6.221-8.843c4.955-1.037 4.914-6.587 4.914-6.587 0-7.814-8.287-7.494-8.287-7.494h-11.711m-19.553 0v22.924h17.775v-4.823h-11.554v-4.409h10.665v-4.434h-10.665v-4.409h11.554v-4.849h-17.775m52.44-.467c-.283.005-.444.026-.444.026-12.149 0-11.554 11.903-11.554 11.903 0 11.06 9.466 11.877 12.286 11.877 3.177 0 5.382-.295 10.404-.83.015-.002 0-12.37 0-12.37h-10.247v4.408h4v3.994c-7.925 1.887-9.803-2.243-9.803-6.95 0-7.08 4.05-7.183 5.803-7.183 3.593 0 4 2.645 4 2.645h6.247c-.728-7.246-8.712-7.556-10.691-7.52m24.23-.156c-6.77 0-12.26 3.52-12.26 11.903 0 8.367 5.49 11.903 12.26 11.903 6.77 0 12.26-3.536 12.26-11.903 0-8.383-5.489-11.903-12.26-11.903" style="fill:#fff;mask:url(#1)"/></g></svg>