<svg xmlns="http://www.w3.org/2000/svg" viewBox="0 0 356 263">
	<g fill="none" fill-rule="evenodd">
		<path fill="#F7F7F7" d="M69.623 40.694h65.617v182.2H69.623zm71.377 0h106.397v182.2H141zm111.89 0h82.046v182.2H252.89z"/>
		<path fill="#000" stroke="#000" stroke-width="2" d="M23.916 227.022V31m0 0l-3 10.8h6l-3-10.8zm4.55 203.355H336m0 0l-10.8-3v6l10.8-3z" stroke-linecap="square"/>
		<path fill="#000" d="M12.125.22H10.1v6.87c0 1.08-.555 1.906-1.86 1.906-1.305 0-1.86-.825-1.86-1.935V.22H4.355V7c0 2.28 1.56 3.946 3.885 3.946 2.325 0 3.885-1.665 3.885-3.945V.22zm2.856 6.84c.17 1.666.95 3.886 4.16 3.886 2.36 0 3.86-1.38 3.86-3.33 0-2.46-1.87-2.985-3.37-3.465-1.11-.33-2.01-.61-2.01-1.26 0-.48.51-.94 1.44-.94 1.14 0 1.67.77 1.83 1.35l1.88-.4C22.29.95 20.79 0 19.05 0c-2.28 0-3.466 1.41-3.466 2.896 0 1.95 1.53 2.64 3.466 3.136 1.364.36 1.92.78 1.92 1.59 0 .974-.87 1.38-1.83 1.38-1.86 0-2.16-1.366-2.28-2.28l-1.876.344zm17.74 1.71H28.1V6.177h4.2v-1.95h-4.2V2.17h4.62V.22h-6.645v10.5h6.645V8.77zm10.58 1.95l-2.11-4.484c1.16-.645 1.67-1.5 1.67-2.835 0-1.83-1.47-3.18-3.19-3.18h-3.78v10.5h2.02V6.6h1.2l1.95 4.125h2.25zm-3.64-6.074H37.9V2.17h1.754c.57 0 1.17.45 1.17 1.26 0 1.05-.825 1.216-1.17 1.216zM9.33 260.448H6.553v-8.55H4.678l-2.415 1.5v2.25l2.265-1.425v6.225H1.603v1.95h7.725v-1.95zm5.69-1.695c1.246 0 2.086-.645 2.086-.645-.015 1.83-.69 2.565-1.8 2.565s-1.56-.45-1.74-1.635l-1.89.315c.405 2.415 1.71 3.27 3.63 3.27 2.31 0 3.81-1.695 3.81-5.415 0-3.915-1.56-5.535-4.02-5.535-1.995 0-3.585 1.47-3.585 3.555 0 2.43 1.93 3.525 3.51 3.525zm.196-5.13c.465 0 1.635.315 1.635 1.605s-1.07 1.605-1.58 1.605-1.74-.255-1.74-1.605 1.22-1.605 1.68-1.605zm13.76 1.155c0-1.86-1.574-3.105-3.284-3.105-1.89 0-3.255 1.395-3.255 3.105 0 1.2.66 1.935.66 1.935s-1.125.87-1.125 2.535c0 2.115 1.815 3.375 3.72 3.375 2.07 0 3.72-1.365 3.72-3.375 0-1.665-1.11-2.535-1.11-2.535s.675-.735.675-1.935zm-3.284-1.155c.765 0 1.26.495 1.26 1.155 0 .93-.78 1.185-1.26 1.185-.45 0-1.23-.255-1.23-1.185 0-.69.6-1.155 1.23-1.155zm0 7.05c-1.08 0-1.695-.6-1.695-1.455 0-.945.645-1.56 1.695-1.56 1.14 0 1.695.705 1.695 1.56 0 .855-.6 1.455-1.695 1.455zm12.32-3.69c0 2.895-.554 3.69-1.86 3.69-1.304 0-1.86-.81-1.86-3.69 0-2.49.556-3.36 1.86-3.36 1.306 0 1.86.885 1.86 3.36zm-1.86 5.64c2.326 0 3.886-1.62 3.886-5.64 0-3.615-1.56-5.31-3.885-5.31-2.32 0-3.88 1.695-3.88 5.31 0 4.02 1.56 5.64 3.887 5.64zm27.1-2.175h-2.776v-8.55H58.6l-2.416 1.5v2.25l2.265-1.425v6.225h-2.93v1.95h7.72v-1.95zm5.69-1.695c1.245 0 2.085-.645 2.085-.645-.015 1.83-.69 2.565-1.8 2.565s-1.56-.45-1.74-1.635l-1.89.315c.405 2.415 1.71 3.27 3.63 3.27 2.31 0 3.81-1.695 3.81-5.415 0-3.915-1.56-5.535-4.02-5.535-1.995 0-3.585 1.47-3.585 3.555 0 2.43 1.935 3.525 3.51 3.525zm.195-5.13c.465 0 1.635.315 1.635 1.605s-1.065 1.605-1.575 1.605-1.74-.255-1.74-1.605 1.215-1.605 1.68-1.605zm10.19 5.13c1.246 0 2.086-.645 2.086-.645-.01 1.83-.69 2.565-1.8 2.565s-1.56-.45-1.74-1.635l-1.89.315c.41 2.415 1.71 3.27 3.63 3.27 2.31 0 3.81-1.695 3.81-5.415 0-3.915-1.56-5.535-4.02-5.535-1.99 0-3.58 1.47-3.58 3.555 0 2.43 1.937 3.525 3.51 3.525zm.196-5.13c.47 0 1.64.315 1.64 1.605s-1.063 1.605-1.573 1.605-1.74-.255-1.74-1.605 1.216-1.605 1.68-1.605zm10.858 3.69c.54 0 1.76.3 1.76 1.755 0 1.5-1.33 1.605-1.75 1.605-1.29 0-1.72-.66-1.9-1.635l-1.89.45c.3 1.83 1.65 3.135 3.8 3.135 2.22 0 3.78-1.305 3.78-3.555s-1.56-3.54-3.63-3.54c-.703 0-1.243.18-1.243.18l.27-1.86h3.75v-1.95H87.8l-.886 5.64 1.813.57c.39-.675 1.05-.795 1.65-.795zm39.72-3.69c1.07 0 1.53.585 1.53 1.455 0 .915-1.15 1.35-2.25 1.725-2.08.72-3.01 1.62-3.01 3.615v1.98h7.38v-1.95h-5.22c0-1.065.02-1.5 1.95-2.16 1.92-.645 3.18-1.515 3.18-3.21 0-2.115-1.62-3.405-3.55-3.405-2.08 0-3.57 1.515-3.67 3.585l1.88.33c.106-1.155.57-1.965 1.8-1.965zm12.32 3.36c0 2.895-.55 3.69-1.86 3.69-1.3 0-1.86-.81-1.86-3.69 0-2.49.56-3.36 1.86-3.36 1.31 0 1.86.885 1.86 3.36zm-1.86 5.64c2.33 0 3.89-1.62 3.89-5.64 0-3.615-1.56-5.31-3.88-5.31s-3.88 1.695-3.88 5.31c0 4.02 1.56 5.64 3.89 5.64zm12.64-5.64c0 2.895-.55 3.69-1.86 3.69-1.3 0-1.86-.81-1.86-3.69 0-2.49.56-3.36 1.86-3.36 1.31 0 1.86.885 1.86 3.36zm-1.86 5.64c2.33 0 3.89-1.62 3.89-5.64 0-3.615-1.56-5.31-3.88-5.31s-3.88 1.695-3.88 5.31c0 4.02 1.56 5.64 3.888 5.64zm12.64-5.64c0 2.895-.55 3.69-1.86 3.69-1.3 0-1.86-.81-1.86-3.69 0-2.49.56-3.36 1.86-3.36 1.31 0 1.86.885 1.86 3.36zm-1.86 5.64c2.33 0 3.89-1.62 3.89-5.64 0-3.615-1.56-5.31-3.88-5.31-2.324 0-3.884 1.695-3.884 5.31 0 4.02 1.56 5.64 3.886 5.64zm90.19-9c1.07 0 1.53.585 1.53 1.455 0 .915-1.15 1.35-2.25 1.725-2.08.72-3.01 1.62-3.01 3.615v1.98h7.38v-1.95h-5.22c0-1.065.018-1.5 1.95-2.16 1.92-.645 3.18-1.515 3.18-3.21 0-2.115-1.62-3.405-3.552-3.405-2.09 0-3.57 1.515-3.68 3.585l1.876.33c.104-1.155.57-1.965 1.8-1.965zm12.32 3.36c0 2.895-.55 3.69-1.86 3.69-1.3 0-1.86-.81-1.86-3.69 0-2.49.56-3.36 1.86-3.36 1.31 0 1.86.885 1.86 3.36zm-1.86 5.64c2.33 0 3.89-1.62 3.89-5.64 0-3.615-1.56-5.31-3.88-5.31s-3.884 1.695-3.884 5.31c0 4.02 1.56 5.64 3.886 5.64zm14.24-2.175h-2.77v-8.55h-1.87l-2.41 1.5v2.25l2.266-1.425v6.225H269.3v1.95h7.7v-1.95zm6.36-3.135c.54 0 1.758.3 1.758 1.755 0 1.5-1.334 1.605-1.754 1.605-1.29 0-1.724-.66-1.904-1.635l-1.89.45c.3 1.83 1.65 3.135 3.796 3.135 2.22 0 3.78-1.305 3.78-3.555s-1.56-3.54-3.63-3.54c-.706 0-1.246.18-1.246.18l.27-1.86h3.75v-1.95h-5.507l-.882 5.64 1.82.57c.39-.675 1.05-.795 1.65-.795zm36.93-3.69c1.066 0 1.53.585 1.53 1.455 0 .915-1.154 1.35-2.25 1.725-2.084.72-3.014 1.62-3.014 3.615v1.98h7.38v-1.95h-5.22c0-1.065.015-1.5 1.95-2.16 1.92-.645 3.18-1.515 3.18-3.21 0-2.115-1.62-3.405-3.555-3.405-2.09 0-3.57 1.515-3.68 3.585l1.878.33c.107-1.155.57-1.965 1.8-1.965zm12.32 3.36c0 2.895-.553 3.69-1.86 3.69-1.303 0-1.86-.81-1.86-3.69 0-2.49.557-3.36 1.86-3.36 1.307 0 1.86.885 1.86 3.36zm-1.86 5.64c2.327 0 3.887-1.62 3.887-5.64 0-3.615-1.56-5.31-3.883-5.31s-3.882 1.695-3.882 5.31c0 4.02 1.56 5.64 3.888 5.64zm10.778-9c1.066 0 1.53.585 1.53 1.455 0 .915-1.154 1.35-2.25 1.725-2.084.72-3.014 1.62-3.014 3.615v1.98h7.38v-1.95h-5.22c0-1.065.02-1.5 1.95-2.16 1.92-.645 3.18-1.515 3.18-3.21 0-2.115-1.62-3.405-3.55-3.405-2.086 0-3.57 1.515-3.676 3.585l1.874.33c.105-1.155.57-1.965 1.8-1.965zm12.32 3.36c0 2.895-.553 3.69-1.86 3.69-1.303 0-1.86-.81-1.86-3.69 0-2.49.557-3.36 1.86-3.36 1.307 0 1.86.885 1.86 3.36zm-1.86 5.64c2.327 0 3.887-1.62 3.887-5.64 0-3.615-1.56-5.31-3.886-5.31s-3.887 1.695-3.887 5.31c0 4.02 1.56 5.64 3.886 5.64zM61.16 207.048c-1.546 0-2.31-.945-2.31-3.9 0-2.97.764-3.9 2.31-3.9 1.574 0 2.324.93 2.324 3.9 0 2.955-.75 3.9-2.325 3.9zm0 1.575c2.28 0 3.974-1.62 3.974-5.475 0-3.84-1.695-5.475-3.975-5.475-2.25 0-3.96 1.635-3.96 5.475 0 3.855 1.71 5.475 3.96 5.475zm7.58-.225h1.575v-6.45h2.25v-1.5h-2.25v-.555c0-.165.015-.72.555-.72.495 0 .99.405.99.405l.84-1.17c-.465-.375-1.095-.735-1.815-.735-1.245 0-2.145.66-2.145 2.13v.645h-1.2v1.5h1.2v6.45zm6.966 0h1.575v-6.45h3.59v6.45h1.58v-7.95h-5.16v-.555c0-.165.02-.72.56-.72.5 0 .99.405.99.405l.84-1.17c-.61-.48-1.18-.735-1.81-.735-1.24 0-2.14.66-2.14 2.13v.645h-1.2v1.5h1.2v6.45zm5.1-8.895h1.725v-1.605h-1.72v1.605zm10.086 6.03c-.255 1.11-.84 1.59-1.875 1.59-1.32 0-2.055-.795-2.055-2.715 0-1.905.735-2.685 2.055-2.685 1.035 0 1.62.48 1.875 1.59l1.56-.27c-.495-1.92-1.755-2.82-3.435-2.82-2.055 0-3.63 1.47-3.63 4.185 0 2.745 1.575 4.215 3.63 4.215 1.68 0 2.94-.9 3.435-2.82l-1.56-.27zm9.007.24c-.3.96-.84 1.35-1.76 1.35-1.47 0-1.86-.945-1.95-2.25h5.44v-.435c0-2.745-1.43-4.215-3.53-4.215-2.06 0-3.48 1.47-3.48 4.185 0 2.745 1.47 4.215 3.51 4.215 1.62 0 2.76-.84 3.24-2.415l-1.49-.435zm-3.66-2.22c.12-.84.43-1.83 1.87-1.83 1.47 0 1.78.99 1.9 1.83h-3.78zm84.84 4.845h1.69l2.32-7.545 2.23 7.545h1.69l1.59-10.5h-1.68l-1.04 7.755-2.18-7.755h-1.26l-2.266 7.755-1.038-7.755h-1.68l1.59 10.5zm16.61-2.625c-.3.96-.84 1.35-1.76 1.35-1.47 0-1.86-.945-1.95-2.25h5.44v-.435c0-2.745-1.43-4.215-3.53-4.215-2.06 0-3.48 1.47-3.48 4.185 0 2.745 1.47 4.215 3.51 4.215 1.62 0 2.76-.84 3.24-2.415l-1.49-.435zm-3.66-2.22c.12-.84.43-1.83 1.87-1.83 1.47 0 1.78.99 1.9 1.83h-3.78zm8.25 4.845h1.57v-.54c.55.465 1.29.765 2.13.765 2.05 0 3.48-1.455 3.48-4.215 0-2.715-1.43-4.185-3.48-4.185-.86 0-1.58.27-2.13.75v-3.075h-1.58v10.5zm1.57-4.755c0-1.125.61-1.92 2.05-1.92 1.32 0 1.98.78 1.98 2.685s-.66 2.715-1.98 2.715c-1.41 0-2.06-.765-2.06-1.845v-1.635z"/>
		<path fill="#FF0052" d="M269.78 208.398h1.65v-7.59l2.624 7.59h1.215l2.64-7.59v7.59h1.65v-10.5h-2.1l-2.79 8.07-2.79-8.07h-2.1v10.5zm16.34-1.275c-1.32 0-2.055-.81-2.055-2.715 0-1.905.735-2.685 2.055-2.685 1.35 0 2.1.78 2.1 2.685 0 1.875-.75 2.715-2.1 2.715zm0 1.5c2.1 0 3.675-1.455 3.675-4.185 0-2.745-1.575-4.215-3.675-4.215-2.055 0-3.63 1.47-3.63 4.185 0 2.76 1.575 4.215 3.63 4.215zm6.53-.225h1.576v-.54c.555.465 1.29.765 2.13.765 2.055 0 3.48-1.455 3.48-4.215 0-2.715-1.425-4.185-3.48-4.185-.855 0-1.575.27-2.13.75v-3.075h-1.575v10.5zm1.576-4.755c0-1.125.615-1.92 2.055-1.92 1.32 0 1.98.78 1.98 2.685s-.66 2.715-1.98 2.715c-1.41 0-2.05-.765-2.05-1.845v-1.635zm8.54 4.755h1.576v-7.95h-1.575v7.95zm-.074-8.895h1.725v-1.605h-1.725v1.605zm5.18 8.895h1.576v-10.5h-1.575v10.5zm9.697-2.625c-.3.96-.84 1.35-1.76 1.35-1.47 0-1.86-.945-1.95-2.25h5.44v-.435c0-2.745-1.43-4.215-3.53-4.215-2.06 0-3.48 1.47-3.48 4.185 0 2.745 1.47 4.215 3.51 4.215 1.62 0 2.76-.84 3.24-2.415l-1.49-.435zm-3.66-2.22c.12-.84.43-1.83 1.87-1.83 1.47 0 1.78.99 1.9 1.83h-3.78z"/>
		<g stroke-width="4" stroke-linecap="round">
			<path stroke="#000" d="M2 187.425s16.17 1.492 35.73-.673c19.6-2.17 42.603-8.01 56.147-22.704 27.06-29.358 82.102-29.358 82.102-29.358" stroke-linejoin="bevel"/>
			<path stroke="#000" d="M136.836 158.345s45.94 7.382 65.12-28.852c19.18-36.234 58.192-36.234 58.192-36.234"/>
			<path stroke="#FF0354" d="M237 115.953s29.317 11.56 41.557-45.18c12.24-56.74 37.135-56.74 37.135-56.74"/>
		</g>
		<path fill="#000" d="M106.705 42.002h-2.775v-8.55h-1.875l-2.415 1.5v2.25l2.265-1.425v6.225H98.98v1.95h7.725v-1.95zm-27.146 20h-4.62v-2.595h4.2v-1.95h-4.2v-2.055h4.62v-1.95h-6.65v10.5h6.64v-1.95zm10.4-8.55h-2.24l-1.77 3.315-1.74-3.315H81.9l2.895 4.995-3.21 5.505h2.234l2.1-3.885L88 63.952h2.31l-3.24-5.565 2.88-4.935zm2.84 0v10.5h2.02v-3.9h1.75c1.92 0 3.28-1.455 3.28-3.3 0-1.875-1.5-3.3-3.29-3.3H92.8zm3.79 4.65h-1.77v-2.7h1.77c.61 0 1.24.465 1.24 1.35 0 .72-.53 1.35-1.25 1.35zm12.54 3.9h-4.62v-2.595h4.2v-1.95h-4.2v-2.055h4.62v-1.95h-6.65v10.5h6.64v-1.95zm10.58 1.95l-2.12-4.485c1.15-.645 1.66-1.5 1.66-2.835 0-1.83-1.47-3.18-3.2-3.18h-3.78v10.5h2.026v-4.125h1.2l1.95 4.125h2.25zm-3.65-6.075h-1.76v-2.475h1.75c.57 0 1.17.45 1.17 1.26 0 1.05-.825 1.215-1.17 1.215zm8.82-4.425h-2.03v10.5h2.025v-10.5zm3.15 5.58v1.95h4.933v-1.95h-4.936zm-61.12 14.42l-2.7 7.86-2.67-7.86h-2.37v10.5h2.03v-6.825l2.34 6.825h1.337l2.37-6.855v6.855h2.03v-10.5h-2.35zm12.606 8.55H74.9v-2.595h4.2v-1.95h-4.2v-2.055h4.62v-1.95H72.9v10.5h6.644v-1.95zm8.75-8.55v6.735l-3.72-6.735H82.7v10.5h2.025v-6.735l3.765 6.735h1.845v-10.5h-2.04zm12.922 0h-8.17v1.95h3.07v8.55h2.023v-8.55h3.08v-1.95zm7.43 10.5h2.16l-3.63-10.5h-1.79l-3.646 10.5h2.086l.617-1.83H108l.618 1.83zm-2.4-7.38l1.14 3.6h-2.27l1.124-3.6zm13.26-3.12h-8.176v1.95h3.076v8.55h2.027v-8.55h3.073v-1.95zm4.73 0h-2.02v10.5h2.023v-10.5zm9.05 5.085c0 2.895-.556 3.69-1.86 3.69-1.306 0-1.86-.81-1.86-3.69 0-2.49.554-3.36 1.86-3.36 1.304 0 1.86.885 1.86 3.36zm-1.86 5.64c2.324 0 3.884-1.62 3.884-5.64 0-3.615-1.56-5.31-3.885-5.31s-3.884 1.695-3.884 5.31c0 4.02 1.56 5.64 3.887 5.64zm12.79-10.725v6.735l-3.72-6.735h-1.87v10.5h2.025v-6.735l3.77 6.735h1.845v-10.5h-2.04zm49.96-38.007c1.062 0 1.53.585 1.53 1.455 0 .915-1.158 1.35-2.25 1.725-2.088.72-3.018 1.62-3.018 3.615v1.98h7.38v-1.95h-5.22c0-1.065.02-1.5 1.95-2.16 1.92-.645 3.18-1.515 3.18-3.21 0-2.115-1.62-3.405-3.55-3.405-2.085 0-3.57 1.515-3.675 3.585l1.88.33c.107-1.155.57-1.965 1.8-1.965zM162.18 62.27h-1.694v-6.6h1.785c1.31 0 1.77.66 1.77 3.135 0 2.895-.55 3.465-1.86 3.465zm0 1.95c2.326 0 3.886-1.395 3.886-5.415 0-3.63-1.47-5.085-3.795-5.085h-3.81v10.5h3.72zm9.142-10.5h-2.025v10.5h2.025v-10.5zm7.206 10.725c2.325 0 3.885-1.665 3.885-3.945v-1.77h-4.35v1.875h2.325c-.015 1.08-.57 1.89-1.86 1.89-1.305 0-1.875-.81-1.875-3.69 0-2.49.57-3.36 1.875-3.36 1.32 0 1.77.99 1.875 2.145l1.89-.255c-.15-2.16-1.65-3.84-3.765-3.84-2.325 0-3.9 1.695-3.9 5.31 0 4.02 1.575 5.64 3.9 5.64zm9.216-10.725h-2.025v10.5h2.02v-10.5zm10.88 0h-8.174v1.95h3.075v8.55h2.025v-8.55h3.075v-1.95zm7.432 10.5h2.16l-3.63-10.5H202.8l-3.644 10.5h2.085l.62-1.83h3.59l.62 1.83zm-2.4-7.38l1.14 3.6h-2.265l1.13-3.6zm7.19-3.12v10.5h6.36v-1.95h-4.334v-8.55h-2.025zm11.092 0h-2.025v10.5h2.025v-10.5zm3.156 5.58v1.95h4.935V59.3h-4.94zm-58.652 21.26c.165 1.665.945 3.885 4.155 3.885 2.355 0 3.855-1.38 3.855-3.33 0-2.46-1.875-2.985-3.375-3.465-1.11-.33-2.01-.615-2.01-1.26 0-.48.51-.945 1.44-.945 1.14 0 1.665.765 1.83 1.35l1.875-.405c-.465-1.95-1.965-2.895-3.705-2.895-2.28 0-3.465 1.41-3.465 2.895 0 1.95 1.53 2.64 3.465 3.135 1.365.36 1.92.78 1.92 1.59 0 .975-.87 1.38-1.83 1.38-1.86 0-2.16-1.365-2.28-2.28l-1.875.345zm17.016 3.66h2.16l-3.63-10.5h-1.785l-3.645 10.5h2.085l.615-1.83h3.585l.615 1.83zm-2.4-7.38l1.14 3.6h-2.265l1.125-3.6zm13.266-3.12h-8.175v1.95h3.07v8.55h2.02v-8.55h3.07v-1.95zm4.73 0h-2.024v10.5h2.025v-10.5zm9.052 5.085c0 2.895-.555 3.69-1.86 3.69-1.305 0-1.86-.81-1.86-3.69 0-2.49.555-3.36 1.86-3.36 1.305 0 1.86.885 1.86 3.36zm-1.86 5.64c2.325 0 3.885-1.62 3.885-5.64 0-3.615-1.56-5.31-3.88-5.31s-3.88 1.695-3.88 5.31c0 4.02 1.56 5.64 3.89 5.64zm12.787-10.725v6.735l-3.72-6.735h-1.875v10.5h2.025v-6.735l3.765 6.735h1.845v-10.5h-2.04zm74.297 45.505c2.43 0 3.93-1.41 3.93-3.465 0-1.8-1.096-2.4-1.096-2.4s.645-.63.645-1.845c0-2.16-1.74-3.24-3.45-3.24-1.85 0-3.21 1.185-3.39 3.075l1.87.315c.15-1.005.6-1.44 1.51-1.44.88 0 1.42.555 1.42 1.29 0 .87-.59 1.17-1.26 1.17h-1.01v1.71h1.32c.79 0 1.41.465 1.41 1.365 0 1.305-1.17 1.515-1.92 1.515-.95 0-1.94-.585-2.13-2.46l-1.92.375c.37 3.03 2.17 4.035 4.05 4.035zm-21.27 9.275h-8.176v1.95h3.075V139h2.02v-8.55h3.07v-1.95zm10.13 10.5l-2.115-4.485c1.155-.645 1.665-1.5 1.665-2.835 0-1.83-1.47-3.18-3.195-3.18h-3.78V139h2.025v-4.125h1.2l1.95 4.125h2.25zm-3.645-6.075h-1.755v-2.475h1.755c.57 0 1.17.45 1.17 1.26 0 1.05-.825 1.215-1.17 1.215zM291.27 139h2.16l-3.63-10.5h-1.784L284.37 139h2.086l.615-1.83h3.59l.62 1.83zm-2.4-7.38l1.14 3.6h-2.264l1.125-3.6zm12.787-3.12v6.735l-3.72-6.735h-1.875V139h2.025v-6.735l3.765 6.735h1.845v-10.5h-2.04zm5.12 6.84c.166 1.665.946 3.885 4.156 3.885 2.355 0 3.855-1.38 3.855-3.33 0-2.46-1.875-2.985-3.375-3.465-1.11-.33-2.01-.615-2.01-1.26 0-.48.51-.945 1.44-.945 1.14 0 1.665.765 1.83 1.35l1.875-.405c-.465-1.95-1.965-2.895-3.705-2.895-2.28 0-3.465 1.41-3.465 2.895 0 1.95 1.53 2.64 3.465 3.135 1.365.36 1.92.78 1.92 1.59 0 .975-.87 1.38-1.83 1.38-1.86 0-2.16-1.365-2.28-2.28l-1.875.345zm10.642-1.26v1.95h4.93v-1.95h-4.94zm-61.4 16.37v-1.95h-6.66V159h2.02v-4.275h4.21v-1.95h-4.22v-2.325H256zm8.15 3.135c0 2.895-.56 3.69-1.86 3.69-1.31 0-1.86-.81-1.86-3.69 0-2.49.55-3.36 1.86-3.36 1.3 0 1.86.885 1.86 3.36zm-1.86 5.64c2.32 0 3.88-1.62 3.88-5.64 0-3.615-1.56-5.31-3.89-5.31s-3.89 1.695-3.89 5.31c0 4.02 1.56 5.64 3.88 5.64zm14.62-.225l-2.12-4.485c1.15-.645 1.66-1.5 1.66-2.835 0-1.83-1.47-3.18-3.2-3.18h-3.78V159h2.02v-4.125h1.2l1.95 4.125h2.25zm-3.65-6.075h-1.76v-2.475h1.75c.57 0 1.17.45 1.17 1.26 0 1.05-.83 1.215-1.17 1.215zm14.54-4.425l-2.7 7.86-2.67-7.86h-2.37V159h2.02v-6.825l2.34 6.825h1.33l2.37-6.855V159h2.02v-10.5h-2.36zm11.89 10.5h2.16l-3.63-10.5h-1.79l-3.64 10.5h2.08l.61-1.83h3.59l.61 1.83zm-2.4-7.38l1.14 3.6h-2.27l1.12-3.6zm13.26-3.12h-8.17v1.95h3.07V159h2.02v-8.55h3.08v-1.95zm4.73 0h-2.03V159h2.02v-10.5zm9.05 5.085c0 2.895-.56 3.69-1.86 3.69-1.31 0-1.86-.81-1.86-3.69 0-2.49.55-3.36 1.86-3.36 1.3 0 1.86.885 1.86 3.36zm-1.86 5.64c2.32 0 3.88-1.62 3.88-5.64 0-3.615-1.56-5.31-3.89-5.31s-3.89 1.695-3.89 5.31c0 4.02 1.56 5.64 3.88 5.64zm12.79-10.725v6.735l-3.72-6.735h-1.88V159h2.02v-6.735l3.77 6.735h1.84v-10.5h-2.04z"/>
		<path stroke="#FF0354" stroke-width="2" d="M67.37 4.737H306" stroke-linecap="square" stroke-dasharray="1 10 1 10"/>
	</g>
</svg>
