<svg xmlns="http://www.w3.org/2000/svg" id="Ebene_1" viewBox="0 0 712 418">
	<style>
		.st0{fill:#F7F7F7;} .st1{stroke:#000000;stroke-width:2;stroke-linecap:square;} .st2{enable-background:new ;} .st3{fill:#FF0354;} .st4{fill:none;stroke:#FF0354;stroke-width:2;stroke-linecap:square;stroke-dasharray:1,10,1,10;}
	</style>
	<g id="rect_eras">
		<path id="Rectangle-326" d="M226.2 50.7h124.1v289.9H226.2V50.7z" class="st0"/>
		<path id="Rectangle-326-Copy" d="M354.3 50.7H557v289.9H354.3V50.7z" class="st0"/>
		<path id="Rectangle-326-Copy-2" d="M561 50.7h150.3v289.9H561V50.7z" class="st0"/>
	</g>
	<path id="y-achse" d="M49.6 351V41" class="st1"/>
	<path id="y-achse-decoration-1" d="M49.6 41l-3 10.8h6l-3-10.8z" class="st1"/>
	<path id="x-achse" d="M59.3 365.2h588.8" class="st1"/>
	<path id="x-achse-decoration-1" d="M648.1 365.2l-10.8-3v6l10.8-3z" class="st1"/>
	<path d="M35.2.7v9c0 1.5-.5 2.8-1.4 3.8-1 1-2.2 1.5-3.7 1.5s-2.8-.5-3.7-1.5c-1-1-1.4-2.2-1.4-3.8v-9h2.7v9.1c0 .8.2 1.4.6 1.9s1 .7 1.9.7 1.4-.2 1.9-.7.6-1.1.6-1.8V.7h2.5zm3.3 9.2l2.5-.5c0 .3.1.6.1.8.1.2.1.5.3.8s.3.5.5.7.5.4.8.5c.4.1.8.2 1.3.2.7 0 1.3-.2 1.7-.5.5-.3.7-.8.7-1.4 0-.5-.2-1-.6-1.3-.4-.3-1-.6-2-.8-.7-.2-1.3-.4-1.8-.6s-1-.5-1.4-.8c-.5-.3-.8-.7-1-1.2s-.3-1-.3-1.7c0-1.1.4-2 1.2-2.7.8-.8 1.9-1.1 3.4-1.1 1.2 0 2.3.3 3.2 1s1.5 1.6 1.8 2.9l-2.5.5c-.1-.5-.4-.9-.8-1.3-.4-.2-1-.4-1.7-.4-.6 0-1.1.1-1.4.4-.3.3-.5.6-.5.9 0 .4.2.7.6.9s1.1.5 2 .8c1.4.4 2.4.8 2.9 1.2 1.1.8 1.7 1.9 1.7 3.4 0 1.3-.5 2.4-1.4 3.2S45.6 15 44.1 15c-.8 0-1.6-.1-2.2-.3-.6-.2-1.2-.5-1.5-.8-.4-.3-.7-.8-1-1.2-.3-.5-.5-.9-.6-1.4l-.3-1.4zm23.2 2.2v2.6h-8.9V.7h8.9v2.6h-6.2V6h5.6v2.6h-5.6v3.5h6.2zm13.6 2.6h-3l-2.6-5.5h-1.6v5.5h-2.7V.7h5c1.2 0 2.2.4 3 1.2s1.2 1.8 1.2 3c0 .9-.2 1.6-.5 2.2-.4.6-.9 1.1-1.7 1.5l2.9 6.1zm-4.9-8.1c.2 0 .4 0 .6-.1s.4-.2.6-.5c.3-.2.4-.5.4-1s-.2-.9-.5-1.2-.7-.5-1.1-.5h-2.3v3.3h2.3zM32.5 414.1v2.6H22.2v-2.6h3.9v-8.3l-3 1.9v-3l3.2-2h2.5v11.4h3.7zm7.1-2.3c-1.2 0-2.3-.4-3.2-1.2-1-.8-1.5-2-1.5-3.5 0-1.4.5-2.5 1.4-3.4s2.1-1.3 3.4-1.3c1.7 0 3 .6 4 1.8.9 1.2 1.4 3.1 1.4 5.6 0 2.4-.5 4.2-1.4 5.4S41.6 417 40 417c-1.3 0-2.4-.3-3.2-1s-1.3-1.8-1.6-3.3l2.5-.4c.1.8.4 1.4.7 1.7.3.3.9.5 1.6.5 1.6 0 2.4-1.1 2.4-3.4-.1.1-.2.1-.4.2s-.5.2-1 .4c-.4 0-.9.1-1.4.1zm.3-6.8c-.2 0-.4 0-.6.1l-.7.3c-.3.1-.5.4-.6.7-.2.3-.2.7-.2 1.1s.1.8.3 1.1.4.5.7.7c.3.1.5.2.7.3.2.1.4.1.7.1.5 0 1-.2 1.4-.5s.7-.9.7-1.6-.2-1.3-.7-1.6c-.8-.6-1.3-.7-1.7-.7zm17.8 1.5c0 .5-.1.9-.2 1.4s-.3.7-.4.9l-.2.3.4.4c.2.2.4.5.7 1.1s.4 1.2.4 1.9c0 1.3-.5 2.4-1.4 3.2-1 .8-2.1 1.3-3.5 1.3-1.3 0-2.5-.4-3.5-1.2-1-.8-1.5-1.9-1.5-3.3 0-.4 0-.8.1-1.2.1-.4.2-.7.4-1s.3-.5.5-.7c.1-.2.3-.3.4-.4l.1-.1-.2-.3c-.1-.1-.2-.4-.4-.9-.2-.4-.2-.9-.2-1.4 0-1.2.4-2.1 1.2-2.9s1.9-1.2 3.1-1.2c1.2 0 2.2.4 3.1 1.2s1.1 1.7 1.1 2.9zm-4.4 7.9c.7 0 1.3-.2 1.7-.5.4-.4.6-.8.6-1.4s-.2-1.1-.6-1.5c-.4-.4-.9-.6-1.7-.6-.7 0-1.2.2-1.6.6s-.6.9-.6 1.5.2 1.1.6 1.4c.4.3.9.5 1.6.5zm0-9.4c-.4 0-.8.1-1.1.4s-.5.7-.5 1.1c0 .5.2.9.5 1.2s.7.4 1.1.4c.4 0 .8-.1 1.1-.4.4-.2.5-.6.5-1.2 0-.4-.2-.8-.5-1.1-.2-.3-.6-.4-1.1-.4zm17.3 10.1c-.9 1.2-2.2 1.8-3.8 1.8-1.6 0-2.9-.6-3.8-1.8-.9-1.2-1.4-3.1-1.4-5.7 0-2.3.5-4.1 1.4-5.3.9-1.2 2.2-1.8 3.8-1.8s2.9.6 3.8 1.8c.9 1.2 1.4 3 1.4 5.3 0 2.6-.5 4.5-1.4 5.7zm-1.3-5.6c0-1.6-.2-2.8-.6-3.5s-1-1-1.9-1-1.5.3-1.9 1-.6 1.8-.6 3.5c0 1.9.2 3.2.6 3.9.4.7 1 1.1 1.9 1.1s1.5-.4 1.9-1c.4-.9.6-2.2.6-4zm143.3 4.6v2.6h-10.3v-2.6h3.9v-8.3l-3 1.9v-3l3.2-2h2.5v11.4h3.7zm7-2.3c-1.2 0-2.3-.4-3.2-1.2s-1.5-2-1.5-3.5c0-1.4.5-2.5 1.4-3.4s2.1-1.3 3.4-1.3c1.7 0 3 .6 4 1.8s1.4 3.1 1.4 5.6c0 2.4-.5 4.2-1.4 5.4-.9 1.2-2.1 1.8-3.7 1.8-1.3 0-2.4-.3-3.2-1s-1.3-1.8-1.6-3.3l2.5-.4c.1.8.4 1.4.7 1.7.3.3.9.5 1.6.5 1.6 0 2.4-1.1 2.4-3.4l-.3.2c-.2.1-.5.2-1 .4l-1.5.1zm.3-6.8c-.2 0-.4 0-.6.1l-.7.3c-.3.1-.5.4-.6.7-.2.3-.2.7-.2 1.1s.1.8.3 1.1c.2.3.4.5.7.7.3.1.5.2.7.3.2.1.4.1.7.1.5 0 1-.2 1.4-.5s.7-.9.7-1.6-.2-1.3-.7-1.6c-.8-.6-1.2-.7-1.7-.7zm13.1 6.8c-1.2 0-2.3-.4-3.2-1.2s-1.5-2-1.5-3.5c0-1.4.5-2.5 1.4-3.4s2.1-1.3 3.4-1.3c1.7 0 3 .6 4 1.8s1.4 3.1 1.4 5.6c0 2.4-.5 4.2-1.4 5.4-.9 1.2-2.1 1.8-3.7 1.8-1.3 0-2.4-.3-3.2-1s-1.3-1.8-1.6-3.3l2.5-.4c.1.8.4 1.4.7 1.7.3.3.9.5 1.6.5 1.6 0 2.4-1.1 2.4-3.4l-.3.2c-.2.1-.5.2-1 .4l-1.5.1zm.2-6.8c-.2 0-.4 0-.6.1l-.7.3c-.3.1-.5.4-.6.7-.2.3-.2.7-.2 1.1s.1.8.3 1.1c.2.3.4.5.7.7.3.1.5.2.7.3.2.1.4.1.7.1.5 0 1-.2 1.4-.5s.7-.9.7-1.6-.2-1.3-.7-1.6c-.7-.6-1.2-.7-1.7-.7zm14 4.9c-1.1 0-1.8.4-2.2 1.1l-2.4-.8 1.2-7.5h7.3v2.6h-5l-.4 2.5c.5-.2 1-.2 1.7-.2 1.4 0 2.6.4 3.5 1.3.9.8 1.4 2 1.4 3.5s-.5 2.6-1.4 3.5-2.1 1.3-3.6 1.3c-1.4 0-2.5-.4-3.4-1.1s-1.4-1.8-1.6-3l2.5-.6c.1.7.4 1.2.8 1.6.4.4 1 .6 1.8.6.2 0 .4 0 .6-.1.2 0 .5-.1.8-.2s.5-.3.7-.7c.2-.3.3-.7.3-1.2s-.1-.8-.3-1.2c-.2-.3-.4-.6-.7-.7s-.5-.3-.8-.3-.6-.4-.8-.4zm94.2-4.9c-1.4 0-2.2.9-2.4 2.6l-2.5-.4c.1-1.4.6-2.5 1.5-3.4s2.1-1.3 3.4-1.3 2.5.4 3.4 1.2c.9.8 1.4 1.9 1.4 3.3 0 1.1-.4 1.9-1.1 2.6s-1.8 1.2-3.2 1.7c-.5.2-.9.3-1.3.5s-.6.3-.8.5c-.2.1-.3.3-.4.5l-.2.6v.8h7v2.6h-9.8V414c0-1.3.3-2.3.9-3s1.6-1.3 3.1-1.8c.5-.2.8-.3 1.1-.4s.6-.3.9-.5.6-.4.7-.6c.2-.2.2-.5.2-.8 0-.6-.2-1.1-.5-1.4-.2-.3-.7-.5-1.4-.5zm17.2 10.1c-.9 1.2-2.2 1.8-3.8 1.8-1.6 0-2.9-.6-3.8-1.8-.9-1.2-1.4-3.1-1.4-5.7 0-2.3.5-4.1 1.4-5.3.9-1.2 2.2-1.8 3.8-1.8s2.9.6 3.8 1.8c.9 1.2 1.4 3 1.4 5.3 0 2.6-.4 4.5-1.4 5.7zm-1.3-5.6c0-1.6-.2-2.8-.6-3.5s-1-1-1.9-1-1.5.3-1.9 1-.6 1.8-.6 3.5c0 1.9.2 3.2.6 3.9.4.7 1 1.1 1.9 1.1s1.5-.4 1.9-1c.4-.9.6-2.2.6-4zm15.2 5.6c-.9 1.2-2.2 1.8-3.8 1.8s-2.9-.6-3.8-1.8c-.9-1.2-1.4-3.1-1.4-5.7 0-2.3.5-4.1 1.4-5.3.9-1.2 2.2-1.8 3.8-1.8 1.6 0 2.9.6 3.8 1.8.9 1.2 1.4 3 1.4 5.3 0 2.6-.5 4.5-1.4 5.7zm-1.3-5.6c0-1.6-.2-2.8-.6-3.5s-1-1-1.9-1-1.5.3-1.9 1-.6 1.8-.6 3.5c0 1.9.2 3.2.6 3.9.4.7 1 1.1 1.9 1.1s1.5-.4 1.9-1c.4-.9.6-2.2.6-4zm15.2 5.6c-.9 1.2-2.2 1.8-3.8 1.8-1.6 0-2.9-.6-3.8-1.8-.9-1.2-1.4-3.1-1.4-5.7 0-2.3.5-4.1 1.4-5.3.9-1.2 2.2-1.8 3.8-1.8 1.6 0 2.9.6 3.8 1.8.9 1.2 1.4 3 1.4 5.3-.1 2.6-.5 4.5-1.4 5.7zm-1.4-5.6c0-1.6-.2-2.8-.6-3.5s-1-1-1.9-1-1.5.3-1.9 1-.6 1.8-.6 3.5c0 1.9.2 3.2.6 3.9.4.7 1 1.1 1.9 1.1s1.5-.4 1.9-1c.4-.9.6-2.2.6-4zm162.3-4.5c-1.4 0-2.2.9-2.4 2.6l-2.5-.4c.1-1.4.6-2.5 1.5-3.4s2.1-1.3 3.4-1.3c1.3 0 2.5.4 3.4 1.2.9.8 1.4 1.9 1.4 3.3 0 1.1-.4 1.9-1.1 2.6-.7.7-1.8 1.2-3.2 1.7-.5.2-.9.3-1.3.5-.3.2-.6.3-.8.5-.2.1-.3.3-.4.5l-.2.6v.8h7v2.6h-9.8V414c0-1.3.3-2.3.9-3 .6-.7 1.6-1.3 3.1-1.8.5-.2.8-.3 1.1-.4s.6-.3.9-.5.6-.4.7-.6.2-.5.2-.8c0-.6-.2-1.1-.5-1.4-.2-.3-.7-.5-1.4-.5zm17.3 10.1c-.9 1.2-2.2 1.8-3.8 1.8s-2.9-.6-3.8-1.8c-.9-1.2-1.4-3.1-1.4-5.7 0-2.3.5-4.1 1.4-5.3.9-1.2 2.2-1.8 3.8-1.8s2.9.6 3.8 1.8c.9 1.2 1.4 3 1.4 5.3-.1 2.6-.5 4.5-1.4 5.7zm-1.4-5.6c0-1.6-.2-2.8-.6-3.5-.4-.7-1-1-1.9-1s-1.5.3-1.9 1-.6 1.8-.6 3.5c0 1.9.2 3.2.6 3.9.4.7 1 1.1 1.9 1.1s1.5-.4 1.9-1c.4-.9.6-2.2.6-4zm16 4.6v2.6h-10.3v-2.6h3.9v-8.3l-3 1.9v-3l3.2-2h2.5v11.4h3.7zm8-4.2c-1.1 0-1.8.4-2.2 1.1l-2.4-.8 1.2-7.5h7.3v2.6h-5l-.4 2.5c.5-.2 1-.2 1.7-.2 1.4 0 2.6.4 3.5 1.3.9.8 1.4 2 1.4 3.5s-.5 2.6-1.4 3.5-2.1 1.3-3.7 1.3c-1.4 0-2.5-.4-3.4-1.1s-1.4-1.8-1.6-3l2.5-.6c.1.7.4 1.2.8 1.6.4.4 1 .6 1.8.6.2 0 .4 0 .6-.1.2 0 .5-.1.8-.2s.5-.3.7-.7c.2-.3.3-.7.3-1.2s-.1-.8-.3-1.2c-.2-.3-.4-.6-.6-.7-.3-.2-.5-.3-.8-.3-.4-.4-.6-.4-.8-.4zm40.6-4.9c-1.4 0-2.2.9-2.4 2.6l-2.5-.4c.1-1.4.6-2.5 1.5-3.4s2.1-1.3 3.4-1.3c1.3 0 2.5.4 3.4 1.2.9.8 1.4 1.9 1.4 3.3 0 1.1-.4 1.9-1.1 2.6-.7.7-1.8 1.2-3.2 1.7-.5.2-.9.3-1.3.5-.3.2-.6.3-.8.5-.2.1-.3.3-.4.5l-.2.6v.8h7v2.6h-9.8V414c0-1.3.3-2.3.9-3 .6-.7 1.6-1.3 3.1-1.8.5-.2.8-.3 1.1-.4s.6-.3.9-.5.6-.4.7-.6.2-.5.2-.8c0-.6-.2-1.1-.5-1.4s-.8-.5-1.4-.5zm17.2 10.1c-.9 1.2-2.2 1.8-3.8 1.8s-2.9-.6-3.8-1.8c-.9-1.2-1.4-3.1-1.4-5.7 0-2.3.5-4.1 1.4-5.3.9-1.2 2.2-1.8 3.8-1.8s2.9.6 3.8 1.8c.9 1.2 1.4 3 1.4 5.3 0 2.6-.5 4.5-1.4 5.7zm-1.3-5.6c0-1.6-.2-2.8-.6-3.5-.4-.7-1-1-1.9-1s-1.5.3-1.9 1-.6 1.8-.6 3.5c0 1.9.2 3.2.6 3.9.4.7 1 1.1 1.9 1.1s1.5-.4 1.9-1c.4-.9.6-2.2.6-4zM655 405c-1.4 0-2.2.9-2.4 2.6l-2.5-.4c.1-1.4.6-2.5 1.5-3.4s2.1-1.3 3.4-1.3c1.3 0 2.5.4 3.4 1.2.9.8 1.4 1.9 1.4 3.3 0 1.1-.4 1.9-1.1 2.6s-1.8 1.2-3.2 1.7c-.5.2-.9.3-1.3.5-.3.2-.6.3-.8.5-.2.1-.3.3-.4.5s-.1.4-.2.6v.8h7v2.6H650V414c0-1.3.3-2.3.9-3 .6-.7 1.7-1.3 3.1-1.8.5-.2.8-.3 1.1-.4s.6-.3.9-.5c.3-.2.6-.4.7-.6.2-.2.2-.5.2-.8 0-.6-.2-1.1-.5-1.4s-.7-.5-1.4-.5zm17.3 10.1c-.9 1.2-2.2 1.8-3.8 1.8s-2.9-.6-3.8-1.8c-.9-1.2-1.4-3.1-1.4-5.7 0-2.3.5-4.1 1.4-5.3.9-1.2 2.2-1.8 3.8-1.8s2.9.6 3.8 1.8c.9 1.2 1.4 3 1.4 5.3 0 2.6-.5 4.5-1.4 5.7zm-1.3-5.6c0-1.6-.2-2.8-.6-3.5-.4-.7-1-1-1.9-1s-1.5.3-1.9 1-.6 1.8-.6 3.5c0 1.9.2 3.2.6 3.9.4.7 1 1.1 1.9 1.1s1.5-.4 1.9-1c.4-.9.6-2.2.6-4zM69.5 268.2c-1.6 0-2.9-.6-3.8-1.8s-1.4-3-1.4-5.5.5-4.3 1.4-5.5c1-1.2 2.2-1.8 3.8-1.8 1.6 0 2.9.6 3.9 1.8 1 1.2 1.4 3 1.4 5.5s-.5 4.3-1.4 5.5-2.3 1.8-3.9 1.8zm0-2.1c1.1 0 1.9-.4 2.4-1.2s.7-2.1.7-4-.2-3.3-.7-4-1.3-1.2-2.4-1.2-1.8.4-2.3 1.2-.7 2.1-.7 4 .2 3.2.7 4c.4.8 1.2 1.2 2.3 1.2zm9.8 1.8v-8.6h-1.6v-2h1.6v-.9c0-.9.3-1.7.8-2.1s1.2-.7 2.1-.7c.8 0 1.6.3 2.4 1l-1.1 1.6c-.4-.4-.9-.5-1.3-.5-.5 0-.7.3-.7 1v.7h3v2h-3v8.6h-2.2v-.1zm9 0v-8.6h-1.6v-2h1.6v-.9c0-.9.3-1.7.8-2.1s1.2-.7 2.1-.7c.8 0 1.6.3 2.4 1l-1.1 1.6c-.4-.4-.9-.5-1.3-.5-.5 0-.7.3-.7 1v.7h6.9V268h-2.1v-8.6h-4.8v8.6h-2.2v-.1zm6.8-11.8V254h2.3v2.1h-2.3zm13.2 8l2.1.4c-.3 1.3-.9 2.2-1.7 2.8-.8.6-1.8.9-2.9.9-1.4 0-2.6-.5-3.5-1.5s-1.3-2.4-1.3-4.1c0-1.8.5-3.1 1.4-4.1s2.1-1.5 3.5-1.5c1.1 0 2.1.3 2.9.9s1.3 1.6 1.7 2.8l-2.1.4c-.2-.7-.5-1.3-.9-1.6-.4-.3-.9-.5-1.6-.5-1.8 0-2.7 1.2-2.7 3.6s.9 3.6 2.7 3.6c.7 0 1.2-.2 1.6-.5.3-.3.6-.9.8-1.6zm11.7.3l2 .6c-.3 1.1-.9 1.9-1.6 2.4s-1.6.8-2.7.8c-1.4 0-2.5-.5-3.4-1.5s-1.3-2.4-1.3-4.2c0-1.8.4-3.1 1.3-4.1.8-1 2-1.5 3.4-1.5s2.6.5 3.4 1.5c.9 1 1.3 2.4 1.3 4.1v.6H115c.1 1 .3 1.7.7 2.2.4.5 1 .8 1.9.8.6 0 1.1-.1 1.5-.4.4-.2.7-.6.9-1.3zm-4.9-2.9h5c-.1-.7-.3-1.3-.7-1.8-.4-.5-1-.7-1.9-.7s-1.5.2-1.8.7-.5 1-.6 1.8zm154 5.7l-2.1-14h2.2l1.4 10.3 3-10.3h1.7l2.9 10.3 1.4-10.3h2.2l-2.1 14h-2.3l-3-10.1-3.1 10.1h-2.2zm21.9-3.5l2 .6c-.3 1.1-.9 1.9-1.6 2.4s-1.6.8-2.7.8c-1.4 0-2.5-.5-3.4-1.5s-1.3-2.4-1.3-4.2c0-1.8.4-3.1 1.3-4.1.8-1 2-1.5 3.4-1.5s2.6.5 3.4 1.5c.9 1 1.3 2.4 1.3 4.1v.6H286c.1 1 .3 1.7.7 2.2.4.5 1 .8 1.9.8.6 0 1.1-.1 1.5-.4.4-.2.7-.7.9-1.3zm-4.9-3h5c-.1-.7-.3-1.3-.7-1.8-.4-.5-1-.7-1.9-.7s-1.5.2-1.8.7-.5 1.1-.6 1.8zm10.7 6.5v-14h2.1v4.1c.8-.7 1.7-1 2.8-1 1.4 0 2.5.5 3.4 1.5.8 1 1.3 2.3 1.3 4.1 0 1.8-.4 3.2-1.3 4.2-.8 1-2 1.5-3.4 1.5-1.1 0-2-.3-2.8-1v.7h-2.1v-.1zm2.1-6.4v2.2c0 .7.2 1.3.7 1.8.5.4 1.1.7 2 .7s1.6-.3 2-.9.6-1.5.6-2.8-.2-2.2-.6-2.7c-.4-.6-1.1-.9-2-.9s-1.6.2-2.1.7-.6 1.1-.6 1.9z" class="st2"/>
	<path d="M473.2 287.2v-14h2.8l3.7 10.8 3.7-10.8h2.8v14H484v-10.1l-3.5 10.1h-1.6l-3.5-10.1v10.1h-2.2zm21.5.3c-1.4 0-2.6-.5-3.5-1.5s-1.3-2.4-1.3-4.2c0-1.8.5-3.1 1.4-4.1s2.1-1.5 3.5-1.5c1.5 0 2.6.5 3.5 1.5s1.4 2.4 1.4 4.1c0 1.8-.5 3.1-1.4 4.1-1 1.1-2.2 1.6-3.6 1.6zm0-2c1.9 0 2.8-1.2 2.8-3.6s-.9-3.6-2.8-3.6c-1.8 0-2.7 1.2-2.7 3.6s.9 3.6 2.7 3.6zm8.4 1.7v-14h2.1v4.1c.8-.7 1.7-1 2.8-1 1.4 0 2.5.5 3.4 1.5.8 1 1.3 2.3 1.3 4.1 0 1.8-.4 3.2-1.3 4.2-.8 1-2 1.5-3.4 1.5-1.1 0-2-.3-2.8-1v.7h-2.1v-.1zm2.1-6.4v2.2c0 .7.2 1.3.7 1.8.5.4 1.1.7 2 .7s1.6-.3 2-.9.6-1.5.6-2.8-.2-2.2-.6-2.7c-.4-.6-1.1-.9-2-.9s-1.6.2-2.1.7-.6 1.1-.6 1.9zm11-5.5v-2.1h2.3v2.1h-2.3zm.1 11.9v-10.6h2.1v10.6h-2.1zm6.5 0v-14h2.1v14h-2.1zm12.7-3.5l2 .6c-.3 1.1-.9 1.9-1.6 2.4-.7.5-1.6.8-2.7.8-1.4 0-2.5-.5-3.4-1.5s-1.3-2.4-1.3-4.2c0-1.8.4-3.1 1.3-4.1.8-1 2-1.5 3.4-1.5s2.6.5 3.4 1.5c.9 1 1.3 2.4 1.3 4.1v.6h-7.3c.1 1 .3 1.7.7 2.2s1 .8 1.9.8c.6 0 1.1-.1 1.5-.4s.6-.7.8-1.3zm-4.9-3h5c-.1-.7-.3-1.3-.7-1.8s-1-.7-1.8-.7c-.9 0-1.5.2-1.8.7-.4.5-.6 1.1-.7 1.8z" class="st2 st3"/>
	<g id="Kurven">
		<path id="Path-2031-office" d="M32.4 324.6c-17.8 0-29.5-1-29.7-1.1-1.6-.2-2.9-1.6-2.7-3.3s1.6-2.9 3.3-2.7c.3 0 34.6 3.1 75.4-1.4 68-7.5 101.5-29.9 117.6-47.4 16.7-18.1 49.4-42.5 110.5-55.6 36.4-7.8 66.1-7.9 66.4-7.9 1.7 0 3 1.3 3 3s-1.3 3-3 3c-.3 0-29.5.1-65.2 7.8-32.8 7-78 22.1-107.2 53.8-16.8 18.2-51.4 41.5-121.3 49.3-17.7 2-34 2.5-47.1 2.5z"/>
		<path id="Path-2031-web" d="M285.1 299.2c-12.5 0-20.7-1.3-21.3-1.4-1.6-.3-2.7-1.8-2.5-3.4.3-1.6 1.8-2.8 3.4-2.5.2 0 24.4 3.8 53.1-1.8 38.2-7.4 65.9-27 82.3-58.1 21.5-40.7 54.7-59.9 78.8-68.9 26.1-9.7 46.8-9.8 47.6-9.8 1.7 0 3 1.3 3 3s-1.3 3-3 3c-.2 0-20.7.1-45.8 9.5-23 8.6-54.8 27.1-75.4 66-17.1 32.4-47.1 53.5-86.7 61.2-12.4 2.5-24.2 3.2-33.5 3.2z"/>
		<path id="Path-2031-mobile" d="M484.9 248c-8.4 0-14-2.1-14.4-2.3-1.5-.6-2.3-2.4-1.7-3.9.6-1.5 2.3-2.3 3.9-1.7.1 0 4.1 1.5 10.3 1.8 8.3.4 16.4-1.6 24.1-5.7 22.6-12.2 39.9-43.4 50-90.1 10.9-50.7 27.8-86.8 50.1-107.2C624.4 23.2 638.4 23 639 23c1.7 0 3 1.3 3 3s-1.3 3-3 3c-.1 0-12.7.3-28.2 14.8-26.4 24.6-40.6 69.9-47.8 103.6-10.6 49.3-28.5 81-53.2 94.2-9.4 5-18.1 6.4-24.9 6.4z" class="st3"/>
	</g>
	<g id="_x31_">
		<path d="M293.8 61.4V64h-10.3v-2.6h3.9v-8.3l-3 1.9v-3l3.2-2h2.5v11.4h3.7z"/>
		<path d="M261 95.2v2.6h-8.9v-14h8.9v2.6h-6.2v2.7h5.6v2.6h-5.6v3.5h6.2zm12.7-11.4l-3.8 6.6 4.3 7.4h-3.1l-2.8-5.2-2.8 5.2h-3l4.3-7.3-3.9-6.7h3.1l2.3 4.4 2.4-4.4h3zm2.7 0h5c1.2 0 2.2.4 3.1 1.3.9.8 1.3 1.9 1.3 3.1s-.4 2.3-1.2 3.1-1.9 1.3-3.1 1.3h-2.3v5.2h-2.7l-.1-14zm5.1 6.2c.5 0 .9-.2 1.2-.5.3-.4.5-.8.5-1.3 0-.6-.2-1-.5-1.3s-.7-.5-1.2-.5h-2.4V90h2.4zm15.6 5.2v2.6h-8.9v-14h8.9v2.6h-6.2v2.7h5.6v2.6h-5.6v3.5h6.2zm13 2.6h-3l-2.6-5.5h-1.6v5.5h-2.7v-14h5c1.2 0 2.2.4 3 1.2.8.8 1.2 1.8 1.2 3 0 .9-.2 1.6-.5 2.2-.4.6-.9 1.1-1.7 1.5l2.9 6.1zm-4.9-8.1c.2 0 .4 0 .6-.1s.4-.2.6-.5.3-.6.3-1c0-.5-.2-.9-.5-1.2-.3-.3-.7-.5-1.1-.5h-2.3v3.3h2.4zm10.7-5.9v14h-2.7v-14h2.7zm3.1 7.4h6.6v2.6H319v-2.6zm-73.8 26.4h3.1v14h-2.6v-9.1l-3.2 9.1h-1.8l-3.1-9.1v9.1h-2.7v-14h3.2l3.6 10.5 3.5-10.5zm15.7 11.4v2.6H252v-14h8.9v2.6h-6.2v2.7h5.6v2.6h-5.6v3.5h6.2zm10.6-11.4h2.7v14h-2.5l-5-9v9H264v-14h2.5l5 9v-9zm16.1 0v2.6h-4.1v11.4h-2.7v-11.4h-4.1v-2.6h10.9zm8.8 14l-.8-2.4h-4.8l-.8 2.4h-2.8l4.9-14h2.4l4.8 14h-2.9zm-3.2-9.8l-1.5 4.8h3l-1.5-4.8zm16.6-4.2v2.6h-4.1v11.4H303v-11.4h-4.1v-2.6h10.9zm5.2 0v14h-2.7v-14h2.7zm12.3 12.5c-.9 1.2-2.2 1.8-3.8 1.8-1.6 0-2.9-.6-3.8-1.8s-1.4-3.1-1.4-5.7c0-2.3.5-4.1 1.4-5.3.9-1.2 2.2-1.8 3.8-1.8s2.9.6 3.8 1.8c.9 1.2 1.4 3 1.4 5.3-.1 2.6-.5 4.5-1.4 5.7zm-1.4-5.7c0-1.6-.2-2.8-.6-3.5s-1-1-1.9-1-1.5.3-1.9 1-.6 1.8-.6 3.5c0 1.9.2 3.2.6 3.9s1 1.1 1.9 1.1 1.5-.4 1.9-1c.5-.8.6-2.1.6-4zm13.5-6.8h2.7v14h-2.4l-5-9v9H332v-14h2.5l5 9v-9h-.1z" class="st2"/>
	</g>
	<g id="_x32_">
		<path d="M455.1 52.9c-1.4 0-2.2.9-2.4 2.6l-2.5-.4c.1-1.4.6-2.5 1.5-3.5.9-.9 2.1-1.3 3.4-1.3s2.5.4 3.4 1.2 1.4 1.9 1.4 3.3c0 1.1-.4 1.9-1.1 2.6-.7.7-1.8 1.2-3.2 1.7-.5.2-.9.4-1.2.5-.3.2-.6.3-.8.5-.2.1-.3.3-.4.5-.1.3-.1.5-.1.6v.8h7v2.6h-9.8V62c0-1.3.3-2.3.9-3s1.6-1.3 3.1-1.8c.5-.2.8-.3 1.1-.4.3-.1.6-.3.9-.5s.6-.4.7-.6.2-.5.2-.8c0-.6-.2-1.1-.5-1.4-.4-.4-.9-.6-1.6-.6z"/>
		<path d="M416.9 98.4h-5v-14h5.1c3.4 0 5.1 2.3 5.1 6.8 0 4.8-1.7 7.2-5.2 7.2zm0-2.6c.6 0 1.1-.1 1.4-.3.3-.2.6-.7.8-1.4.2-.7.3-1.7.3-2.9 0-1.6-.2-2.7-.5-3.3-.3-.6-1-.9-1.8-.9h-2.4v8.8h2.2zM428 84.4v14h-2.7v-14h2.7zm8.5 14.3c-1.6 0-2.9-.6-3.8-1.8-.9-1.2-1.4-3.1-1.4-5.7 0-2.3.5-4.1 1.4-5.3.9-1.2 2.2-1.8 3.8-1.8 1.4 0 2.5.5 3.5 1.5s1.4 2.2 1.5 3.7l-2.5.3c-.2-1.9-1-2.9-2.5-2.9-.9 0-1.5.3-1.9 1s-.6 1.8-.6 3.5c0 1.9.2 3.2.6 3.9.4.7 1 1.1 1.9 1.1.8 0 1.4-.2 1.8-.7s.6-1.1.6-1.8h-3.1v-2.5h5.8v2.4c0 1.5-.5 2.8-1.4 3.8-.9.8-2.2 1.3-3.7 1.3zm11.2-14.3v14H445v-14h2.7zm13.4 0V87H457v11.4h-2.7V87h-4.1v-2.6h10.9zm8.8 14l-.8-2.4h-4.8l-.8 2.4h-2.8l4.9-14h2.4l4.8 14h-2.9zm-3.2-9.8l-1.5 4.8h3l-1.5-4.8zm8.4-4.2h2.7v11.4h5.8v2.6h-8.5v-14zm13.7 0v14h-2.7v-14h2.7zm3.1 7.4h6.6v2.6h-6.6v-2.6zm-70.4 35.5l2.5-.5c0 .3.1.6.1.8s.2.5.3.8c.1.3.3.5.5.7s.5.4.8.5c.4.1.8.2 1.3.2.7 0 1.3-.2 1.7-.5.5-.3.7-.8.7-1.4 0-.5-.2-1-.6-1.3s-1-.6-2-.8c-.7-.2-1.3-.4-1.8-.6s-1-.5-1.4-.8c-.5-.3-.8-.7-1-1.2s-.3-1-.3-1.7c0-1.1.4-2 1.2-2.7.8-.8 1.9-1.1 3.4-1.1 1.2 0 2.3.3 3.2 1 .9.7 1.5 1.6 1.8 2.9l-2.5.5c-.1-.5-.4-.9-.8-1.3s-.9-.5-1.6-.5c-.6 0-1.1.1-1.4.4-.3.2-.5.5-.5.9s.2.7.6.9c.4.2 1.1.5 2 .8 1.3.4 2.3.8 2.8 1.2 1.1.8 1.7 1.9 1.7 3.4 0 1.3-.5 2.4-1.4 3.2s-2.2 1.2-3.7 1.2c-.8 0-1.6-.1-2.2-.3s-1.2-.5-1.5-.8-.7-.8-1-1.2c-.3-.5-.5-.9-.6-1.4-.1-.3-.2-.8-.3-1.3zm21.6 4.9l-.8-2.4h-4.8l-.8 2.4h-2.8l4.9-14h2.4l4.8 14h-2.9zm-3.2-9.8l-1.5 4.8h3l-1.5-4.8zm16.6-4.2v2.6h-4.1v11.4h-2.7v-11.4h-4.1v-2.6h10.9zm5.2 0v14H459v-14h2.7zm12.3 12.5c-.9 1.2-2.2 1.8-3.8 1.8-1.6 0-2.9-.6-3.8-1.8s-1.4-3.1-1.4-5.7c0-2.3.5-4.1 1.4-5.3.9-1.2 2.2-1.8 3.8-1.8 1.6 0 2.9.6 3.8 1.8.9 1.2 1.4 3 1.4 5.3-.1 2.6-.5 4.4-1.4 5.7zm-1.4-5.7c0-1.6-.2-2.8-.6-3.5s-1-1-1.9-1-1.5.3-1.9 1-.6 1.8-.6 3.5c0 1.9.2 3.2.6 3.9s1 1.1 1.9 1.1 1.5-.4 1.9-1c.5-.8.6-2.1.6-4zm13.5-6.8h2.7v14h-2.5l-5-9v9h-2.7v-14h2.5l5 9v-9z" class="st2"/>
	</g>
	<g id="_x33_">
		<path d="M638.4 64.9c-1.4 0-2.6-.4-3.6-1.3s-1.6-2.2-1.8-4.1l2.6-.5c.1 1.2.4 2 1 2.5.5.5 1.1.8 1.9.8.3 0 .6 0 .8-.1.3-.1.5-.1.8-.3.3-.1.5-.3.7-.6s.2-.6.2-1.1c0-.6-.2-1-.5-1.3s-.8-.5-1.3-.5h-1.8v-2.2h1.3c1.1 0 1.7-.5 1.7-1.6 0-.5-.2-.9-.5-1.2s-.8-.5-1.4-.5c-.6 0-1.1.2-1.4.5s-.5.8-.6 1.5l-2.5-.4c.1-1.3.6-2.2 1.4-3 .8-.7 1.9-1.1 3.1-1.1 1.2 0 2.3.4 3.2 1.1s1.4 1.8 1.4 3.2c0 .5-.1.9-.2 1.3s-.3.7-.4.9l-.2.3s.1.1.2.1.2.2.4.3c.2.2.3.4.4.6.1.2.2.5.3.9s.2.8.2 1.3c0 1.4-.5 2.5-1.4 3.4-1.1.7-2.4 1.1-4 1.1z"/>
		<path d="M612.9 84.4V87h-4.1v11.4h-2.7V87H602v-2.6h10.9zm12.4 14h-3l-2.6-5.5h-1.6v5.5h-2.7v-14h5c1.2 0 2.2.4 3 1.2.8.8 1.2 1.8 1.2 3 0 .9-.2 1.6-.5 2.2-.4.6-.9 1.1-1.7 1.5l2.9 6.1zm-4.9-8.1c.2 0 .4 0 .6-.1.2-.1.4-.2.6-.5.2-.3.3-.6.3-1 0-.5-.2-.9-.5-1.2-.3-.3-.7-.5-1.1-.5H618v3.3h2.4zm15.9 8.1l-.8-2.4h-4.8l-.8 2.4h-2.8l4.9-14h2.4l4.8 14h-2.9zm-3.2-9.8l-1.5 4.8h3l-1.5-4.8zm15.9-4.2h2.7v14h-2.5l-5-9v9h-2.7v-14h2.5l5 9v-9zm5.7 9.1l2.5-.5c0 .3.1.6.1.8.1.2.1.5.3.8.1.3.3.5.5.7s.5.4.8.5c.4.1.8.2 1.3.2.7 0 1.3-.2 1.7-.5s.7-.8.7-1.4c0-.5-.2-1-.6-1.3-.4-.3-1-.6-2-.8-.7-.2-1.3-.4-1.8-.6s-1-.5-1.4-.8c-.5-.3-.8-.7-1-1.2s-.3-1-.3-1.7c0-1.1.4-2 1.2-2.7s2-1.1 3.4-1.1c1.2 0 2.3.3 3.2 1s1.5 1.6 1.8 2.9l-2.5.5c-.1-.5-.4-.9-.8-1.3s-.9-.5-1.6-.5c-.6 0-1.1.1-1.4.4-.3.2-.5.5-.5.9s.2.7.7.9c.4.2 1.1.5 2 .8 1.3.4 2.3.8 2.8 1.2 1.1.8 1.7 1.9 1.7 3.4 0 1.3-.5 2.4-1.4 3.2-.9.8-2.2 1.2-3.7 1.2-.8 0-1.6-.1-2.2-.3-.6-.2-1.2-.5-1.5-.8-.4-.3-.7-.8-1-1.2-.3-.5-.5-.9-.6-1.4-.2-.3-.3-.8-.4-1.3zm13.1-1.7h6.6v2.6h-6.6v-2.6zm-74.7 29h-6.2v3.1h5.6v2.6h-5.6v5.7h-2.7v-14h8.9v2.6zm11.1 9.9c-.9 1.2-2.2 1.8-3.8 1.8s-2.9-.6-3.8-1.8c-.9-1.2-1.4-3.1-1.4-5.7 0-2.3.5-4.1 1.4-5.3.9-1.2 2.2-1.8 3.8-1.8s2.9.6 3.8 1.8c.9 1.2 1.4 3 1.4 5.3 0 2.6-.5 4.4-1.4 5.7zm-1.3-5.7c0-1.6-.2-2.8-.6-3.5-.4-.7-1-1-1.9-1s-1.5.3-1.9 1-.6 1.8-.6 3.5c0 1.9.2 3.2.6 3.9.4.7 1 1.1 1.9 1.1s1.5-.4 1.9-1c.4-.8.6-2.1.6-4zm15.9 7.2h-3l-2.6-5.5h-1.6v5.5h-2.7v-14h5c1.2 0 2.2.4 3 1.2.8.8 1.2 1.8 1.2 3 0 .9-.2 1.6-.5 2.2-.4.6-.9 1.1-1.7 1.5l2.9 6.1zm-4.9-8.1c.2 0 .4 0 .6-.1.2-.1.4-.2.6-.5.2-.3.3-.6.3-1 0-.5-.2-.9-.5-1.2-.3-.3-.7-.5-1.1-.5h-2.3v3.3h2.4zm18.3-5.9h3.1v14h-2.6v-9.1l-3.2 9.1h-1.8l-3.1-9.1v9.1h-2.7v-14h3.2l3.6 10.5 3.5-10.5zm14.8 14l-.8-2.4h-4.8l-.8 2.4h-2.8l4.9-14h2.4l4.8 14H647zm-3.2-9.8l-1.5 4.8h3l-1.5-4.8zm16.5-4.2v2.6h-4.1v11.4h-2.7v-11.4h-4.1v-2.6h10.9zm5.2 0v14h-2.7v-14h2.7zm12.3 12.5c-.9 1.2-2.2 1.8-3.8 1.8s-2.9-.6-3.8-1.8c-.9-1.2-1.4-3.1-1.4-5.7 0-2.3.5-4.1 1.4-5.3.9-1.2 2.2-1.8 3.8-1.8s2.9.6 3.8 1.8c.9 1.2 1.4 3 1.4 5.3 0 2.6-.5 4.4-1.4 5.7zm-1.3-5.7c0-1.6-.2-2.8-.6-3.5-.4-.7-1-1-1.9-1s-1.5.3-1.9 1-.6 1.8-.6 3.5c0 1.9.2 3.2.6 3.9.4.7 1 1.1 1.9 1.1s1.5-.4 1.9-1c.4-.8.6-2.1.6-4zm13.5-6.8h2.7v14h-2.5l-5-9v9h-2.7v-14h2.5l5 9v-9z" class="st2"/>
	</g>
	<path id="_x37_0-Mio-Line" d="M128 8.5h462.5" class="st4"/>
</svg>
