<?xml version="1.0" encoding="utf-8"?>
<!-- Generator: Adobe Illustrator 20.1.0, SVG Export Plug-In . SVG Version: 6.00 Build 0)  -->
<svg version="1.1" id="Ebene_1" xmlns="http://www.w3.org/2000/svg" xmlns:xlink="http://www.w3.org/1999/xlink" x="0px" y="0px"
	 viewBox="0 0 712 418" style="enable-background:new 0 0 712 418;" xml:space="preserve">
<style type="text/css">
	.st0{fill:#F7F7F7;}
	.st1{stroke:#000000;stroke-width:2;stroke-linecap:square;}
	.st2{enable-background:new    ;}
	.st3{fill:#FF0354;}
	.st4{fill:none;stroke:#FF0354;stroke-width:2;stroke-linecap:square;stroke-dasharray:1,10,1,10;}
</style>
<title>grafik</title>
<desc>Created with Sketch.</desc>
<g id="rect_eras">
	<path id="Rectangle-326" class="st0" d="M226.2,50.7h124.1v289.9H226.2L226.2,50.7z"/>
	<path id="Rectangle-326-Copy" class="st0" d="M354.3,50.7H557v289.9H354.3L354.3,50.7z"/>
	<path id="Rectangle-326-Copy-2" class="st0" d="M561,50.7h150.3v289.9H561V50.7z"/>
</g>
<path id="y-achse" class="st1" d="M49.6,351V41"/>
<path id="y-achse-decoration-1" class="st1" d="M49.6,41l-3,10.8h6L49.6,41z"/>
<path id="x-achse" class="st1" d="M59.3,365.2h588.8"/>
<path id="x-achse-decoration-1" class="st1" d="M648.1,365.2l-10.8-3v6L648.1,365.2z"/>
<g class="st2">
	<path d="M35.2,0.7v9c0,1.5-0.5,2.8-1.4,3.8c-1,1-2.2,1.5-3.7,1.5s-2.8-0.5-3.7-1.5c-1-1-1.4-2.2-1.4-3.8v-9h2.7v9.1
		c0,0.8,0.2,1.4,0.6,1.9s1,0.7,1.9,0.7s1.4-0.2,1.9-0.7s0.6-1.1,0.6-1.8V0.7C32.7,0.7,35.2,0.7,35.2,0.7z M38.5,9.9L41,9.4
		c0,0.3,0.1,0.6,0.1,0.8c0.1,0.2,0.1,0.5,0.3,0.8s0.3,0.5,0.5,0.7s0.5,0.4,0.8,0.5c0.4,0.1,0.8,0.2,1.3,0.2c0.7,0,1.3-0.2,1.7-0.5
		c0.5-0.3,0.7-0.8,0.7-1.4c0-0.5-0.2-1-0.6-1.3c-0.4-0.3-1-0.6-2-0.8C43.1,8.2,42.5,8,42,7.8S41,7.3,40.6,7c-0.5-0.3-0.8-0.7-1-1.2
		s-0.3-1-0.3-1.7c0-1.1,0.4-2,1.2-2.7c0.8-0.8,1.9-1.1,3.4-1.1c1.2,0,2.3,0.3,3.2,1s1.5,1.6,1.8,2.9l-2.5,0.5
		c-0.1-0.5-0.4-0.9-0.8-1.3c-0.4-0.2-1-0.4-1.7-0.4c-0.6,0-1.1,0.1-1.4,0.4C42.2,3.7,42,4,42,4.3c0,0.4,0.2,0.7,0.6,0.9
		s1.1,0.5,2,0.8C46,6.4,47,6.8,47.5,7.2c1.1,0.8,1.7,1.9,1.7,3.4c0,1.3-0.5,2.4-1.4,3.2S45.6,15,44.1,15c-0.8,0-1.6-0.1-2.2-0.3
		c-0.6-0.2-1.2-0.5-1.5-0.8c-0.4-0.3-0.7-0.8-1-1.2c-0.3-0.5-0.5-0.9-0.6-1.4C38.8,11.3,38.5,9.9,38.5,9.9z M61.7,12.1v2.6h-8.9v-14
		h8.9v2.6h-6.2V6h5.6v2.6h-5.6v3.5C55.5,12.1,61.7,12.1,61.7,12.1z M75.3,14.7h-3l-2.6-5.5h-1.6v5.5h-2.7v-14h5c1.2,0,2.2,0.4,3,1.2
		s1.2,1.8,1.2,3c0,0.9-0.2,1.6-0.5,2.2c-0.4,0.6-0.9,1.1-1.7,1.5C72.4,8.6,75.3,14.7,75.3,14.7z M70.4,6.6c0.2,0,0.4,0,0.6-0.1
		s0.4-0.2,0.6-0.5C71.9,5.8,72,5.5,72,5s-0.2-0.9-0.5-1.2s-0.7-0.5-1.1-0.5h-2.3v3.3H70.4z"/>
</g>
<g class="st2">
	<path d="M32.5,414.1v2.6H22.2v-2.6h3.9v-8.3l-3,1.9v-3l3.2-2h2.5v11.4H32.5z M39.6,411.8c-1.2,0-2.3-0.4-3.2-1.2
		c-1-0.8-1.5-2-1.5-3.5c0-1.4,0.5-2.5,1.4-3.4s2.1-1.3,3.4-1.3c1.7,0,3,0.6,4,1.8c0.9,1.2,1.4,3.1,1.4,5.6c0,2.4-0.5,4.2-1.4,5.4
		S41.6,417,40,417c-1.3,0-2.4-0.3-3.2-1s-1.3-1.8-1.6-3.3l2.5-0.4c0.1,0.8,0.4,1.4,0.7,1.7c0.3,0.3,0.9,0.5,1.6,0.5
		c1.6,0,2.4-1.1,2.4-3.4c-0.1,0.1-0.2,0.1-0.4,0.2s-0.5,0.2-1,0.4C40.6,411.7,40.1,411.8,39.6,411.8L39.6,411.8z M39.9,405
		c-0.2,0-0.4,0-0.6,0.1l-0.7,0.3c-0.3,0.1-0.5,0.4-0.6,0.7c-0.2,0.3-0.2,0.7-0.2,1.1s0.1,0.8,0.3,1.1s0.4,0.5,0.7,0.7
		c0.3,0.1,0.5,0.2,0.7,0.3c0.2,0.1,0.4,0.1,0.7,0.1c0.5,0,1-0.2,1.4-0.5s0.7-0.9,0.7-1.6s-0.2-1.3-0.7-1.6
		C40.8,405.1,40.3,405,39.9,405z M57.7,406.5c0,0.5-0.1,0.9-0.2,1.4s-0.3,0.7-0.4,0.9l-0.2,0.3l0.4,0.4c0.2,0.2,0.4,0.5,0.7,1.1
		s0.4,1.2,0.4,1.9c0,1.3-0.5,2.4-1.4,3.2c-1,0.8-2.1,1.3-3.5,1.3c-1.3,0-2.5-0.4-3.5-1.2c-1-0.8-1.5-1.9-1.5-3.3
		c0-0.4,0-0.8,0.1-1.2c0.1-0.4,0.2-0.7,0.4-1s0.3-0.5,0.5-0.7c0.1-0.2,0.3-0.3,0.4-0.4l0.1-0.1l-0.2-0.3c-0.1-0.1-0.2-0.4-0.4-0.9
		c-0.2-0.4-0.2-0.9-0.2-1.4c0-1.2,0.4-2.1,1.2-2.9s1.9-1.2,3.1-1.2c1.2,0,2.2,0.4,3.1,1.2S57.7,405.3,57.7,406.5L57.7,406.5z
		 M53.3,414.4c0.7,0,1.3-0.2,1.7-0.5c0.4-0.4,0.6-0.8,0.6-1.4s-0.2-1.1-0.6-1.5c-0.4-0.4-0.9-0.6-1.7-0.6c-0.7,0-1.2,0.2-1.6,0.6
		s-0.6,0.9-0.6,1.5s0.2,1.1,0.6,1.4C52.1,414.2,52.6,414.4,53.3,414.4z M53.3,405c-0.4,0-0.8,0.1-1.1,0.4s-0.5,0.7-0.5,1.1
		c0,0.5,0.2,0.9,0.5,1.2s0.7,0.4,1.1,0.4c0.4,0,0.8-0.1,1.1-0.4c0.4-0.2,0.5-0.6,0.5-1.2c0-0.4-0.2-0.8-0.5-1.1
		C54.2,405.1,53.8,405,53.3,405z M70.6,415.1c-0.9,1.2-2.2,1.8-3.8,1.8c-1.6,0-2.9-0.6-3.8-1.8c-0.9-1.2-1.4-3.1-1.4-5.7
		c0-2.3,0.5-4.1,1.4-5.3c0.9-1.2,2.2-1.8,3.8-1.8s2.9,0.6,3.8,1.8c0.9,1.2,1.4,3,1.4,5.3C72,412,71.5,413.9,70.6,415.1z M69.3,409.5
		c0-1.6-0.2-2.8-0.6-3.5s-1-1-1.9-1s-1.5,0.3-1.9,1s-0.6,1.8-0.6,3.5c0,1.9,0.2,3.2,0.6,3.9c0.4,0.7,1,1.1,1.9,1.1s1.5-0.4,1.9-1
		C69.1,412.6,69.3,411.3,69.3,409.5z"/>
</g>
<g class="st2">
	<path d="M212.6,414.1v2.6h-10.3v-2.6h3.9v-8.3l-3,1.9v-3l3.2-2h2.5v11.4H212.6L212.6,414.1z M219.6,411.8c-1.2,0-2.3-0.4-3.2-1.2
		s-1.5-2-1.5-3.5c0-1.4,0.5-2.5,1.4-3.4s2.1-1.3,3.4-1.3c1.7,0,3,0.6,4,1.8s1.4,3.1,1.4,5.6c0,2.4-0.5,4.2-1.4,5.4
		c-0.9,1.2-2.1,1.8-3.7,1.8c-1.3,0-2.4-0.3-3.2-1s-1.3-1.8-1.6-3.3l2.5-0.4c0.1,0.8,0.4,1.4,0.7,1.7c0.3,0.3,0.9,0.5,1.6,0.5
		c1.6,0,2.4-1.1,2.4-3.4l-0.3,0.2c-0.2,0.1-0.5,0.2-1,0.4L219.6,411.8L219.6,411.8z M219.9,405c-0.2,0-0.4,0-0.6,0.1l-0.7,0.3
		c-0.3,0.1-0.5,0.4-0.6,0.7c-0.2,0.3-0.2,0.7-0.2,1.1s0.1,0.8,0.3,1.1c0.2,0.3,0.4,0.5,0.7,0.7c0.3,0.1,0.5,0.2,0.7,0.3
		c0.2,0.1,0.4,0.1,0.7,0.1c0.5,0,1-0.2,1.4-0.5s0.7-0.9,0.7-1.6s-0.2-1.3-0.7-1.6C220.8,405.1,220.4,405,219.9,405L219.9,405z
		 M233,411.8c-1.2,0-2.3-0.4-3.2-1.2s-1.5-2-1.5-3.5c0-1.4,0.5-2.5,1.4-3.4s2.1-1.3,3.4-1.3c1.7,0,3,0.6,4,1.8s1.4,3.1,1.4,5.6
		c0,2.4-0.5,4.2-1.4,5.4c-0.9,1.2-2.1,1.8-3.7,1.8c-1.3,0-2.4-0.3-3.2-1s-1.3-1.8-1.6-3.3l2.5-0.4c0.1,0.8,0.4,1.4,0.7,1.7
		c0.3,0.3,0.9,0.5,1.6,0.5c1.6,0,2.4-1.1,2.4-3.4l-0.3,0.2c-0.2,0.1-0.5,0.2-1,0.4L233,411.8L233,411.8z M233.2,405
		c-0.2,0-0.4,0-0.6,0.1l-0.7,0.3c-0.3,0.1-0.5,0.4-0.6,0.7c-0.2,0.3-0.2,0.7-0.2,1.1s0.1,0.8,0.3,1.1c0.2,0.3,0.4,0.5,0.7,0.7
		c0.3,0.1,0.5,0.2,0.7,0.3c0.2,0.1,0.4,0.1,0.7,0.1c0.5,0,1-0.2,1.4-0.5s0.7-0.9,0.7-1.6s-0.2-1.3-0.7-1.6
		C234.2,405.1,233.7,405,233.2,405L233.2,405z M247.2,409.9c-1.1,0-1.8,0.4-2.2,1.1l-2.4-0.8l1.2-7.5h7.3v2.6h-5l-0.4,2.5
		c0.5-0.2,1-0.2,1.7-0.2c1.4,0,2.6,0.4,3.5,1.3c0.9,0.8,1.4,2,1.4,3.5s-0.5,2.6-1.4,3.5s-2.1,1.3-3.6,1.3c-1.4,0-2.5-0.4-3.4-1.1
		s-1.4-1.8-1.6-3l2.5-0.6c0.1,0.7,0.4,1.2,0.8,1.6c0.4,0.4,1,0.6,1.8,0.6c0.2,0,0.4,0,0.6-0.1c0.2,0,0.5-0.1,0.8-0.2
		s0.5-0.3,0.7-0.7c0.2-0.3,0.3-0.7,0.3-1.2s-0.1-0.8-0.3-1.2c-0.2-0.3-0.4-0.6-0.7-0.7s-0.5-0.3-0.8-0.3S247.4,409.9,247.2,409.9
		L247.2,409.9z"/>
</g>
<g class="st2">
	<path d="M341.4,405c-1.4,0-2.2,0.9-2.4,2.6l-2.5-0.4c0.1-1.4,0.6-2.5,1.5-3.4s2.1-1.3,3.4-1.3s2.5,0.4,3.4,1.2
		c0.9,0.8,1.4,1.9,1.4,3.3c0,1.1-0.4,1.9-1.1,2.6s-1.8,1.2-3.2,1.7c-0.5,0.2-0.9,0.3-1.3,0.5s-0.6,0.3-0.8,0.5
		c-0.2,0.1-0.3,0.3-0.4,0.5l-0.2,0.6v0.8h7v2.6h-9.8V414c0-1.3,0.3-2.3,0.9-3s1.6-1.3,3.1-1.8c0.5-0.2,0.8-0.3,1.1-0.4
		s0.6-0.3,0.9-0.5s0.6-0.4,0.7-0.6c0.2-0.2,0.2-0.5,0.2-0.8c0-0.6-0.2-1.1-0.5-1.4C342.6,405.2,342.1,405,341.4,405L341.4,405z
		 M358.6,415.1c-0.9,1.2-2.2,1.8-3.8,1.8c-1.6,0-2.9-0.6-3.8-1.8c-0.9-1.2-1.4-3.1-1.4-5.7c0-2.3,0.5-4.1,1.4-5.3
		c0.9-1.2,2.2-1.8,3.8-1.8s2.9,0.6,3.8,1.8c0.9,1.2,1.4,3,1.4,5.3C360,412,359.6,413.9,358.6,415.1z M357.3,409.5
		c0-1.6-0.2-2.8-0.6-3.5s-1-1-1.9-1s-1.5,0.3-1.9,1s-0.6,1.8-0.6,3.5c0,1.9,0.2,3.2,0.6,3.9c0.4,0.7,1,1.1,1.9,1.1s1.5-0.4,1.9-1
		C357.1,412.6,357.3,411.3,357.3,409.5z M372.5,415.1c-0.9,1.2-2.2,1.8-3.8,1.8s-2.9-0.6-3.8-1.8c-0.9-1.2-1.4-3.1-1.4-5.7
		c0-2.3,0.5-4.1,1.4-5.3c0.9-1.2,2.2-1.8,3.8-1.8c1.6,0,2.9,0.6,3.8,1.8c0.9,1.2,1.4,3,1.4,5.3C373.9,412,373.4,413.9,372.5,415.1z
		 M371.2,409.5c0-1.6-0.2-2.8-0.6-3.5s-1-1-1.9-1s-1.5,0.3-1.9,1s-0.6,1.8-0.6,3.5c0,1.9,0.2,3.2,0.6,3.9c0.4,0.7,1,1.1,1.9,1.1
		s1.5-0.4,1.9-1C371,412.6,371.2,411.3,371.2,409.5z M386.4,415.1c-0.9,1.2-2.2,1.8-3.8,1.8c-1.6,0-2.9-0.6-3.8-1.8
		c-0.9-1.2-1.4-3.1-1.4-5.7c0-2.3,0.5-4.1,1.4-5.3c0.9-1.2,2.2-1.8,3.8-1.8c1.6,0,2.9,0.6,3.8,1.8c0.9,1.2,1.4,3,1.4,5.3
		C387.7,412,387.3,413.9,386.4,415.1z M385,409.5c0-1.6-0.2-2.8-0.6-3.5s-1-1-1.9-1s-1.5,0.3-1.9,1s-0.6,1.8-0.6,3.5
		c0,1.9,0.2,3.2,0.6,3.9c0.4,0.7,1,1.1,1.9,1.1s1.5-0.4,1.9-1C384.8,412.6,385,411.3,385,409.5z"/>
</g>
<g class="st2">
	<path d="M547.3,405c-1.4,0-2.2,0.9-2.4,2.6l-2.5-0.4c0.1-1.4,0.6-2.5,1.5-3.4s2.1-1.3,3.4-1.3c1.3,0,2.5,0.4,3.4,1.2
		c0.9,0.8,1.4,1.9,1.4,3.3c0,1.1-0.4,1.9-1.1,2.6c-0.7,0.7-1.8,1.2-3.2,1.7c-0.5,0.2-0.9,0.3-1.3,0.5c-0.3,0.2-0.6,0.3-0.8,0.5
		c-0.2,0.1-0.3,0.3-0.4,0.5l-0.2,0.6v0.8h7v2.6h-9.8V414c0-1.3,0.3-2.3,0.9-3c0.6-0.7,1.6-1.3,3.1-1.8c0.5-0.2,0.8-0.3,1.1-0.4
		s0.6-0.3,0.9-0.5s0.6-0.4,0.7-0.6s0.2-0.5,0.2-0.8c0-0.6-0.2-1.1-0.5-1.4C548.5,405.2,548,405,547.3,405L547.3,405z M564.6,415.1
		c-0.9,1.2-2.2,1.8-3.8,1.8s-2.9-0.6-3.8-1.8c-0.9-1.2-1.4-3.1-1.4-5.7c0-2.3,0.5-4.1,1.4-5.3c0.9-1.2,2.2-1.8,3.8-1.8
		s2.9,0.6,3.8,1.8c0.9,1.2,1.4,3,1.4,5.3C565.9,412,565.5,413.9,564.6,415.1z M563.2,409.5c0-1.6-0.2-2.8-0.6-3.5
		c-0.4-0.7-1-1-1.9-1s-1.5,0.3-1.9,1s-0.6,1.8-0.6,3.5c0,1.9,0.2,3.2,0.6,3.9c0.4,0.7,1,1.1,1.9,1.1s1.5-0.4,1.9-1
		C563,412.6,563.2,411.3,563.2,409.5z M579.2,414.1v2.6h-10.3v-2.6h3.9v-8.3l-3,1.9v-3l3.2-2h2.5v11.4H579.2L579.2,414.1z
		 M587.2,409.9c-1.1,0-1.8,0.4-2.2,1.1l-2.4-0.8l1.2-7.5h7.3v2.6h-5l-0.4,2.5c0.5-0.2,1-0.2,1.7-0.2c1.4,0,2.6,0.4,3.5,1.3
		c0.9,0.8,1.4,2,1.4,3.5s-0.5,2.6-1.4,3.5s-2.1,1.3-3.7,1.3c-1.4,0-2.5-0.4-3.4-1.1s-1.4-1.8-1.6-3l2.5-0.6c0.1,0.7,0.4,1.2,0.8,1.6
		c0.4,0.4,1,0.6,1.8,0.6c0.2,0,0.4,0,0.6-0.1c0.2,0,0.5-0.1,0.8-0.2s0.5-0.3,0.7-0.7c0.2-0.3,0.3-0.7,0.3-1.2s-0.1-0.8-0.3-1.2
		c-0.2-0.3-0.4-0.6-0.6-0.7c-0.3-0.2-0.5-0.3-0.8-0.3C587.6,409.9,587.4,409.9,587.2,409.9L587.2,409.9z"/>
</g>
<g class="st2">
	<path d="M627.8,405c-1.4,0-2.2,0.9-2.4,2.6l-2.5-0.4c0.1-1.4,0.6-2.5,1.5-3.4s2.1-1.3,3.4-1.3c1.3,0,2.5,0.4,3.4,1.2
		c0.9,0.8,1.4,1.9,1.4,3.3c0,1.1-0.4,1.9-1.1,2.6c-0.7,0.7-1.8,1.2-3.2,1.7c-0.5,0.2-0.9,0.3-1.3,0.5c-0.3,0.2-0.6,0.3-0.8,0.5
		c-0.2,0.1-0.3,0.3-0.4,0.5l-0.2,0.6v0.8h7v2.6h-9.8V414c0-1.3,0.3-2.3,0.9-3c0.6-0.7,1.6-1.3,3.1-1.8c0.5-0.2,0.8-0.3,1.1-0.4
		s0.6-0.3,0.9-0.5s0.6-0.4,0.7-0.6s0.2-0.5,0.2-0.8c0-0.6-0.2-1.1-0.5-1.4S628.4,405,627.8,405L627.8,405z M645,415.1
		c-0.9,1.2-2.2,1.8-3.8,1.8s-2.9-0.6-3.8-1.8c-0.9-1.2-1.4-3.1-1.4-5.7c0-2.3,0.5-4.1,1.4-5.3c0.9-1.2,2.2-1.8,3.8-1.8
		s2.9,0.6,3.8,1.8c0.9,1.2,1.4,3,1.4,5.3C646.4,412,645.9,413.9,645,415.1z M643.7,409.5c0-1.6-0.2-2.8-0.6-3.5c-0.4-0.7-1-1-1.9-1
		s-1.5,0.3-1.9,1s-0.6,1.8-0.6,3.5c0,1.9,0.2,3.2,0.6,3.9c0.4,0.7,1,1.1,1.9,1.1s1.5-0.4,1.9-1C643.5,412.6,643.7,411.3,643.7,409.5
		z M655,405c-1.4,0-2.2,0.9-2.4,2.6l-2.5-0.4c0.1-1.4,0.6-2.5,1.5-3.4s2.1-1.3,3.4-1.3c1.3,0,2.5,0.4,3.4,1.2
		c0.9,0.8,1.4,1.9,1.4,3.3c0,1.1-0.4,1.9-1.1,2.6s-1.8,1.2-3.2,1.7c-0.5,0.2-0.9,0.3-1.3,0.5c-0.3,0.2-0.6,0.3-0.8,0.5
		c-0.2,0.1-0.3,0.3-0.4,0.5s-0.1,0.4-0.2,0.6v0.8h7v2.6H650V414c0-1.3,0.3-2.3,0.9-3c0.6-0.7,1.7-1.3,3.1-1.8
		c0.5-0.2,0.8-0.3,1.1-0.4s0.6-0.3,0.9-0.5c0.3-0.2,0.6-0.4,0.7-0.6c0.2-0.2,0.2-0.5,0.2-0.8c0-0.6-0.2-1.1-0.5-1.4
		S655.7,405,655,405L655,405z M672.3,415.1c-0.9,1.2-2.2,1.8-3.8,1.8s-2.9-0.6-3.8-1.8c-0.9-1.2-1.4-3.1-1.4-5.7
		c0-2.3,0.5-4.1,1.4-5.3c0.9-1.2,2.2-1.8,3.8-1.8s2.9,0.6,3.8,1.8c0.9,1.2,1.4,3,1.4,5.3C673.7,412,673.2,413.9,672.3,415.1z
		 M671,409.5c0-1.6-0.2-2.8-0.6-3.5c-0.4-0.7-1-1-1.9-1s-1.5,0.3-1.9,1s-0.6,1.8-0.6,3.5c0,1.9,0.2,3.2,0.6,3.9
		c0.4,0.7,1,1.1,1.9,1.1s1.5-0.4,1.9-1C670.8,412.6,671,411.3,671,409.5z"/>
</g>
<g class="st2">
	<path d="M69.5,268.2c-1.6,0-2.9-0.6-3.8-1.8s-1.4-3-1.4-5.5s0.5-4.3,1.4-5.5c1-1.2,2.2-1.8,3.8-1.8c1.6,0,2.9,0.6,3.9,1.8
		c1,1.2,1.4,3,1.4,5.5s-0.5,4.3-1.4,5.5S71.1,268.2,69.5,268.2z M69.5,266.1c1.1,0,1.9-0.4,2.4-1.2s0.7-2.1,0.7-4s-0.2-3.3-0.7-4
		s-1.3-1.2-2.4-1.2s-1.8,0.4-2.3,1.2s-0.7,2.1-0.7,4s0.2,3.2,0.7,4C67.6,265.7,68.4,266.1,69.5,266.1z M79.3,267.9v-8.6h-1.6v-2h1.6
		v-0.9c0-0.9,0.3-1.7,0.8-2.1s1.2-0.7,2.1-0.7c0.8,0,1.6,0.3,2.4,1l-1.1,1.6c-0.4-0.4-0.9-0.5-1.3-0.5c-0.5,0-0.7,0.3-0.7,1v0.7h3v2
		h-3v8.6h-2.2L79.3,267.9z M88.3,267.9v-8.6h-1.6v-2h1.6v-0.9c0-0.9,0.3-1.7,0.8-2.1s1.2-0.7,2.1-0.7c0.8,0,1.6,0.3,2.4,1l-1.1,1.6
		c-0.4-0.4-0.9-0.5-1.3-0.5c-0.5,0-0.7,0.3-0.7,1v0.7h6.9V268h-2.1v-8.6h-4.8v8.6h-2.2L88.3,267.9z M95.1,256.1V254h2.3v2.1H95.1z
		 M108.3,264.1l2.1,0.4c-0.3,1.3-0.9,2.2-1.7,2.8c-0.8,0.6-1.8,0.9-2.9,0.9c-1.4,0-2.6-0.5-3.5-1.5s-1.3-2.4-1.3-4.1
		c0-1.8,0.5-3.1,1.4-4.1s2.1-1.5,3.5-1.5c1.1,0,2.1,0.3,2.9,0.9s1.3,1.6,1.7,2.8l-2.1,0.4c-0.2-0.7-0.5-1.3-0.9-1.6
		c-0.4-0.3-0.9-0.5-1.6-0.5c-1.8,0-2.7,1.2-2.7,3.6s0.9,3.6,2.7,3.6c0.7,0,1.2-0.2,1.6-0.5C107.8,265.4,108.1,264.8,108.3,264.1
		L108.3,264.1z M120,264.4l2,0.6c-0.3,1.1-0.9,1.9-1.6,2.4s-1.6,0.8-2.7,0.8c-1.4,0-2.5-0.5-3.4-1.5s-1.3-2.4-1.3-4.2
		c0-1.8,0.4-3.1,1.3-4.1c0.8-1,2-1.5,3.4-1.5s2.6,0.5,3.4,1.5c0.9,1,1.3,2.4,1.3,4.1v0.6H115c0.1,1,0.3,1.7,0.7,2.2
		c0.4,0.5,1,0.8,1.9,0.8c0.6,0,1.1-0.1,1.5-0.4C119.5,265.5,119.8,265.1,120,264.4z M115.1,261.5h5c-0.1-0.7-0.3-1.3-0.7-1.8
		c-0.4-0.5-1-0.7-1.9-0.7s-1.5,0.2-1.8,0.7S115.2,260.7,115.1,261.5z"/>
</g>
<g class="st2">
	<path d="M269.1,267.2l-2.1-14h2.2l1.4,10.3l3-10.3h1.7l2.9,10.3l1.4-10.3h2.2l-2.1,14h-2.3l-3-10.1l-3.1,10.1H269.1z M291,263.7
		l2,0.6c-0.3,1.1-0.9,1.9-1.6,2.4s-1.6,0.8-2.7,0.8c-1.4,0-2.5-0.5-3.4-1.5s-1.3-2.4-1.3-4.2c0-1.8,0.4-3.1,1.3-4.1
		c0.8-1,2-1.5,3.4-1.5s2.6,0.5,3.4,1.5c0.9,1,1.3,2.4,1.3,4.1v0.6H286c0.1,1,0.3,1.7,0.7,2.2c0.4,0.5,1,0.8,1.9,0.8
		c0.6,0,1.1-0.1,1.5-0.4C290.5,264.8,290.8,264.3,291,263.7L291,263.7z M286.1,260.7h5c-0.1-0.7-0.3-1.3-0.7-1.8
		c-0.4-0.5-1-0.7-1.9-0.7s-1.5,0.2-1.8,0.7S286.2,260,286.1,260.7z M296.8,267.2v-14h2.1v4.1c0.8-0.7,1.7-1,2.8-1
		c1.4,0,2.5,0.5,3.4,1.5c0.8,1,1.3,2.3,1.3,4.1c0,1.8-0.4,3.2-1.3,4.2c-0.8,1-2,1.5-3.4,1.5c-1.1,0-2-0.3-2.8-1v0.7h-2.1V267.2z
		 M298.9,260.8v2.2c0,0.7,0.2,1.3,0.7,1.8c0.5,0.4,1.1,0.7,2,0.7s1.6-0.3,2-0.9s0.6-1.5,0.6-2.8s-0.2-2.2-0.6-2.7
		c-0.4-0.6-1.1-0.9-2-0.9s-1.6,0.2-2.1,0.7S298.9,260,298.9,260.8L298.9,260.8z"/>
</g>
<g class="st2">
	<path class="st3" d="M473.2,287.2v-14h2.8l3.7,10.8l3.7-10.8h2.8v14H484v-10.1l-3.5,10.1h-1.6l-3.5-10.1v10.1H473.2L473.2,287.2z
		 M494.7,287.5c-1.4,0-2.6-0.5-3.5-1.5s-1.3-2.4-1.3-4.2c0-1.8,0.5-3.1,1.4-4.1s2.1-1.5,3.5-1.5c1.5,0,2.6,0.5,3.5,1.5
		s1.4,2.4,1.4,4.1c0,1.8-0.5,3.1-1.4,4.1C497.3,287,496.1,287.5,494.7,287.5z M494.7,285.5c1.9,0,2.8-1.2,2.8-3.6s-0.9-3.6-2.8-3.6
		c-1.8,0-2.7,1.2-2.7,3.6S492.9,285.5,494.7,285.5z M503.1,287.2v-14h2.1v4.1c0.8-0.7,1.7-1,2.8-1c1.4,0,2.5,0.5,3.4,1.5
		c0.8,1,1.3,2.3,1.3,4.1c0,1.8-0.4,3.2-1.3,4.2c-0.8,1-2,1.5-3.4,1.5c-1.1,0-2-0.3-2.8-1v0.7h-2.1L503.1,287.2z M505.2,280.8v2.2
		c0,0.7,0.2,1.3,0.7,1.8c0.5,0.4,1.1,0.7,2,0.7s1.6-0.3,2-0.9s0.6-1.5,0.6-2.8s-0.2-2.2-0.6-2.7c-0.4-0.6-1.1-0.9-2-0.9
		s-1.6,0.2-2.1,0.7S505.2,280,505.2,280.8L505.2,280.8z M516.2,275.3v-2.1h2.3v2.1H516.2z M516.3,287.2v-10.6h2.1v10.6H516.3z
		 M522.8,287.2v-14h2.1v14H522.8z M535.5,283.7l2,0.6c-0.3,1.1-0.9,1.9-1.6,2.4c-0.7,0.5-1.6,0.8-2.7,0.8c-1.4,0-2.5-0.5-3.4-1.5
		s-1.3-2.4-1.3-4.2c0-1.8,0.4-3.1,1.3-4.1c0.8-1,2-1.5,3.4-1.5s2.6,0.5,3.4,1.5c0.9,1,1.3,2.4,1.3,4.1v0.6h-7.3
		c0.1,1,0.3,1.7,0.7,2.2s1,0.8,1.9,0.8c0.6,0,1.1-0.1,1.5-0.4S535.3,284.3,535.5,283.7L535.5,283.7z M530.6,280.7h5
		c-0.1-0.7-0.3-1.3-0.7-1.8s-1-0.7-1.8-0.7c-0.9,0-1.5,0.2-1.8,0.7C530.9,279.4,530.7,280,530.6,280.7z"/>
</g>
<g id="Kurven">
	<path id="Path-2031-office" d="M32.4,324.6c-17.8,0-29.5-1-29.7-1.1c-1.6-0.2-2.9-1.6-2.7-3.3s1.6-2.9,3.3-2.7
		c0.3,0,34.6,3.1,75.4-1.4c68-7.5,101.5-29.9,117.6-47.4c16.7-18.1,49.4-42.5,110.5-55.6c36.4-7.8,66.1-7.9,66.4-7.9
		c1.7,0,3,1.3,3,3s-1.3,3-3,3c-0.3,0-29.5,0.1-65.2,7.8c-32.8,7-78,22.1-107.2,53.8C184,291,149.4,314.3,79.5,322.1
		C61.8,324.1,45.5,324.6,32.4,324.6z"/>
	<path id="Path-2031-web" d="M285.1,299.2c-12.5,0-20.7-1.3-21.3-1.4c-1.6-0.3-2.7-1.8-2.5-3.4c0.3-1.6,1.8-2.8,3.4-2.5
		c0.2,0,24.4,3.8,53.1-1.8c38.2-7.4,65.9-27,82.3-58.1c21.5-40.7,54.7-59.9,78.8-68.9c26.1-9.7,46.8-9.8,47.6-9.8c1.7,0,3,1.3,3,3
		s-1.3,3-3,3c-0.2,0-20.7,0.1-45.8,9.5c-23,8.6-54.8,27.1-75.4,66c-17.1,32.4-47.1,53.5-86.7,61.2
		C306.2,298.5,294.4,299.2,285.1,299.2L285.1,299.2z"/>
	<path id="Path-2031-mobile" class="st3" d="M484.9,248c-8.4,0-14-2.1-14.4-2.3c-1.5-0.6-2.3-2.4-1.7-3.9c0.6-1.5,2.3-2.3,3.9-1.7
		c0.1,0,4.1,1.5,10.3,1.8c8.3,0.4,16.4-1.6,24.1-5.7c22.6-12.2,39.9-43.4,50-90.1c10.9-50.7,27.8-86.8,50.1-107.2
		C624.4,23.2,638.4,23,639,23c1.7,0,3,1.3,3,3s-1.3,3-3,3c-0.1,0-12.7,0.3-28.2,14.8c-26.4,24.6-40.6,69.9-47.8,103.6
		c-10.6,49.3-28.5,81-53.2,94.2C500.4,246.6,491.7,248,484.9,248L484.9,248z"/>
</g>
<g id="_x31_">
	<path d="M293.8,61.4V64h-10.3v-2.6h3.9v-8.3l-3,1.9v-3l3.2-2h2.5v11.4H293.8L293.8,61.4z"/>
	<g class="st2">
		<path d="M261,95.2v2.6h-8.9v-14h8.9v2.6h-6.2v2.7h5.6v2.6h-5.6v3.5C254.8,95.2,261,95.2,261,95.2z M273.7,83.8l-3.8,6.6l4.3,7.4
			h-3.1l-2.8-5.2l-2.8,5.2h-3l4.3-7.3l-3.9-6.7h3.1l2.3,4.4l2.4-4.4H273.7z M276.4,83.8h5c1.2,0,2.2,0.4,3.1,1.3
			c0.9,0.8,1.3,1.9,1.3,3.1s-0.4,2.3-1.2,3.1s-1.9,1.3-3.1,1.3h-2.3v5.2h-2.7L276.4,83.8L276.4,83.8z M281.5,90
			c0.5,0,0.9-0.2,1.2-0.5c0.3-0.4,0.5-0.8,0.5-1.3c0-0.6-0.2-1-0.5-1.3s-0.7-0.5-1.2-0.5h-2.4V90C279.1,90,281.5,90,281.5,90z
			 M297.1,95.2v2.6h-8.9v-14h8.9v2.6h-6.2v2.7h5.6v2.6h-5.6v3.5C290.9,95.2,297.1,95.2,297.1,95.2z M310.1,97.8h-3l-2.6-5.5h-1.6
			v5.5h-2.7v-14h5c1.2,0,2.2,0.4,3,1.2c0.8,0.8,1.2,1.8,1.2,3c0,0.9-0.2,1.6-0.5,2.2c-0.4,0.6-0.9,1.1-1.7,1.5L310.1,97.8
			L310.1,97.8z M305.2,89.7c0.2,0,0.4,0,0.6-0.1s0.4-0.2,0.6-0.5s0.3-0.6,0.3-1c0-0.5-0.2-0.9-0.5-1.2c-0.3-0.3-0.7-0.5-1.1-0.5
			h-2.3v3.3C302.8,89.7,305.2,89.7,305.2,89.7z M315.9,83.8v14h-2.7v-14H315.9z M319,91.2h6.6v2.6H319V91.2z"/>
	</g>
	<g class="st2">
		<path d="M245.2,117.6h3.1v14h-2.6v-9.1l-3.2,9.1h-1.8l-3.1-9.1v9.1h-2.7v-14h3.2l3.6,10.5L245.2,117.6z M260.9,129v2.6H252v-14
			h8.9v2.6h-6.2v2.7h5.6v2.6h-5.6v3.5H260.9z M271.5,117.6h2.7v14h-2.5l-5-9v9H264v-14h2.5l5,9V117.6z M287.6,117.6v2.6h-4.1v11.4
			h-2.7v-11.4h-4.1v-2.6H287.6L287.6,117.6z M296.4,131.6l-0.8-2.4h-4.8l-0.8,2.4h-2.8l4.9-14h2.4l4.8,14H296.4L296.4,131.6z
			 M293.2,121.8l-1.5,4.8h3L293.2,121.8z M309.8,117.6v2.6h-4.1v11.4H303v-11.4h-4.1v-2.6H309.8L309.8,117.6z M315,117.6v14h-2.7
			v-14H315z M327.3,130.1c-0.9,1.2-2.2,1.8-3.8,1.8c-1.6,0-2.9-0.6-3.8-1.8s-1.4-3.1-1.4-5.7c0-2.3,0.5-4.1,1.4-5.3
			c0.9-1.2,2.2-1.8,3.8-1.8s2.9,0.6,3.8,1.8c0.9,1.2,1.4,3,1.4,5.3C328.6,127,328.2,128.9,327.3,130.1z M325.9,124.4
			c0-1.6-0.2-2.8-0.6-3.5s-1-1-1.9-1s-1.5,0.3-1.9,1s-0.6,1.8-0.6,3.5c0,1.9,0.2,3.2,0.6,3.9s1,1.1,1.9,1.1s1.5-0.4,1.9-1
			C325.8,127.6,325.9,126.3,325.9,124.4z M339.4,117.6h2.7v14h-2.4l-5-9v9H332v-14h2.5l5,9v-9H339.4z"/>
	</g>
</g>
<g id="_x32_">
	<path d="M455.1,52.9c-1.4,0-2.2,0.9-2.4,2.6l-2.5-0.4c0.1-1.4,0.6-2.5,1.5-3.5c0.9-0.9,2.1-1.3,3.4-1.3s2.5,0.4,3.4,1.2
		s1.4,1.9,1.4,3.3c0,1.1-0.4,1.9-1.1,2.6c-0.7,0.7-1.8,1.2-3.2,1.7c-0.5,0.2-0.9,0.4-1.2,0.5c-0.3,0.2-0.6,0.3-0.8,0.5
		c-0.2,0.1-0.3,0.3-0.4,0.5c-0.1,0.3-0.1,0.5-0.1,0.6V62h7v2.6h-9.8V62c0-1.3,0.3-2.3,0.9-3s1.6-1.3,3.1-1.8
		c0.5-0.2,0.8-0.3,1.1-0.4c0.3-0.1,0.6-0.3,0.9-0.5s0.6-0.4,0.7-0.6s0.2-0.5,0.2-0.8c0-0.6-0.2-1.1-0.5-1.4
		C456.3,53.1,455.8,52.9,455.1,52.9z"/>
	<g class="st2">
		<path d="M416.9,98.4h-5v-14h5.1c3.4,0,5.1,2.3,5.1,6.8C422.1,96,420.4,98.4,416.9,98.4z M416.9,95.8c0.6,0,1.1-0.1,1.4-0.3
			c0.3-0.2,0.6-0.7,0.8-1.4c0.2-0.7,0.3-1.7,0.3-2.9c0-1.6-0.2-2.7-0.5-3.3c-0.3-0.6-1-0.9-1.8-0.9h-2.4v8.8
			C414.7,95.8,416.9,95.8,416.9,95.8z M428,84.4v14h-2.7v-14H428z M436.5,98.7c-1.6,0-2.9-0.6-3.8-1.8c-0.9-1.2-1.4-3.1-1.4-5.7
			c0-2.3,0.5-4.1,1.4-5.3c0.9-1.2,2.2-1.8,3.8-1.8c1.4,0,2.5,0.5,3.5,1.5s1.4,2.2,1.5,3.7l-2.5,0.3c-0.2-1.9-1-2.9-2.5-2.9
			c-0.9,0-1.5,0.3-1.9,1s-0.6,1.8-0.6,3.5c0,1.9,0.2,3.2,0.6,3.9c0.4,0.7,1,1.1,1.9,1.1c0.8,0,1.4-0.2,1.8-0.7s0.6-1.1,0.6-1.8h-3.1
			v-2.5h5.8v2.4c0,1.5-0.5,2.8-1.4,3.8C439.3,98.2,438,98.7,436.5,98.7L436.5,98.7z M447.7,84.4v14H445v-14H447.7z M461.1,84.4V87
			H457v11.4h-2.7V87h-4.1v-2.6H461.1L461.1,84.4z M469.9,98.4l-0.8-2.4h-4.8l-0.8,2.4h-2.8l4.9-14h2.4l4.8,14H469.9L469.9,98.4z
			 M466.7,88.6l-1.5,4.8h3L466.7,88.6z M475.1,84.4h2.7v11.4h5.8v2.6h-8.5V84.4z M488.8,84.4v14h-2.7v-14H488.8z M491.9,91.8h6.6
			v2.6h-6.6V91.8z"/>
	</g>
	<g class="st2">
		<path d="M421.5,127.3l2.5-0.5c0,0.3,0.1,0.6,0.1,0.8s0.2,0.5,0.3,0.8c0.1,0.3,0.3,0.5,0.5,0.7s0.5,0.4,0.8,0.5
			c0.4,0.1,0.8,0.2,1.3,0.2c0.7,0,1.3-0.2,1.7-0.5c0.5-0.3,0.7-0.8,0.7-1.4c0-0.5-0.2-1-0.6-1.3s-1-0.6-2-0.8
			c-0.7-0.2-1.3-0.4-1.8-0.6s-1-0.5-1.4-0.8c-0.5-0.3-0.8-0.7-1-1.2s-0.3-1-0.3-1.7c0-1.1,0.4-2,1.2-2.7c0.8-0.8,1.9-1.1,3.4-1.1
			c1.2,0,2.3,0.3,3.2,1c0.9,0.7,1.5,1.6,1.8,2.9l-2.5,0.5c-0.1-0.5-0.4-0.9-0.8-1.3s-0.9-0.5-1.6-0.5c-0.6,0-1.1,0.1-1.4,0.4
			c-0.3,0.2-0.5,0.5-0.5,0.9s0.2,0.7,0.6,0.9c0.4,0.2,1.1,0.5,2,0.8c1.3,0.4,2.3,0.8,2.8,1.2c1.1,0.8,1.7,1.9,1.7,3.4
			c0,1.3-0.5,2.4-1.4,3.2s-2.2,1.2-3.7,1.2c-0.8,0-1.6-0.1-2.2-0.3s-1.2-0.5-1.5-0.8s-0.7-0.8-1-1.2c-0.3-0.5-0.5-0.9-0.6-1.4
			C421.7,128.3,421.6,127.8,421.5,127.3L421.5,127.3z M443.1,132.2l-0.8-2.4h-4.8l-0.8,2.4h-2.8l4.9-14h2.4l4.8,14H443.1
			L443.1,132.2z M439.9,122.4l-1.5,4.8h3L439.9,122.4z M456.5,118.2v2.6h-4.1v11.4h-2.7v-11.4h-4.1v-2.6H456.5L456.5,118.2z
			 M461.7,118.2v14H459v-14H461.7z M474,130.7c-0.9,1.2-2.2,1.8-3.8,1.8c-1.6,0-2.9-0.6-3.8-1.8s-1.4-3.1-1.4-5.7
			c0-2.3,0.5-4.1,1.4-5.3c0.9-1.2,2.2-1.8,3.8-1.8c1.6,0,2.9,0.6,3.8,1.8c0.9,1.2,1.4,3,1.4,5.3C475.3,127.6,474.9,129.4,474,130.7z
			 M472.6,125c0-1.6-0.2-2.8-0.6-3.5s-1-1-1.9-1s-1.5,0.3-1.9,1s-0.6,1.8-0.6,3.5c0,1.9,0.2,3.2,0.6,3.9s1,1.1,1.9,1.1
			s1.5-0.4,1.9-1C472.5,128.2,472.6,126.9,472.6,125z M486.1,118.2h2.7v14h-2.5l-5-9v9h-2.7v-14h2.5l5,9V118.2z"/>
	</g>
</g>
<g id="_x33_">
	<path d="M638.4,64.9c-1.4,0-2.6-0.4-3.6-1.3s-1.6-2.2-1.8-4.1l2.6-0.5c0.1,1.2,0.4,2,1,2.5c0.5,0.5,1.1,0.8,1.9,0.8
		c0.3,0,0.6,0,0.8-0.1c0.3-0.1,0.5-0.1,0.8-0.3c0.3-0.1,0.5-0.3,0.7-0.6s0.2-0.6,0.2-1.1c0-0.6-0.2-1-0.5-1.3s-0.8-0.5-1.3-0.5h-1.8
		v-2.2h1.3c1.1,0,1.7-0.5,1.7-1.6c0-0.5-0.2-0.9-0.5-1.2s-0.8-0.5-1.4-0.5c-0.6,0-1.1,0.2-1.4,0.5s-0.5,0.8-0.6,1.5l-2.5-0.4
		c0.1-1.3,0.6-2.2,1.4-3c0.8-0.7,1.9-1.1,3.1-1.1c1.2,0,2.3,0.4,3.2,1.1s1.4,1.8,1.4,3.2c0,0.5-0.1,0.9-0.2,1.3s-0.3,0.7-0.4,0.9
		l-0.2,0.3c0,0,0.1,0.1,0.2,0.1s0.2,0.2,0.4,0.3c0.2,0.2,0.3,0.4,0.4,0.6c0.1,0.2,0.2,0.5,0.3,0.9s0.2,0.8,0.2,1.3
		c0,1.4-0.5,2.5-1.4,3.4C641.3,64.5,640,64.9,638.4,64.9L638.4,64.9z"/>
	<g class="st2">
		<path d="M612.9,84.4V87h-4.1v11.4h-2.7V87H602v-2.6H612.9L612.9,84.4z M625.3,98.4h-3l-2.6-5.5h-1.6v5.5h-2.7v-14h5
			c1.2,0,2.2,0.4,3,1.2c0.8,0.8,1.2,1.8,1.2,3c0,0.9-0.2,1.6-0.5,2.2c-0.4,0.6-0.9,1.1-1.7,1.5L625.3,98.4L625.3,98.4z M620.4,90.3
			c0.2,0,0.4,0,0.6-0.1c0.2-0.1,0.4-0.2,0.6-0.5c0.2-0.3,0.3-0.6,0.3-1c0-0.5-0.2-0.9-0.5-1.2c-0.3-0.3-0.7-0.5-1.1-0.5H618v3.3
			C618,90.3,620.4,90.3,620.4,90.3z M636.3,98.4l-0.8-2.4h-4.8l-0.8,2.4h-2.8l4.9-14h2.4l4.8,14H636.3L636.3,98.4z M633.1,88.6
			l-1.5,4.8h3L633.1,88.6z M649,84.4h2.7v14h-2.5l-5-9v9h-2.7v-14h2.5l5,9V84.4z M654.7,93.5l2.5-0.5c0,0.3,0.1,0.6,0.1,0.8
			c0.1,0.2,0.1,0.5,0.3,0.8c0.1,0.3,0.3,0.5,0.5,0.7s0.5,0.4,0.8,0.5c0.4,0.1,0.8,0.2,1.3,0.2c0.7,0,1.3-0.2,1.7-0.5
			s0.7-0.8,0.7-1.4c0-0.5-0.2-1-0.6-1.3c-0.4-0.3-1-0.6-2-0.8c-0.7-0.2-1.3-0.4-1.8-0.6s-1-0.5-1.4-0.8c-0.5-0.3-0.8-0.7-1-1.2
			s-0.3-1-0.3-1.7c0-1.1,0.4-2,1.2-2.7s2-1.1,3.4-1.1c1.2,0,2.3,0.3,3.2,1s1.5,1.6,1.8,2.9l-2.5,0.5c-0.1-0.5-0.4-0.9-0.8-1.3
			s-0.9-0.5-1.6-0.5c-0.6,0-1.1,0.1-1.4,0.4c-0.3,0.2-0.5,0.5-0.5,0.9s0.2,0.7,0.7,0.9c0.4,0.2,1.1,0.5,2,0.8
			c1.3,0.4,2.3,0.8,2.8,1.2c1.1,0.8,1.7,1.9,1.7,3.4c0,1.3-0.5,2.4-1.4,3.2c-0.9,0.8-2.2,1.2-3.7,1.2c-0.8,0-1.6-0.1-2.2-0.3
			c-0.6-0.2-1.2-0.5-1.5-0.8c-0.4-0.3-0.7-0.8-1-1.2c-0.3-0.5-0.5-0.9-0.6-1.4C654.9,94.5,654.8,94,654.7,93.5z M667.8,91.8h6.6v2.6
			h-6.6V91.8z"/>
	</g>
	<g class="st2">
		<path d="M593.1,120.8h-6.2v3.1h5.6v2.6h-5.6v5.7h-2.7v-14h8.9C593.1,118.2,593.1,120.8,593.1,120.8z M604.2,130.7
			c-0.9,1.2-2.2,1.8-3.8,1.8s-2.9-0.6-3.8-1.8c-0.9-1.2-1.4-3.1-1.4-5.7c0-2.3,0.5-4.1,1.4-5.3c0.9-1.2,2.2-1.8,3.8-1.8
			s2.9,0.6,3.8,1.8c0.9,1.2,1.4,3,1.4,5.3C605.6,127.6,605.1,129.4,604.2,130.7z M602.9,125c0-1.6-0.2-2.8-0.6-3.5
			c-0.4-0.7-1-1-1.9-1s-1.5,0.3-1.9,1s-0.6,1.8-0.6,3.5c0,1.9,0.2,3.2,0.6,3.9c0.4,0.7,1,1.1,1.9,1.1s1.5-0.4,1.9-1
			C602.7,128.2,602.9,126.9,602.9,125z M618.8,132.2h-3l-2.6-5.5h-1.6v5.5h-2.7v-14h5c1.2,0,2.2,0.4,3,1.2c0.8,0.8,1.2,1.8,1.2,3
			c0,0.9-0.2,1.6-0.5,2.2c-0.4,0.6-0.9,1.1-1.7,1.5L618.8,132.2L618.8,132.2z M613.9,124.1c0.2,0,0.4,0,0.6-0.1
			c0.2-0.1,0.4-0.2,0.6-0.5c0.2-0.3,0.3-0.6,0.3-1c0-0.5-0.2-0.9-0.5-1.2c-0.3-0.3-0.7-0.5-1.1-0.5h-2.3v3.3
			C611.5,124.1,613.9,124.1,613.9,124.1z M632.2,118.2h3.1v14h-2.6v-9.1l-3.2,9.1h-1.8l-3.1-9.1v9.1h-2.7v-14h3.2l3.6,10.5
			L632.2,118.2z M647,132.2l-0.8-2.4h-4.8l-0.8,2.4h-2.8l4.9-14h2.4l4.8,14H647L647,132.2z M643.8,122.4l-1.5,4.8h3L643.8,122.4z
			 M660.3,118.2v2.6h-4.1v11.4h-2.7v-11.4h-4.1v-2.6H660.3L660.3,118.2z M665.5,118.2v14h-2.7v-14H665.5z M677.8,130.7
			c-0.9,1.2-2.2,1.8-3.8,1.8s-2.9-0.6-3.8-1.8c-0.9-1.2-1.4-3.1-1.4-5.7c0-2.3,0.5-4.1,1.4-5.3c0.9-1.2,2.2-1.8,3.8-1.8
			s2.9,0.6,3.8,1.8c0.9,1.2,1.4,3,1.4,5.3C679.2,127.6,678.7,129.4,677.8,130.7z M676.5,125c0-1.6-0.2-2.8-0.6-3.5
			c-0.4-0.7-1-1-1.9-1s-1.5,0.3-1.9,1s-0.6,1.8-0.6,3.5c0,1.9,0.2,3.2,0.6,3.9c0.4,0.7,1,1.1,1.9,1.1s1.5-0.4,1.9-1
			C676.3,128.2,676.5,126.9,676.5,125z M690,118.2h2.7v14h-2.5l-5-9v9h-2.7v-14h2.5l5,9V118.2z"/>
	</g>
</g>
<path id="_x37_0-Mio-Line" class="st4" d="M128,8.5h462.5"/>
</svg>
