<svg xmlns="http://www.w3.org/2000/svg" viewBox="0 0 659 288">
  <g fill="#4502DA" fill-rule="evenodd">
    <path d="M71.023 105.495c10.106 0 32.844 5.612 32.844 32.828 0 28.057-24.984 30.02-32.844 30.02-24.142 0-32.283-12.344-35.652-30.582L0 146.18c5.614 34.228 30.88 58.638 71.023 58.638 41.547 0 70.742-24.41 70.742-66.495 0-42.086-29.195-66.216-67.935-66.216-13.194 0-23.3 3.367-23.3 3.367l5.053-34.79h70.18V4.208H22.74L6.175 109.703l33.967 10.662c7.3-12.626 19.65-14.87 30.88-14.87zm213.35-6.172c0 54.15-10.388 69.02-34.81 69.02-24.424 0-34.81-15.15-34.81-69.02 0-46.575 10.386-62.85 34.81-62.85 24.422 0 34.81 16.555 34.81 62.85zm-34.81 105.495c43.51 0 72.706-30.302 72.706-105.495C322.27 31.705 293.073 0 249.56 0s-72.707 31.705-72.707 99.323c0 75.193 29.195 105.495 72.707 105.495zM470.49 99.323c0 54.15-10.386 69.02-34.81 69.02-24.422 0-34.81-15.15-34.81-69.02 0-46.575 10.388-62.85 34.81-62.85 24.424 0 34.81 16.555 34.81 62.85zm-34.81 105.495c43.513 0 72.708-30.302 72.708-105.495C508.388 31.705 479.193 0 435.68 0c-43.51 0-72.706 31.705-72.706 99.323 0 75.193 29.195 105.495 72.707 105.495zm222.333-73.79V94.553h-41.828V51.906h-37.897v42.647H536.46v36.475h41.828v42.927h37.897v-42.927h41.828zM76.687 250.007h-28.8v6.866H58.72v30.104h7.134v-30.104h10.833v-6.866zm80.642 36.97h7.608l-12.787-36.97h-6.287l-12.84 36.97h7.344l2.167-6.444h12.63l2.165 6.444zm-8.455-25.985l4.016 12.676h-7.98l3.965-12.676zm79.797-10.985v36.97h22.405v-6.866h-15.272v-30.103h-7.133zm109.81 30.104H322.21v-9.136h14.795v-6.866h-14.795v-7.235h16.275v-6.866h-23.41v36.97h23.41v-6.866zm85.293-30.103v23.713l-13.104-23.713h-6.605v36.97h7.134v-23.714l13.262 23.714h6.5v-36.97h-7.187zm99.983 0h-28.8v6.866h10.834v30.104h7.134v-30.104h10.832v-6.866zm60.3 24.083c.58 5.863 3.328 13.68 14.636 13.68 8.296 0 13.58-4.86 13.58-11.726 0-8.66-6.605-10.51-11.89-12.2-3.91-1.162-7.08-2.165-7.08-4.436 0-1.69 1.796-3.327 5.073-3.327 4.016 0 5.865 2.694 6.446 4.754l6.606-1.426c-1.64-6.866-6.924-10.193-13.053-10.193-8.032 0-12.207 4.964-12.207 10.193 0 6.866 5.39 9.295 12.207 11.038 4.808 1.268 6.763 2.746 6.763 5.598 0 3.433-3.064 4.86-6.446 4.86-6.553 0-7.61-4.807-8.032-8.03l-6.605 1.216z"/>
  </g>
</svg>