<svg xmlns="http://www.w3.org/2000/svg" viewBox="0 0 535 617" enable-background="new 0 0 535 617"><style type="text/css">.st0{opacity:0.5;} .st1{fill:#FFFFFF;} .st2{fill:#E4DBFA;} .st3{fill:#CAB7F4;} .st4{fill:#AF93EF;} .st5{fill:#956EEB;} .st6{fill:#7A4AE5;} .st7{fill:#6026DF;} .st8{fill:#4502DA;}</style><g class="st0"><path class="st1" d="M361.3 391.1c-114.2 0-188-76.7-188-195.5s73.8-195.4 188-195.4c43.6 0 82.3 10.4 111.8 30.1 33.5 22.3 54.1 55.2 61.2 97.8v.3l-7.8 7.8h-90.4l-7.7-7.7v-.1c-8-24-31.8-37.2-67-37.2-26 0-46.4 9.1-60.5 27-14.2 18-21.5 44.1-21.5 77.5s7.2 59.5 21.5 77.5c14.1 17.9 34.5 27 60.5 27 35.2 0 59-13.2 67-37.2v-.1l7.7-7.7h90.4l7.8 7.8v.3c-7.1 42.6-27.7 75.5-61.2 97.8-29.5 19.6-68.1 30-111.8 30zm0-389.9c-113.6 0-187 76.3-187 194.5s73.4 194.5 187 194.5c43.4 0 81.9-10.3 111.3-29.9 33.2-22.1 53.6-54.7 60.7-96.9l-7.2-7.2h-89.6l-7.3 7.3c-4.8 14.1-19.9 37.7-67.9 37.7-26.4 0-47-9.2-61.3-27.4-14.4-18.2-21.7-44.5-21.7-78.1 0-33.6 7.3-59.9 21.7-78.1 14.3-18.2 35-27.4 61.3-27.4 48 0 63.2 23.6 67.9 37.7l7.3 7.3h89.6l7.2-7.2c-7.1-42.2-27.5-74.8-60.7-96.9-29.4-19.6-67.8-29.9-111.3-29.9z"/><path class="st2" d="M336.6 423.4c-114.2 0-188-76.7-188-195.5s73.8-195.5 188-195.5c43.6 0 82.3 10.4 111.8 30.1 33.5 22.3 54.1 55.2 61.2 97.8v.3l-7.8 7.8h-90.4l-7.7-7.7v-.1c-8-24-31.8-37.2-67-37.2-26 0-46.4 9.1-60.5 27-14.2 18-21.5 44.1-21.5 77.5s7.2 59.5 21.5 77.5c14.1 17.9 34.5 27 60.5 27 35.2 0 59-13.2 67-37.2v-.1l7.7-7.7h90.4l7.8 7.8v.3c-7.1 42.6-27.7 75.5-61.2 97.8-29.5 19.7-68.2 30.1-111.8 30.1zm0-390c-113.6 0-187 76.3-187 194.5s73.4 194.5 187 194.5c43.4 0 81.9-10.3 111.3-29.9 33.2-22.1 53.6-54.7 60.7-96.9l-7.2-7.2h-89.6l-7.3 7.3c-4.8 14.1-19.9 37.7-67.9 37.7-26.4 0-47-9.2-61.3-27.4-14.4-18.2-21.7-44.5-21.7-78.1 0-33.6 7.3-59.9 21.7-78.1 14.3-18.2 35-27.4 61.3-27.4 48 0 63.2 23.6 67.9 37.7l7.3 7.3h89.6l7.2-7.2c-7.1-42.2-27.5-74.8-60.7-96.9-29.4-19.5-67.9-29.9-111.3-29.9z"/><path class="st3" d="M311.8 455.7c-114.2 0-188-76.7-188-195.5s73.8-195.5 188-195.5c43.6 0 82.3 10.4 111.8 30.1 33.5 22.3 54.1 55.2 61.2 97.8v.3l-7.8 7.8h-90.4l-7.7-7.7v-.1c-8-24-31.8-37.2-67-37.2-26 0-46.4 9.1-60.5 27-14.2 18-21.5 44.1-21.5 77.5s7.2 59.5 21.5 77.5c14.1 17.9 34.5 27 60.5 27 35.2 0 59-13.2 67-37.2v-.1l.1-.1 7.6-7.6h90.4l7.8 7.8v.3c-7.1 42.6-27.7 75.5-61.2 97.8-29.4 19.7-68.1 30.1-111.8 30.1zm0-390c-113.6 0-187 76.3-187 194.5 0 118.1 73.4 194.5 187 194.5 43.4 0 81.9-10.3 111.3-29.9 33.2-22.1 53.6-54.7 60.7-96.9l-7.2-7.2h-89.6l-7.3 7.3c-4.8 14.1-19.9 37.7-67.9 37.7-26.4 0-47-9.2-61.3-27.4-14.4-18.2-21.7-44.5-21.7-78.1 0-33.6 7.3-59.9 21.7-78.1 14.3-18.2 35-27.4 61.3-27.4 48 0 63.2 23.6 67.9 37.7l7.3 7.3h89.6l7.2-7.2c-7.1-42.2-27.5-74.8-60.7-96.9-29.3-19.6-67.8-29.9-111.3-29.9z"/><path class="st4" d="M287.1 487.9c-114.2 0-188-76.7-188-195.5s73.8-195.4 188-195.4c43.6 0 82.3 10.4 111.8 30.1 33.5 22.3 54.1 55.2 61.2 97.8v.3l-7.8 7.8h-90.4l-7.7-7.7v-.1c-8-24-31.8-37.2-67-37.2-26 0-46.4 9.1-60.5 27-14.2 18-21.5 44.1-21.5 77.5s7.2 59.5 21.5 77.5c14.1 17.9 34.5 27 60.5 27 35.2 0 59-13.2 67-37.2v-.1l.1-.1 7.6-7.6h90.4l7.8 7.8v.3c-7.1 42.6-27.7 75.5-61.2 97.8-29.5 19.6-68.1 30-111.8 30zm0-389.9c-113.6 0-187 76.3-187 194.5s73.4 194.5 187 194.5c43.4 0 81.9-10.3 111.3-29.9 33.2-22.1 53.6-54.7 60.7-96.9l-7.2-7.2h-89.6l-7.3 7.3c-4.8 14.1-19.9 37.7-67.9 37.7-26.4 0-47-9.2-61.3-27.4-14.4-18.2-21.7-44.5-21.7-78.1 0-33.6 7.3-59.9 21.7-78.1 14.3-18.2 35-27.4 61.3-27.4 48 0 63.2 23.6 67.9 37.7l7.3 7.3h89.6l7.2-7.2c-7.1-42.2-27.5-74.8-60.7-96.9-29.4-19.6-67.8-29.9-111.3-29.9z"/><path class="st5" d="M262.4 520.2c-114.2 0-188-76.7-188-195.5s73.8-195.5 188-195.5c43.6 0 82.3 10.4 111.8 30.1 33.5 22.3 54.1 55.2 61.2 97.8v.3l-7.8 7.8h-90.4l-7.7-7.7v-.1c-8-24-31.8-37.2-67-37.2-26 0-46.4 9.1-60.5 27-14.2 18-21.5 44.1-21.5 77.5s7.2 59.5 21.5 77.5c14.1 17.9 34.5 27 60.5 27 35.2 0 59-13.2 67-37.2v-.1l.1-.1 7.6-7.6h90.4l7.8 7.8v.3c-7.1 42.6-27.7 75.5-61.2 97.8-29.5 19.7-68.2 30.1-111.8 30.1zm0-390c-113.6 0-187 76.3-187 194.5s73.4 194.5 187 194.5c43.4 0 81.9-10.3 111.3-29.9 33.2-22.1 53.6-54.7 60.7-96.9l-7.2-7.2h-89.6l-7.3 7.3c-4.8 14.1-19.9 37.7-67.9 37.7-26.4 0-47-9.2-61.3-27.4-14.4-18.2-21.7-44.5-21.7-78.1s7.3-59.9 21.7-78.1c14.3-18.2 35-27.4 61.3-27.4 48 0 63.2 23.6 67.9 37.7l7.3 7.3h89.6l7.2-7.2c-7.1-42.2-27.5-74.8-60.7-96.9-29.4-19.5-67.9-29.9-111.3-29.9z"/><path class="st6" d="M237.6 552.5c-114.2 0-188-76.7-188-195.5s73.8-195.5 188-195.5c43.6 0 82.3 10.4 111.8 30.1 33.5 22.3 54.1 55.2 61.2 97.8v.3l-7.8 7.8h-90.4l-7.7-7.7v-.1c-8-24-31.8-37.2-67-37.2-26 0-46.4 9.1-60.5 27-14.2 18-21.5 44.1-21.5 77.5s7.2 59.5 21.5 77.5c14.1 17.9 34.5 27 60.5 27 35.2 0 59-13.2 67-37.2v-.1l7.7-7.7h90.4l7.8 7.8v.3c-7.1 42.6-27.7 75.5-61.2 97.8-29.4 19.7-68.1 30.1-111.8 30.1zm0-390c-113.6 0-187 76.3-187 194.5 0 118.1 73.4 194.5 187 194.5 43.4 0 81.9-10.3 111.3-29.9 33.2-22.1 53.6-54.7 60.7-96.9l-7.2-7.2h-89.6l-7.3 7.3c-4.8 14.1-19.9 37.7-67.9 37.7-26.4 0-47-9.2-61.3-27.4-14.4-18.2-21.7-44.5-21.7-78.1s7.3-59.9 21.7-78.1c14.3-18.2 35-27.4 61.3-27.4 48 0 63.2 23.6 67.9 37.7l7.3 7.3h89.6l7.2-7.2c-7.1-42.2-27.5-74.8-60.7-96.9-29.3-19.6-67.8-29.9-111.3-29.9z"/><path class="st7" d="M212.9 584.7c-114.2 0-188-76.7-188-195.5s73.8-195.5 188-195.5c43.6 0 82.3 10.4 111.8 30.1 33.5 22.3 54.1 55.2 61.2 97.8v.3l-7.8 7.8h-90.4l-7.7-7.7v-.1c-8-24-31.8-37.2-67-37.2-26 0-46.4 9.1-60.5 27-14.2 18-21.5 44.1-21.5 77.5s7.2 59.5 21.5 77.5c14.1 17.9 34.5 27 60.5 27 35.2 0 59-13.2 67-37.2v-.1l.1-.1 7.6-7.6h90.4l7.8 7.8v.3c-7.1 42.6-27.7 75.5-61.2 97.8-29.5 19.7-68.1 30.1-111.8 30.1zm0-390c-113.6 0-187 76.3-187 194.5 0 118.1 73.4 194.5 187 194.5 43.4 0 81.9-10.3 111.3-29.9 33.2-22.1 53.6-54.7 60.7-96.9l-7.2-7.2h-89.6l-7.3 7.3c-4.8 14.1-19.9 37.7-67.9 37.7-26.4 0-47-9.2-61.3-27.4-14.4-18.2-21.7-44.5-21.7-78.1s7.3-59.9 21.7-78.1c14.3-18.2 35-27.4 61.3-27.4 48 0 63.2 23.6 67.9 37.7l7.3 7.3h89.6l7.2-7.2c-7.1-42.2-27.5-74.8-60.7-96.9-29.4-19.5-67.8-29.9-111.3-29.9z"/><path class="st8" d="M188.2 617c-114.2 0-188-76.8-188-195.5s73.8-195.5 188-195.5c43.6 0 82.3 10.4 111.8 30.1 33.5 22.3 54.1 55.2 61.2 97.8v.3l-7.8 7.8h-90.4l-7.7-7.7v-.1c-8-24-31.8-37.2-67-37.2-26 0-46.4 9.1-60.5 27-14.2 18-21.5 44.1-21.5 77.5s7.2 59.5 21.5 77.5c14.1 17.9 34.5 27 60.5 27 35.2 0 59-13.2 67-37.2v-.1l7.7-7.7h90.4l7.8 7.8v.3c-7.1 42.6-27.7 75.5-61.2 97.8-29.5 19.7-68.2 30.1-111.8 30.1zm0-390c-113.6 0-187 76.3-187 194.5s73.4 194.5 187 194.5c43.4 0 81.9-10.3 111.3-29.9 33.2-22.1 53.6-54.7 60.7-96.9l-7.2-7.2h-89.6l-7.3 7.3c-4.8 14.1-19.9 37.7-67.9 37.7-26.4 0-47-9.2-61.3-27.4-14.4-18.2-21.7-44.5-21.7-78.1s7.3-59.9 21.7-78.1c14.3-18.2 35-27.4 61.3-27.4 48 0 63.2 23.6 67.9 37.7l7.3 7.3h89.6l7.2-7.2c-7.1-42.2-27.5-74.8-60.7-96.9-29.4-19.6-67.9-29.9-111.3-29.9z"/></g></svg>