<svg xmlns="http://www.w3.org/2000/svg" viewBox="0 0 535 617">
  <g fill="none" fill-rule="evenodd" opacity=".5">
    <path stroke="#FFF" d="M361.432 300.57c37.532 0 60.05-15.003 67.557-37.508l7.5-7.502h90.07l7.506 7.502c-15.014 90.02-90.078 127.53-172.648 127.53-112.598 0-187.66-75.018-187.66-195.046C173.77 75.518 248.83.5 361.43.5 444 .5 519.064 38.01 534.077 128.03l-7.51 7.502H436.49l-7.507-7.502c-7.507-22.505-30.026-37.508-67.558-37.508-52.546 0-82.57 37.508-82.57 105.024 0 67.516 30.024 105.024 82.57 105.024z"/>
    <path stroke="#FFDBE7" d="M336.68 332.842c37.53 0 60.05-15.003 67.556-37.508l7.507-7.502h90.076l7.5 7.502c-15.02 90.02-90.08 127.53-172.65 127.53-112.6 0-187.66-75.018-187.66-195.046 0-120.028 75.06-195.046 187.66-195.046 82.57 0 157.63 37.51 172.642 127.53l-7.507 7.502h-90.07l-7.508-7.502c-7.507-22.505-30.026-37.508-67.558-37.508-52.547 0-82.57 37.508-82.57 105.024 0 67.516 30.023 105.024 82.57 105.024z"/>
    <path stroke="#FFB7CE" d="M311.926 365.115c37.532 0 60.05-15.003 67.557-37.508l7.507-7.502h90.076l7.507 7.502c-15.013 90.02-90.077 127.53-172.647 127.53-112.596 0-187.66-75.018-187.66-195.046 0-120.02 75.064-195.04 187.66-195.04 82.57 0 157.634 37.51 172.647 127.53l-7.507 7.5H386.99l-7.507-7.5c-7.506-22.5-30.025-37.51-67.557-37.51-52.545 0-82.57 37.51-82.57 105.03s30.025 105.026 82.57 105.026z"/>
    <path stroke="#FF93B6" d="M287.173 397.388c37.53 0 60.05-15.003 67.556-37.508l7.5-7.502h90.07l7.506 7.502c-15.01 90.02-90.075 127.53-172.645 127.53-112.596 0-187.66-75.018-187.66-195.046 0-120.028 75.064-195.046 187.66-195.046 82.57 0 157.634 37.51 172.647 127.53l-7.507 7.502h-90.08l-7.51-7.502c-7.505-22.505-30.024-37.508-67.556-37.508-52.545 0-82.57 37.508-82.57 105.024 0 67.516 30.025 105.024 82.57 105.024z"/>
    <path stroke="#FF6F9D" d="M262.42 429.66c37.53 0 60.05-15.003 67.556-37.508l7.507-7.502h90.076l7.5 7.502c-15.02 90.02-90.08 127.53-172.65 127.53-112.6 0-187.66-75.018-187.66-195.046 0-120.028 75.06-195.046 187.66-195.046 82.57 0 157.63 37.51 172.642 127.53l-7.507 7.502h-90.07l-7.508-7.502c-7.507-22.505-30.026-37.508-67.558-37.508-52.547 0-82.57 37.508-82.57 105.024 0 67.516 30.023 105.024 82.57 105.024z"/>
    <path stroke="#FF4B85" d="M237.666 461.933c37.532 0 60.05-15.003 67.557-37.508l7.507-7.502h90.076l7.507 7.502c-15.013 90.02-90.077 127.53-172.647 127.53-112.596 0-187.66-75.018-187.66-195.046 0-120.03 75.064-195.05 187.66-195.05 82.57 0 157.634 37.51 172.647 127.53l-7.507 7.5H312.73l-7.507-7.5c-7.506-22.51-30.025-37.51-67.557-37.51-52.545 0-82.57 37.51-82.57 105.02 0 67.512 30.025 105.02 82.57 105.02z"/>
    <path stroke="#FF276C" d="M212.913 494.206c37.532 0 60.05-15.003 67.557-37.508l7.507-7.502h90.076l7.507 7.502c-15.013 90.02-90.077 127.53-172.647 127.53-112.596 0-187.66-75.018-187.66-195.046 0-120.028 75.064-195.046 187.66-195.046 82.57 0 157.634 37.51 172.647 127.53l-7.507 7.502h-90.076l-7.507-7.502c-7.506-22.505-30.025-37.508-67.557-37.508-52.545 0-82.57 37.508-82.57 105.024 0 67.516 30.025 105.024 82.57 105.024z"/>
    <path stroke="#FF0354" d="M188.16 526.478c37.532 0 60.05-15.003 67.557-37.508l7.507-7.502H353.3l7.507 7.502C345.794 578.99 270.73 616.5 188.16 616.5 75.564 616.5.5 541.482.5 421.454c0-120.028 75.064-195.046 187.66-195.046 82.57 0 157.634 37.51 172.647 127.53l-7.507 7.502h-90.076l-7.507-7.502c-7.506-22.505-30.025-37.508-67.557-37.508-52.545 0-82.57 37.508-82.57 105.024 0 67.516 30.025 105.024 82.57 105.024z"/>
  </g>
</svg>