<svg xmlns="http://www.w3.org/2000/svg" viewBox="0 0 1283 651" enable-background="new 0 0 1283 651"><style type="text/css">.st0{fill:#F7F7F7;} .st1{stroke:#000000;stroke-width:2;stroke-linecap:square;} .st2{enable-background:new ;} .st3{fill:#FF0354;} .st4{fill:none;stroke:#FF0354;stroke-width:2;stroke-linecap:square;stroke-dasharray:1,10,1,10;}</style><title>grafik</title><desc>Created with Sketch.</desc><g id="rect_eras"><path id="Rectangle-326" class="st0" d="M431 100h218v441h-218z"/><path id="Rectangle-326-Copy" class="st0" d="M656 100h356v441h-356z"/><path id="Rectangle-326-Copy-2" class="st0" d="M1019 100h264v441h-264z"/></g><path id="y-achse" class="st1" d="M121 565v-482"/><path id="y-achse-decoration-1" class="st1" d="M121 83l-3 10.8h6l-3-10.8z"/><path id="x-achse" class="st1" d="M138 582h1034"/><path id="x-achse-decoration-1" class="st1" d="M1172 582l-10.8-3v6l10.8-3z"/><g class="st2"><path d="M104.2 15.2v10.8c0 1.8-.6 3.4-1.7 4.5-1.2 1.2-2.6 1.8-4.5 1.8s-3.3-.6-4.5-1.8c-1.2-1.2-1.7-2.7-1.7-4.5v-10.8h3.2v10.9c0 .9.2 1.7.7 2.3.5.6 1.2.8 2.2.8s1.7-.3 2.2-.8c.5-.6.7-1.3.7-2.2v-11h3.4zM108.1 26.1l3-.6c0 .4.1.7.2 1l.3.9s.4.7.6.9c.2.2.6.4 1 .6.4.2.9.3 1.5.3.8 0 1.5-.2 2.1-.6s.8-.9.8-1.7c0-.6-.2-1.2-.7-1.5-.5-.4-1.3-.7-2.4-1-.9-.2-1.6-.5-2.2-.7-.6-.2-1.2-.5-1.7-.9s-1-.8-1.2-1.4c-.3-.6-.4-1.2-.4-2 0-1.3.5-2.4 1.5-3.3s2.3-1.4 4.1-1.4c1.5 0 2.7.4 3.8 1.2 1.1.8 1.8 1.9 2.1 3.4l-3 .6c-.2-.6-.5-1.1-1-1.5-.5-.4-1.1-.6-2-.6-.7 0-1.3.1-1.7.4s-.6.7-.6 1.1c0 .5.3.8.8 1.1.5.3 1.3.6 2.4.9 1.6.5 2.7 1 3.4 1.4 1.4.9 2 2.3 2 4.1 0 1.6-.6 2.9-1.7 3.9s-2.6 1.5-4.5 1.5c-1 0-1.9-.1-2.6-.4s-1.4-.6-1.8-1c-.5-.4-.9-.9-1.2-1.5-.3-.6-.5-1.1-.7-1.7 0-.3-.1-.9-.2-1.5zM135.9 28.9v3.1h-10.6v-16.8h10.6v3.1h-7.4v3.3h6.7v3.1h-6.7v4.2h7.4zM152.2 32h-3.6l-3.1-6.6h-1.9v6.6h-3.2v-16.8h6c1.4 0 2.6.5 3.6 1.5s1.5 2.2 1.5 3.6c0 1.1-.2 2-.6 2.7-.4.7-1.1 1.3-2 1.8l3.3 7.2zm-5.8-9.7c.3 0 .5 0 .8-.1.2-.1.5-.3.7-.6.2-.3.4-.7.4-1.2 0-.6-.2-1.1-.6-1.5s-.8-.6-1.3-.6h-2.8v4h2.8z"/></g><g class="st2"><path d="M99.5 646.9v3.1h-12.3v-3.1h4.7v-10l-3.6 2.3v-3.6l3.9-2.4h3v13.7h4.3zM108 644.2c-1.4 0-2.7-.5-3.9-1.5-1.2-1-1.7-2.4-1.7-4.2 0-1.6.6-3 1.7-4.1s2.5-1.6 4.1-1.6c2 0 3.6.7 4.8 2.2s1.7 3.7 1.7 6.7c0 2.9-.5 5.1-1.6 6.5-1.1 1.4-2.6 2.2-4.5 2.2-1.6 0-2.9-.4-3.9-1.2-1-.8-1.6-2.2-1.9-4l3-.5c.1 1 .4 1.6.8 2 .4.4 1.1.6 1.9.6 1.9 0 2.9-1.4 2.9-4.1-.1.1-.2.2-.4.3-.2.1-.6.3-1.2.5-.6.1-1.2.2-1.8.2zm.3-8.2c-.2 0-.5 0-.7.1-.3.1-.6.2-.9.4s-.6.4-.8.8c-.2.4-.3.8-.3 1.3s.1.9.3 1.3.5.6.8.8c.3.2.6.3.9.4.3.1.5.1.8.1.6 0 1.1-.2 1.7-.6.6-.4.8-1.1.8-2 0-.9-.3-1.5-.9-2s-1.1-.6-1.7-.6zM129.8 637.8c0 .6-.1 1.1-.3 1.6-.2.5-.4.9-.5 1.1l-.3.4.5.5s.5.7.8 1.4c.3.7.5 1.4.5 2.2 0 1.6-.6 2.9-1.7 3.9s-2.6 1.5-4.2 1.5-3-.5-4.2-1.5c-1.2-1-1.8-2.3-1.8-3.9 0-.5.1-1 .2-1.4.1-.5.3-.8.5-1.2.2-.3.4-.6.5-.8.2-.2.3-.4.5-.5l.2-.2c-.1-.1-.2-.2-.3-.4-.1-.2-.3-.5-.5-1s-.3-1.1-.3-1.7c0-1.4.5-2.6 1.5-3.5 1-1 2.2-1.4 3.7-1.4 1.4 0 2.7.5 3.7 1.4.9.9 1.5 2.1 1.5 3.5zm-5.3 9.4c.9 0 1.5-.2 2-.6.5-.4.7-1 .7-1.7s-.2-1.3-.7-1.8c-.5-.5-1.1-.7-2-.7-.8 0-1.5.2-2 .7-.5.4-.7 1.1-.7 1.8s.2 1.3.7 1.7c.5.4 1.2.6 2 .6zm0-11.2c-.5 0-1 .2-1.4.5s-.6.8-.6 1.3c0 .7.2 1.1.6 1.4.4.3.9.5 1.3.5.5 0 1-.1 1.4-.4.4-.3.6-.8.6-1.5 0-.5-.2-1-.6-1.3-.2-.4-.7-.5-1.3-.5zM145.2 648.2c-1.1 1.5-2.6 2.2-4.6 2.2s-3.5-.7-4.6-2.2c-1.1-1.5-1.6-3.7-1.6-6.8 0-2.8.6-4.9 1.7-6.4 1.1-1.4 2.6-2.1 4.5-2.1s3.4.7 4.5 2.1c1.1 1.4 1.7 3.5 1.7 6.4 0 3-.5 5.3-1.6 6.8zm-1.6-6.9c0-2-.2-3.3-.7-4.2-.5-.8-1.2-1.2-2.3-1.2-1.1 0-1.8.4-2.3 1.2-.5.8-.7 2.2-.7 4.2 0 2.2.2 3.8.7 4.6.5.8 1.2 1.3 2.3 1.3s1.8-.4 2.3-1.3c.5-.8.7-2.3.7-4.6z"/></g><g class="st2"><path d="M415.6 646.9v3.1h-12.4v-3.1h4.7v-10l-3.6 2.3v-3.6l3.9-2.4h3v13.7h4.4zM424.1 644.2c-1.4 0-2.7-.5-3.9-1.5-1.2-1-1.7-2.4-1.7-4.2 0-1.6.6-3 1.7-4.1s2.5-1.6 4.1-1.6c2 0 3.6.7 4.8 2.2s1.7 3.7 1.7 6.7c0 2.9-.5 5.1-1.6 6.5-1.1 1.4-2.6 2.2-4.5 2.2-1.6 0-2.9-.4-3.9-1.2-1-.8-1.6-2.2-1.9-4l3-.5c.1 1 .4 1.6.8 2 .4.4 1.1.6 1.9.6 1.9 0 2.9-1.4 2.9-4.1-.1.1-.2.2-.4.3-.2.1-.6.3-1.2.5-.6.1-1.2.2-1.8.2zm.3-8.2c-.2 0-.5 0-.7.1-.3.1-.6.2-.9.4s-.6.4-.8.8c-.2.4-.3.8-.3 1.3s.1.9.3 1.3.5.6.8.8c.3.2.6.3.9.4.3.1.5.1.8.1.6 0 1.1-.2 1.7-.6.6-.4.8-1.1.8-2 0-.9-.3-1.5-.9-2s-1.1-.6-1.7-.6zM440.1 644.2c-1.4 0-2.7-.5-3.9-1.5-1.2-1-1.7-2.4-1.7-4.2 0-1.6.6-3 1.7-4.1s2.5-1.6 4.1-1.6c2 0 3.6.7 4.8 2.2s1.7 3.7 1.7 6.7c0 2.9-.5 5.1-1.6 6.5-1.1 1.4-2.6 2.2-4.5 2.2-1.6 0-2.9-.4-3.9-1.2-1-.8-1.6-2.2-1.9-4l3-.5c.1 1 .4 1.6.8 2 .4.4 1.1.6 1.9.6 1.9 0 2.9-1.4 2.9-4.1-.1.1-.2.2-.4.3-.2.1-.6.3-1.2.5-.6.1-1.2.2-1.8.2zm.3-8.2c-.2 0-.5 0-.7.1-.3.1-.6.2-.9.4s-.6.4-.8.8c-.2.4-.3.8-.3 1.3s.1.9.3 1.3.5.6.8.8c.3.2.6.3.9.4.3.1.5.1.8.1.6 0 1.1-.2 1.7-.6.6-.4.8-1.1.8-2 0-.9-.3-1.5-.9-2s-1.1-.6-1.7-.6zM457.2 641.9c-1.3 0-2.1.4-2.6 1.3l-2.9-.9 1.4-9h8.8v3.1h-6l-.4 3c.6-.2 1.2-.3 2-.3 1.7 0 3.1.5 4.2 1.5s1.6 2.4 1.6 4.2c0 1.8-.6 3.2-1.7 4.2s-2.6 1.5-4.4 1.5c-1.7 0-3.1-.5-4.1-1.4-1.1-.9-1.7-2.1-2-3.6l3-.7c.2.8.5 1.5.9 1.9.4.4 1.2.7 2.1.7.2 0 .5 0 .7-.1s.5-.1.9-.3.6-.4.9-.8c.2-.4.3-.8.3-1.4 0-.5-.1-1-.3-1.4-.2-.4-.5-.7-.8-.9-.3-.2-.6-.3-.9-.4s-.5-.2-.7-.2z"/></g><g class="st2"><path d="M645.1 636c-1.7 0-2.7 1-2.9 3.1l-3-.5c.1-1.7.7-3 1.8-4.1 1.1-1.1 2.5-1.6 4.1-1.6 1.6 0 2.9.5 4 1.5s1.6 2.3 1.6 4c0 1.3-.4 2.3-1.3 3.1-.9.8-2.1 1.5-3.8 2-.6.2-1.1.4-1.5.6-.4.2-.7.4-.9.6s-.4.4-.5.7c-.1.3-.2.5-.2.7v.9h8.4v3.1h-11.8v-3.2c0-1.6.4-2.8 1.1-3.6.7-.9 2-1.6 3.7-2.2.5-.2 1-.4 1.3-.5.3-.1.7-.3 1.1-.6.4-.2.7-.5.9-.8.2-.3.3-.6.3-.9 0-.7-.2-1.3-.6-1.7s-1-.6-1.8-.6zM665.8 648.2c-1.1 1.5-2.6 2.2-4.6 2.2s-3.5-.7-4.6-2.2-1.6-3.7-1.6-6.8c0-2.8.6-4.9 1.7-6.4 1.1-1.4 2.6-2.1 4.5-2.1s3.4.7 4.5 2.1c1.1 1.4 1.7 3.5 1.7 6.4.1 3-.5 5.3-1.6 6.8zm-1.6-6.9c0-2-.2-3.3-.7-4.2-.5-.8-1.2-1.2-2.3-1.2s-1.8.4-2.3 1.2c-.5.8-.7 2.2-.7 4.2 0 2.2.2 3.8.7 4.6.5.8 1.2 1.3 2.3 1.3 1.1 0 1.8-.4 2.3-1.3.5-.8.7-2.3.7-4.6zM682.4 648.2c-1.1 1.5-2.6 2.2-4.6 2.2s-3.5-.7-4.6-2.2c-1.1-1.5-1.6-3.7-1.6-6.8 0-2.8.6-4.9 1.7-6.4 1.1-1.4 2.6-2.1 4.5-2.1s3.4.7 4.5 2.1c1.1 1.4 1.7 3.5 1.7 6.4.1 3-.5 5.3-1.6 6.8zm-1.5-6.9c0-2-.2-3.3-.7-4.2-.5-.8-1.2-1.2-2.3-1.2-1.1 0-1.8.4-2.3 1.2-.5.8-.7 2.2-.7 4.2 0 2.2.2 3.8.7 4.6.5.8 1.2 1.3 2.3 1.3 1.1 0 1.8-.4 2.3-1.3.4-.8.7-2.3.7-4.6zM699.1 648.2c-1.1 1.5-2.6 2.2-4.6 2.2s-3.5-.7-4.6-2.2c-1.1-1.5-1.6-3.7-1.6-6.8 0-2.8.6-4.9 1.7-6.4 1.1-1.4 2.6-2.1 4.5-2.1s3.4.7 4.5 2.1c1.1 1.4 1.7 3.5 1.7 6.4 0 3-.5 5.3-1.6 6.8zm-1.6-6.9c0-2-.2-3.3-.7-4.2-.5-.8-1.2-1.2-2.3-1.2-1.1 0-1.8.4-2.3 1.2-.5.8-.7 2.2-.7 4.2 0 2.2.2 3.8.7 4.6.5.8 1.2 1.3 2.3 1.3 1.1 0 1.8-.4 2.3-1.3.5-.8.7-2.3.7-4.6z"/></g><g class="st2"><path d="M1006.2 636c-1.7 0-2.7 1-2.9 3.1l-3-.5c.1-1.7.7-3 1.8-4.1 1.1-1.1 2.5-1.6 4.1-1.6 1.6 0 2.9.5 4 1.5s1.6 2.3 1.6 4c0 1.3-.4 2.3-1.3 3.1-.9.8-2.1 1.5-3.8 2-.6.2-1.1.4-1.5.6-.4.2-.7.4-.9.6-.2.2-.4.4-.5.7-.1.3-.2.5-.2.7v.9h8.4v3.1h-11.8v-3.2c0-1.6.4-2.8 1.1-3.6.7-.9 2-1.6 3.7-2.2.5-.2 1-.4 1.3-.5.3-.1.7-.3 1.1-.6.4-.2.7-.5.9-.8.2-.3.3-.6.3-.9 0-.7-.2-1.3-.6-1.7-.4-.4-1-.6-1.8-.6zM1026.9 648.2c-1.1 1.5-2.6 2.2-4.6 2.2s-3.5-.7-4.6-2.2c-1.1-1.5-1.6-3.7-1.6-6.8 0-2.8.6-4.9 1.7-6.4 1.1-1.4 2.6-2.1 4.5-2.1s3.4.7 4.5 2.1c1.1 1.4 1.7 3.5 1.7 6.4.1 3-.5 5.3-1.6 6.8zm-1.6-6.9c0-2-.2-3.3-.7-4.2-.5-.8-1.2-1.2-2.3-1.2-1.1 0-1.8.4-2.3 1.2-.5.8-.7 2.2-.7 4.2 0 2.2.2 3.8.7 4.6.5.8 1.2 1.3 2.3 1.3 1.1 0 1.8-.4 2.3-1.3.5-.8.7-2.3.7-4.6zM1044.5 646.9v3.1h-12.4v-3.1h4.7v-10l-3.6 2.3v-3.6l3.9-2.4h3v13.7h4.4zM1054.1 641.9c-1.3 0-2.1.4-2.6 1.3l-2.9-.9 1.4-9h8.8v3.1h-6l-.4 3c.6-.2 1.2-.3 2-.3 1.7 0 3.1.5 4.2 1.5s1.6 2.4 1.6 4.2c0 1.8-.6 3.2-1.7 4.2s-2.6 1.5-4.4 1.5c-1.7 0-3.1-.5-4.1-1.4-1.1-.9-1.7-2.1-2-3.6l3-.7c.2.8.5 1.5.9 1.9s1.2.7 2.1.7c.2 0 .5 0 .7-.1s.5-.1.9-.3c.4-.2.6-.4.9-.8s.3-.8.3-1.4c0-.5-.1-1-.3-1.4-.2-.4-.5-.7-.8-.9-.3-.2-.6-.3-.9-.4s-.5-.2-.7-.2z"/></g><g class="st2"><path d="M1147.9 636c-1.7 0-2.7 1-2.9 3.1l-3-.5c.1-1.7.7-3 1.8-4.1 1.1-1.1 2.5-1.6 4.1-1.6 1.6 0 2.9.5 4 1.5s1.6 2.3 1.6 4c0 1.3-.4 2.3-1.3 3.1-.9.8-2.1 1.5-3.8 2-.6.2-1.1.4-1.5.6s-.7.4-.9.6c-.2.2-.4.4-.5.7-.1.3-.2.5-.2.7v.9h8.4v3.1h-11.8v-3.2c0-1.6.4-2.8 1.1-3.6.7-.9 2-1.6 3.7-2.2.5-.2 1-.4 1.3-.5.3-.1.7-.3 1.1-.6.4-.2.7-.5.9-.8s.3-.6.3-.9c0-.7-.2-1.3-.6-1.7s-1-.6-1.8-.6zM1168.6 648.2c-1.1 1.5-2.6 2.2-4.6 2.2s-3.5-.7-4.6-2.2c-1.1-1.5-1.6-3.7-1.6-6.8 0-2.8.6-4.9 1.7-6.4 1.1-1.4 2.6-2.1 4.5-2.1s3.4.7 4.5 2.1c1.1 1.4 1.7 3.5 1.7 6.4 0 3-.5 5.3-1.6 6.8zm-1.6-6.9c0-2-.2-3.3-.7-4.2-.5-.8-1.2-1.2-2.3-1.2s-1.8.4-2.3 1.2c-.5.8-.7 2.2-.7 4.2 0 2.2.2 3.8.7 4.6.5.8 1.2 1.3 2.3 1.3s1.8-.4 2.3-1.3c.4-.8.7-2.3.7-4.6zM1180.6 636c-1.7 0-2.7 1-2.9 3.1l-3-.5c.1-1.7.7-3 1.8-4.1 1.1-1.1 2.5-1.6 4.1-1.6 1.6 0 2.9.5 4 1.5s1.6 2.3 1.6 4c0 1.3-.4 2.3-1.3 3.1-.9.8-2.1 1.5-3.8 2-.6.2-1.1.4-1.5.6-.4.2-.7.4-.9.6-.2.2-.4.4-.5.7-.1.3-.2.5-.2.7v.9h8.4v3.1h-11.8v-3.2c0-1.6.4-2.8 1.1-3.6.7-.9 2-1.6 3.7-2.2.5-.2 1-.4 1.3-.5.3-.1.7-.3 1.1-.6.4-.2.7-.5.9-.8.2-.3.3-.6.3-.9 0-.7-.2-1.3-.6-1.7s-1-.6-1.8-.6zM1201.3 648.2c-1.1 1.5-2.6 2.2-4.6 2.2-2 0-3.5-.7-4.6-2.2-1.1-1.5-1.6-3.7-1.6-6.8 0-2.8.6-4.9 1.7-6.4 1.1-1.4 2.6-2.1 4.5-2.1s3.4.7 4.5 2.1c1.1 1.4 1.7 3.5 1.7 6.4.1 3-.5 5.3-1.6 6.8zm-1.6-6.9c0-2-.2-3.3-.7-4.2-.5-.8-1.2-1.2-2.3-1.2-1.1 0-1.8.4-2.3 1.2-.5.8-.7 2.2-.7 4.2 0 2.2.2 3.8.7 4.6.5.8 1.2 1.3 2.3 1.3 1.1 0 1.8-.4 2.3-1.3.5-.8.7-2.3.7-4.6z"/></g><g class="st2"><path d="M11.8 500.4c-1.9 0-3.4-.7-4.6-2.2-1.2-1.4-1.7-3.6-1.7-6.6 0-2.9.6-5.1 1.7-6.6 1.2-1.4 2.7-2.2 4.6-2.2 1.9 0 3.5.7 4.6 2.2 1.2 1.4 1.7 3.6 1.7 6.6 0 2.9-.6 5.1-1.7 6.6-1.1 1.4-2.7 2.2-4.6 2.2zm0-2.6c1.3 0 2.2-.5 2.8-1.4s.9-2.5.9-4.8-.3-3.9-.9-4.8-1.5-1.4-2.8-1.4c-1.3 0-2.2.5-2.8 1.4s-.9 2.5-.9 4.8.3 3.9.9 4.8c.6 1 1.5 1.4 2.8 1.4zM23.6 500v-10.3h-1.9v-2.4h1.9v-1c0-1.1.3-2 .9-2.6.6-.6 1.5-.9 2.5-.9s1.9.4 2.9 1.2l-1.3 1.9c-.5-.4-1.1-.6-1.6-.6-.6 0-.9.4-.9 1.2v.9h3.6v2.4h-3.6v10.2h-2.5zM34.4 500v-10.3h-1.9v-2.4h1.9v-1c0-1.1.3-2 .9-2.6.6-.6 1.5-.9 2.5-.9.9 0 1.9.4 2.9 1.2l-1.3 1.9c-.5-.4-1.1-.6-1.6-.6-.6 0-.9.4-.9 1.2v.9h8.3v12.6h-2.5v-10.3h-5.7v10.3h-2.6zm8.1-14.2v-2.6h2.8v2.6h-2.8zM58.3 495.4l2.5.4c-.4 1.5-1.1 2.6-2 3.4-1 .8-2.1 1.1-3.5 1.1-1.7 0-3.1-.6-4.2-1.8-1.1-1.2-1.6-2.8-1.6-5 0-2.1.5-3.8 1.6-4.9 1.1-1.2 2.5-1.8 4.2-1.8 1.4 0 2.5.4 3.5 1.1 1 .8 1.6 1.9 2 3.4l-2.5.4c-.2-.9-.6-1.5-1-1.9-.5-.4-1.1-.6-2-.6-2.2 0-3.3 1.4-3.3 4.3s1.1 4.3 3.3 4.3c.8 0 1.5-.2 2-.6.5-.3.8-.9 1-1.8zM72.4 495.8l2.4.7c-.4 1.3-1 2.2-1.9 2.9-.9.7-2 1-3.3 1-1.7 0-3-.6-4.1-1.8-1-1.2-1.5-2.8-1.5-5 0-2.1.5-3.8 1.5-4.9s2.4-1.8 4-1.8c1.7 0 3.1.6 4.1 1.8 1 1.2 1.5 2.8 1.5 5v.7h-8.7c.1 1.2.3 2.1.8 2.7s1.2.9 2.3.9c.7 0 1.3-.2 1.8-.5.5-.4.8-.9 1.1-1.7zm-5.9-3.6h6c-.1-.9-.4-1.6-.8-2.1s-1.2-.8-2.2-.8c-1 0-1.7.3-2.2.8s-.7 1.3-.8 2.1z"/></g><g class="st2"><path d="M505 446l-2.5-16.8h2.7l1.7 12.4 3.6-12.4h2l3.5 12.4 1.7-12.4h2.7l-2.5 16.8h-2.9l-3.6-12.1-3.7 12.1h-2.7zM531.3 441.8l2.4.7c-.4 1.3-1 2.2-1.9 2.9-.9.7-2 1-3.3 1-1.7 0-3-.6-4.1-1.8-1-1.2-1.5-2.8-1.5-5 0-2.1.5-3.8 1.5-4.9s2.4-1.8 4-1.8c1.7 0 3.1.6 4.1 1.8 1 1.2 1.5 2.8 1.5 5v.7h-8.7c.1 1.2.3 2.1.8 2.7s1.2.9 2.3.9c.7 0 1.3-.2 1.8-.5.5-.4.8-.9 1.1-1.7zm-5.9-3.6h6c-.1-.9-.4-1.6-.8-2.1s-1.2-.8-2.2-.8c-1 0-1.7.3-2.2.8s-.7 1.3-.8 2.1zM538.3 446v-16.8h2.5v4.9c.9-.8 2.1-1.2 3.4-1.2 1.7 0 3 .6 4 1.8s1.5 2.8 1.5 4.9c0 2.2-.5 3.8-1.5 5-1 1.2-2.4 1.8-4.1 1.8-1.3 0-2.4-.4-3.4-1.2v.9h-2.4zm2.5-7.6v2.6c0 .9.3 1.6.8 2.1.6.5 1.4.8 2.5.8s1.9-.3 2.4-1 .8-1.8.8-3.3-.3-2.6-.8-3.3c-.5-.7-1.3-1-2.4-1-1.1 0-1.9.3-2.5.8-.5.6-.8 1.3-.8 2.3z"/></g><g class="st2"><path class="st3" d="M863.9 446v-16.8h3.4l4.5 12.9 4.5-12.9h3.4v16.8h-2.6v-12.1l-4.2 12.1h-1.9l-4.2-12.1v12.1h-2.9zM889.7 446.4c-1.7 0-3.1-.6-4.2-1.8-1.1-1.2-1.6-2.8-1.6-5 0-2.1.5-3.8 1.6-4.9 1.1-1.2 2.5-1.8 4.2-1.8 1.7 0 3.2.6 4.2 1.8 1.1 1.2 1.6 2.8 1.6 5s-.5 3.8-1.6 4.9c-1 1.2-2.4 1.8-4.2 1.8zm0-2.4c2.2 0 3.4-1.4 3.4-4.3s-1.1-4.3-3.4-4.3c-2.2 0-3.3 1.4-3.3 4.3 0 2.8 1.1 4.3 3.3 4.3zM899.8 446v-16.8h2.5v4.9c.9-.8 2.1-1.2 3.4-1.2 1.7 0 3 .6 4 1.8s1.5 2.8 1.5 4.9c0 2.2-.5 3.8-1.5 5-1 1.2-2.4 1.8-4.1 1.8-1.3 0-2.4-.4-3.4-1.2v.9h-2.4zm2.5-7.6v2.6c0 .9.3 1.6.8 2.1.6.5 1.4.8 2.5.8s1.9-.3 2.4-1 .8-1.8.8-3.3-.3-2.6-.8-3.3c-.5-.7-1.3-1-2.4-1-1.1 0-1.9.3-2.5.8-.5.6-.8 1.3-.8 2.3zM915.5 431.8v-2.6h2.8v2.6h-2.8zm.2 14.2v-12.7h2.5v12.7h-2.5zM923.5 446v-16.8h2.5v16.8h-2.5zM938.7 441.8l2.4.7c-.4 1.3-1 2.2-1.9 2.9-.9.7-2 1-3.3 1-1.7 0-3-.6-4.1-1.8-1-1.2-1.5-2.8-1.5-5 0-2.1.5-3.8 1.5-4.9s2.4-1.8 4-1.8c1.7 0 3.1.6 4.1 1.8 1 1.2 1.5 2.8 1.5 5v.7h-8.7c.1 1.2.3 2.1.8 2.7s1.2.9 2.3.9c.7 0 1.3-.2 1.8-.5.5-.4.8-.9 1.1-1.7zm-5.9-3.6h6c-.1-.9-.4-1.6-.8-2.1s-1.2-.8-2.2-.8c-1 0-1.7.3-2.2.8s-.7 1.3-.8 2.1z"/></g><g id="Kurven"><path d="M55.7 543c-31.2 0-51.7-1.8-52-1.9-2.2-.2-3.8-2.2-3.6-4.4.2-2.2 2.2-3.8 4.4-3.6.6.1 60.9 5.4 132.7-2.5 42.2-4.7 80.1-13 112.5-24.7 40.3-14.5 72.2-34.4 94.8-58.9 23.4-25.4 54.3-47.1 91.8-64.4 29.9-13.8 64.1-24.8 101.5-32.9 63.6-13.5 115.7-13.7 116.2-13.7 2.2 0 4 1.8 4 4s-1.8 4-4 4c-.5 0-51.9.2-114.8 13.7-36.9 7.9-70.4 18.8-99.8 32.3-36.5 16.8-66.5 37.9-89.2 62.5-23.5 25.5-56.5 46.1-98 61-33 11.9-71.4 20.3-114.3 25.1-30.7 3.4-59.3 4.4-82.2 4.4z" id="Path-2031-office"/><path d="M534.5 482.5c-21.8 0-36.1-2.2-37.1-2.4-2.2-.4-3.7-2.4-3.3-4.6.4-2.2 2.4-3.7 4.6-3.3.4.1 43 6.7 93.6-3.2 29.6-5.8 56.1-15.9 78.8-30.2 28.3-17.8 50.7-42.2 66.7-72.4 16.6-31.4 38.5-58.1 65.2-79.6 21.3-17.1 45.7-30.9 72.5-40.8 45.5-17 81.7-17.2 83.2-17.2 2.2 0 4 1.8 4 4s-1.8 4-4 4c-.4 0-36.5.2-80.7 16.8-25.9 9.7-49.5 23-70.1 39.6-25.8 20.7-47 46.6-63 76.9-16.7 31.5-40.1 56.9-69.7 75.5-23.6 14.8-51 25.3-81.6 31.3-22.3 4.4-42.8 5.6-59.1 5.6z" id="Path-2031-web"/><path class="st3" d="M885.3 392.7c-14.5 0-24.1-3.7-24.8-3.9-2.1-.8-3.1-3.1-2.3-5.2.8-2.1 3.1-3.1 5.2-2.3.5.2 28.7 10.7 61.4-6.9 17.8-9.6 33.8-25.7 47.6-47.9 17.2-27.8 31-65.2 40.9-111.2 10.5-48.7 24.4-90.3 41.3-123.6 13.6-26.8 29.2-48.4 46.4-64.1 29.9-27.3 54-27.6 55-27.6 2.2 0 4 1.8 4 4s-1.8 4-4 4c-.2 0-22.6.5-50.2 26.1-46.7 43.3-71.8 123.3-84.6 182.8-10.1 47-24.3 85.3-42 113.9-14.5 23.4-31.6 40.5-50.7 50.7-16.3 8.7-31.3 11.2-43.2 11.2z" id="Path-2031-mobile"/></g><g id="_x31_"><path d="M547.1 102.9v3.1h-12.4v-3.1h4.7v-10l-3.6 2.3v-3.6l3.9-2.4h3v13.7h4.4z" class="st2"/><g class="st2"><path d="M446.5 171v3.1h-10.6v-16.7h10.6v3.1h-7.4v3.3h6.7v3.1h-6.7v4.1h7.4zM461.8 157.4l-4.6 7.9 5.2 8.9h-3.7l-3.3-6.2-3.4 6.2h-3.6l5.1-8.8-4.6-8h3.7l2.8 5.3 2.8-5.3h3.6zM465 157.4h6c1.4 0 2.7.5 3.7 1.5s1.5 2.3 1.5 3.8-.5 2.7-1.5 3.8c-1 1-2.2 1.5-3.8 1.5h-2.8v6.2h-3.1v-16.8zm6.1 7.4c.6 0 1-.2 1.4-.6.4-.4.6-.9.6-1.5 0-.7-.2-1.2-.6-1.6-.4-.4-.9-.6-1.4-.6h-2.8v4.3h2.8zM489.9 171v3.1h-10.7v-16.7h10.6v3.1h-7.4v3.3h6.7v3.1h-6.7v4.1h7.5zM505.5 174.2h-3.6l-3.1-6.6h-1.9v6.6h-3.2v-16.8h6c1.4 0 2.6.5 3.6 1.5s1.5 2.2 1.5 3.6c0 1.1-.2 2-.6 2.7-.4.7-1.1 1.3-2 1.8l3.3 7.2zm-5.9-9.8c.3 0 .5 0 .8-.1.2-.1.5-.3.7-.6.2-.3.4-.7.4-1.2 0-.6-.2-1.1-.6-1.5s-.8-.6-1.3-.6h-2.8v4h2.8zM512.4 157.4v16.8h-3.2v-16.8h3.2zM529.2 157.4h3.8v16.8h-3.2v-11l-3.8 11h-2.1l-3.7-10.9v10.9h-3.2v-16.8h3.8l4.3 12.6 4.1-12.6zM548.1 171v3.1h-10.6v-16.7h10.6v3.1h-7.4v3.3h6.7v3.1h-6.7v4.1h7.4zM560.8 157.4h3.3v16.8h-3l-6-10.8v10.8h-3.2v-16.8h3l6 10.8v-10.8zM580.1 157.4v3.1h-4.9v13.7h-3.2v-13.7h-5v-3.1h13.1zM590.7 174.2l-1-2.9h-5.7l-1 2.9h-3.3l5.8-16.8h2.9l5.8 16.8h-3.5zm-3.9-11.8l-1.8 5.8h3.6l-1.8-5.8zM606.7 157.4v3.1h-4.9v13.7h-3.2v-13.7h-4.9v-3.1h13zM613 157.4v16.8h-3.2v-16.8h3.2zM627.7 172.3c-1.1 1.5-2.6 2.2-4.6 2.2s-3.5-.7-4.6-2.2c-1.1-1.5-1.6-3.7-1.6-6.8 0-2.8.6-4.9 1.7-6.4 1.1-1.4 2.6-2.1 4.5-2.1s3.4.7 4.5 2.1c1.1 1.4 1.7 3.5 1.7 6.4 0 3.1-.5 5.4-1.6 6.8zm-1.6-6.8c0-2-.2-3.3-.7-4.2-.5-.8-1.2-1.2-2.3-1.2-1.1 0-1.8.4-2.3 1.2-.5.8-.7 2.2-.7 4.2 0 2.2.2 3.8.7 4.6.5.8 1.2 1.3 2.3 1.3s1.8-.4 2.3-1.3c.5-.8.7-2.3.7-4.6zM642.3 157.4h3.3v16.8h-3l-6-10.8v10.8h-3.2v-16.8h3l6 10.8v-10.8z"/></g></g><g id="_x32_"><path d="M833.5 93c-1.7 0-2.7 1-2.9 3.1l-3-.5c.1-1.7.7-3 1.8-4.1s2.5-1.6 4.1-1.6c1.6 0 2.9.5 4 1.5s1.6 2.3 1.6 4c0 1.3-.4 2.3-1.3 3.1-.9.8-2.1 1.5-3.8 2-.6.2-1.1.4-1.5.6-.4.2-.7.4-.9.6s-.4.4-.5.7c-.1.3-.2.5-.2.7v.9h8.4v3h-11.8v-3.2c0-1.6.4-2.8 1.1-3.6.7-.9 2-1.6 3.7-2.2.5-.2 1-.4 1.3-.5.3-.1.7-.3 1.1-.6.4-.2.7-.5.9-.8.2-.3.3-.6.3-.9 0-.7-.2-1.3-.6-1.7s-1-.5-1.8-.5z" class="st2"/><g class="st2"><path d="M750.8 175.2h-6v-16.8h6.2c4 0 6.1 2.7 6.1 8.1 0 5.8-2.1 8.7-6.3 8.7zm0-3.2c.7 0 1.3-.1 1.7-.4.4-.3.7-.8.9-1.6.2-.8.3-2 .3-3.5 0-2-.2-3.3-.6-4-.4-.7-1.1-1-2.2-1h-2.9v10.5h2.8zM764.1 158.4v16.8h-3.2v-16.8h3.2zM774.3 175.5c-2 0-3.5-.7-4.6-2.2-1.1-1.5-1.7-3.7-1.7-6.8 0-2.8.6-4.9 1.7-6.3 1.1-1.4 2.6-2.1 4.6-2.1 1.7 0 3.1.6 4.2 1.8s1.7 2.6 1.9 4.4l-3 .4c-.2-2.3-1.2-3.4-3-3.4-1.1 0-1.8.4-2.3 1.2-.5.8-.7 2.2-.7 4.2 0 2.2.2 3.8.7 4.6.5.8 1.2 1.3 2.3 1.3 1 0 1.7-.3 2.2-.8s.7-1.3.8-2.2h-3.7v-3h7v2.8c0 1.8-.6 3.4-1.7 4.5-1.3 1-2.8 1.6-4.7 1.6zM787.8 158.4v16.8h-3.2v-16.8h3.2zM803.8 158.4v3.1h-4.9v13.7h-3.2v-13.7h-4.9v-3.1h13zM814.4 175.2l-1-2.9h-5.7l-1 2.9h-3.3l5.8-16.8h2.8l5.8 16.8h-3.4zm-3.8-11.8l-1.8 5.8h3.6l-1.8-5.8zM820.7 158.4h3.2v13.6h6.9v3.1h-10.1v-16.7zM837.1 158.4v16.8h-3.2v-16.8h3.2zM840.7 169.3l3-.6c0 .4.1.7.2 1l.3.9s.4.7.6.9c.2.2.6.4 1 .6.4.2.9.3 1.5.3.8 0 1.5-.2 2.1-.6.6-.4.8-.9.8-1.7 0-.6-.2-1.2-.7-1.5s-1.3-.7-2.4-1c-.9-.2-1.6-.5-2.2-.7-.6-.2-1.2-.5-1.7-.9s-1-.8-1.2-1.4c-.3-.6-.4-1.2-.4-2 0-1.3.5-2.4 1.5-3.3 1-.9 2.3-1.4 4.1-1.4 1.5 0 2.7.4 3.8 1.2s1.8 1.9 2.1 3.4l-3 .6c-.2-.6-.5-1.1-1-1.5-.5-.4-1.1-.6-2-.6-.7 0-1.3.1-1.7.4s-.6.7-.6 1.1c0 .5.3.8.8 1.1.5.3 1.3.6 2.4.9 1.6.5 2.7 1 3.4 1.4 1.4.9 2 2.3 2 4.1 0 1.6-.6 2.9-1.7 3.9s-2.6 1.5-4.5 1.5c-1 0-1.9-.1-2.6-.4-.8-.3-1.4-.6-1.8-1s-.9-.9-1.2-1.5c-.3-.6-.5-1.1-.7-1.7 0-.3-.1-.9-.2-1.5zM866.6 175.2l-1-2.9h-5.7l-1 2.9h-3.3l5.8-16.8h2.9l5.8 16.8h-3.5zm-3.8-11.8l-1.8 5.8h3.6l-1.8-5.8zM882.7 158.4v3.1h-4.9v13.7h-3.2v-13.7h-4.9v-3.1h13zM888.9 158.4v16.8h-3.2v-16.8h3.2zM903.7 173.3c-1.1 1.5-2.6 2.2-4.6 2.2s-3.5-.7-4.6-2.2c-1.1-1.5-1.6-3.7-1.6-6.8 0-2.8.6-4.9 1.7-6.4 1.1-1.4 2.6-2.1 4.5-2.1s3.4.7 4.5 2.1c1.1 1.4 1.7 3.5 1.7 6.4 0 3.1-.5 5.4-1.6 6.8zm-1.6-6.8c0-2-.2-3.3-.7-4.2-.5-.8-1.2-1.2-2.3-1.2-1.1 0-1.8.4-2.3 1.2-.5.8-.7 2.2-.7 4.2 0 2.2.2 3.8.7 4.6.5.8 1.2 1.3 2.3 1.3 1.1 0 1.8-.4 2.3-1.3.5-.8.7-2.3.7-4.6zM918.2 158.4h3.3v16.8h-3l-6-10.8v10.8h-3.2v-16.8h3l6 10.8v-10.8z"/></g></g><g id="_x33_"><path d="M1155.2 107.4c-1.7 0-3.1-.5-4.3-1.5-1.2-1-1.9-2.7-2.2-4.9l3.1-.6c.1 1.4.5 2.4 1.2 3 .6.6 1.4.9 2.2.9.4 0 .7 0 1-.1.3-.1.6-.2 1-.3.3-.2.6-.4.8-.7s.3-.8.3-1.3c0-.7-.2-1.2-.6-1.6-.4-.4-1-.6-1.6-.6h-2.1v-2.7h1.6c1.3 0 2-.6 2-1.9 0-.6-.2-1.1-.6-1.5s-1-.6-1.7-.6-1.3.2-1.7.6c-.4.4-.6 1-.8 1.8l-3-.5c.1-1.5.7-2.7 1.7-3.6s2.2-1.3 3.7-1.3 2.8.5 3.9 1.4c1.1.9 1.6 2.2 1.6 3.8 0 .6-.1 1.1-.3 1.6-.2.5-.3.8-.5 1l-.3.3s.1.1.2.1l.4.4s.4.5.5.7c.2.3.3.6.4 1.1.1.5.2 1 .2 1.5 0 1.7-.6 3-1.7 4-1 1-2.5 1.5-4.4 1.5z" class="st2"/><g class="st2"><path d="M1062.6 158.4v3.1h-4.9v13.7h-3.2v-13.7h-4.9v-3.1h13zM1077.5 175.2h-3.6l-3.1-6.6h-1.9v6.6h-3.2v-16.8h6c1.4 0 2.6.5 3.6 1.5s1.5 2.2 1.5 3.6c0 1.1-.2 2-.6 2.7-.4.7-1.1 1.3-2 1.8l3.3 7.2zm-5.8-9.8c.3 0 .5 0 .8-.1s.5-.3.7-.6c.2-.3.4-.7.4-1.2 0-.6-.2-1.1-.6-1.5-.4-.4-.8-.6-1.3-.6h-2.8v4h2.8zM1090.7 175.2l-1-2.9h-5.7l-1 2.9h-3.3l5.8-16.8h2.9l5.8 16.8h-3.5zm-3.8-11.8l-1.8 5.8h3.6l-1.8-5.8zM1106 158.4h3.3v16.8h-3l-6-10.8v10.8h-3.2v-16.8h3l6 10.8v-10.8zM1112.9 169.3l3-.6c0 .4.1.7.2 1l.3.9s.4.7.6.9c.2.2.6.4 1 .6s.9.3 1.5.3c.8 0 1.5-.2 2.1-.6s.8-.9.8-1.7c0-.6-.2-1.2-.7-1.5-.5-.4-1.3-.7-2.4-1-.9-.2-1.6-.5-2.2-.7s-1.2-.5-1.7-.9-1-.8-1.2-1.4c-.3-.6-.4-1.2-.4-2 0-1.3.5-2.4 1.5-3.3s2.3-1.4 4.1-1.4c1.5 0 2.7.4 3.8 1.2 1.1.8 1.8 1.9 2.1 3.4l-3 .6c-.2-.6-.5-1.1-1-1.5-.5-.4-1.1-.6-2-.6-.7 0-1.3.1-1.7.4s-.6.7-.6 1.1c0 .5.3.8.8 1.1s1.3.6 2.4.9c1.6.5 2.7 1 3.4 1.4 1.4.9 2 2.3 2 4.1 0 1.6-.6 2.9-1.7 3.9s-2.6 1.5-4.5 1.5c-1 0-1.9-.1-2.6-.4-.8-.3-1.4-.6-1.8-1-.5-.4-.9-.9-1.2-1.5-.3-.6-.5-1.1-.7-1.7-.1-.3-.2-.9-.2-1.5zM1139.9 161.5h-7.4v3.7h6.7v3.1h-6.7v6.8h-3.2v-16.7h10.7v3.1zM1153.3 173.3c-1.1 1.5-2.6 2.2-4.6 2.2-2 0-3.5-.7-4.6-2.2s-1.6-3.7-1.6-6.8c0-2.8.6-4.9 1.7-6.4 1.1-1.4 2.6-2.1 4.5-2.1s3.4.7 4.5 2.1c1.1 1.4 1.7 3.5 1.7 6.4 0 3.1-.5 5.4-1.6 6.8zm-1.6-6.8c0-2-.2-3.3-.7-4.2-.5-.8-1.2-1.2-2.3-1.2-1.1 0-1.8.4-2.3 1.2-.5.8-.7 2.2-.7 4.2 0 2.2.2 3.8.7 4.6.5.8 1.2 1.3 2.3 1.3 1.1 0 1.8-.4 2.3-1.3.4-.8.7-2.3.7-4.6zM1170.7 175.2h-3.6l-3.1-6.6h-1.9v6.6h-3.2v-16.8h6c1.4 0 2.6.5 3.6 1.5s1.5 2.2 1.5 3.6c0 1.1-.2 2-.6 2.7-.4.7-1.1 1.3-2 1.8l3.3 7.2zm-5.8-9.8c.3 0 .5 0 .8-.1.2-.1.5-.3.7-.6.2-.3.4-.7.4-1.2 0-.6-.2-1.1-.6-1.5s-.8-.6-1.3-.6h-2.8v4h2.8zM1186.8 158.4h3.8v16.8h-3.2v-11l-3.8 11h-2.1l-3.7-10.9v10.9h-3.2v-16.8h3.8l4.3 12.6 4.1-12.6zM1204.5 175.2l-1-2.9h-5.7l-1 2.9h-3.3l5.8-16.8h2.9l5.8 16.8h-3.5zm-3.8-11.8l-1.8 5.8h3.6l-1.8-5.8zM1220.6 158.4v3.1h-4.9v13.7h-3.2v-13.7h-4.9v-3.1h13zM1226.8 158.4v16.8h-3.2v-16.8h3.2zM1241.6 173.3c-1.1 1.5-2.6 2.2-4.6 2.2-2 0-3.5-.7-4.6-2.2-1.1-1.5-1.6-3.7-1.6-6.8 0-2.8.6-4.9 1.7-6.4 1.1-1.4 2.6-2.1 4.5-2.1s3.4.7 4.5 2.1c1.1 1.4 1.7 3.5 1.7 6.4 0 3.1-.5 5.4-1.6 6.8zm-1.6-6.8c0-2-.2-3.3-.7-4.2-.5-.8-1.2-1.2-2.3-1.2-1.1 0-1.8.4-2.3 1.2-.5.8-.7 2.2-.7 4.2 0 2.2.2 3.8.7 4.6.5.8 1.2 1.3 2.3 1.3 1.1 0 1.8-.4 2.3-1.3.5-.8.7-2.3.7-4.6zM1256.1 158.4h3.3v16.8h-3l-6-10.8v10.8h-3.2v-16.8h3l6 10.8v-10.8z"/></g></g><path id="_x37_0-Mio-Line" class="st4" d="M188 26h882.7"/></svg>